{
.appVersion = "1357";
copyright = "Copyright 2019-2021 Google Inc. All Rights Reserved.";
customParameters = (
{
name = Axes;
value = (
{
Default = 100;
Name = Weight;
Tag = wght;
},
{
Default = 100;
Name = Width;
Tag = wdth;
}
);
},
{
name = glyphOrder;
value = (
.notdef,
CR,
NULL,
"alef-hb",
"alefdagesh-hb",
"aleflamed-hb",
"alefpatah-hb",
"alefqamats-hb",
"alternativeplus-hb",
"atnahhafukh-hb",
"ayin-hb",
"ayinaltone-hb",
"bet-hb",
"betdagesh-hb",
"betrafe-hb",
"dagesh-hb",
"dalet-hb",
"daletdagesh-hb",
"dargaleft-hb",
"dehi-hb",
"etnahtaleft-hb",
"finalkaf-hb",
"finalkafdagesh-hb",
"finalmem-hb",
"finalnun-hb",
"finalpe-hb",
"finalpedagesh-hb",
"finaltsadi-hb",
"finalwidemem-hb",
"geresh-hb",
"gereshaccent-hb",
"gereshmuqdam-hb",
"gershayim-hb",
"gershayimaccent-hb",
"gimel-hb",
"gimeldagesh-hb",
"hatafpatah-hb",
"hatafpatah_zerowidthjoiner_siluqleft-hb",
"hatafqamats-hb",
"hatafqamats_zerowidthjoiner_siluqleft-hb",
"hatafsegol-hb",
"hatafsegol_zerowidthjoiner_siluqleft-hb",
"he-hb",
"hedagesh-hb",
"het-hb",
"hiriq-hb",
"holam-hb",
"holamhaser-hb",
hyphen,
hyphentwo,
"iluy-hb",
"judeospanishvarika-hb",
"kaf-hb",
"kafdagesh-hb",
"kafrafe-hb",
"lamed-hb",
"lameddagesh-hb",
"lowerdot-hb",
"mahapakhleft-hb",
"maqaf-hb",
"masoracircle-hb",
"mem-hb",
"memdagesh-hb",
"merkhakefulaleft-hb",
"merkhaleft-hb",
"munahleft-hb",
nbspace,
"nun-hb",
"nundagesh-hb",
"nunhafukha-hb",
"ole-hb",
"paseq-hb",
"pashta-hb",
"patah-hb",
"pazer-hb",
"pe-hb",
"pedagesh-hb",
"perafe-hb",
"qadma-hb",
"qamats-hb",
"qamatsqatan-hb",
"qarneypara-hb",
"qof-hb",
"qofdagesh-hb",
"qubuts-hb",
"rafe-hb",
"resh-hb",
"reshdagesh-hb",
"reviamugrash-hb",
"samekh-hb",
"samekhdagesh-hb",
"segol-hb",
"segolta-hb",
"shalshelet-hb",
sheqel,
"sheva-hb",
"shin-hb",
"shindagesh-hb",
"shindageshshindot-hb",
"shindageshsindot-hb",
"shindot-hb",
"shinshindot-hb",
"shinsindot-hb",
"siluqleft-hb",
"sindot-hb",
"sofpasuq-hb",
space,
"tav-hb",
"tavdagesh-hb",
"telishagedola-hb",
"telishaqetana-hb",
"tet-hb",

glyphs = (
{
glyphname = .notdef;
layers = (
{
layerId = master01;
paths = (
{
closed = 1;
nodes = (
"505 0 LINE",
"505 714 LINE",
"94 714 LINE",
"94 0 LINE"
);
},
{
closed = 1;
nodes = (
"145 663 LINE",
"454 663 LINE",
"454 51 LINE",
"145 51 LINE"
);
}
);
width = 600;
},
{
associatedMasterId = master01;
layerId = "B84D3400-693B-462E-A108-399A86BAD6ED";
name = Bold;
paths = (
{
closed = 1;
nodes = (
"496 0 LINE",
"496 714 LINE",
"85 714 LINE",
"85 0 LINE"
);
},
{
closed = 1;
nodes = (
"136 663 LINE",
"445 663 LINE",
"445 51 LINE",
"136 51 LINE"
);
}
);
width = 582;
},
{
associatedMasterId = master01;
layerId = "E33FB42E-53CF-4BE7-802B-4EB814CACB27";
name = "Bold Condensed";
paths = (
{
closed = 1;
nodes = (
"496 0 LINE",
"496 714 LINE",
"85 714 LINE",
"85 0 LINE"
);
},
{
closed = 1;
nodes = (
"136 663 LINE",
"445 663 LINE",
"445 51 LINE",
"136 51 LINE"
);
}
);
width = 582;
},
{
associatedMasterId = master01;
layerId = "028C3052-6D23-4CF5-A689-6E95D3771E55";
name = Regular;
paths = (
{
closed = 1;
nodes = (
"505 0 LINE",
"505 714 LINE",
"94 714 LINE",
"94 0 LINE"
);
},
{
closed = 1;
nodes = (
"145 663 LINE",
"454 663 LINE",
"454 51 LINE",
"145 51 LINE"
);
}
);
width = 600;
},
{
associatedMasterId = master01;
layerId = "D3D8BDE0-93BE-4521-948E-2295DA3A2F10";
name = SemiBold;
paths = (
{
closed = 1;
nodes = (
"505 0 LINE",
"505 714 LINE",
"94 714 LINE",
"94 0 LINE"
);
},
{
closed = 1;
nodes = (
"145 663 LINE",
"454 663 LINE",
"454 51 LINE",
"145 51 LINE"
);
}
);
width = 600;
},
{
associatedMasterId = master01;
layerId = "31FF2551-9526-4BE8-886C-032881FAA632";
name = Condensed;
paths = (
{
closed = 1;
nodes = (
"496 0 LINE",
"496 714 LINE",
"85 714 LINE",
"85 0 LINE"
);
},
{
closed = 1;
nodes = (
"136 663 LINE",
"445 663 LINE",
"445 51 LINE",
"136 51 LINE"
);
}
);
width = 595;
},
{
associatedMasterId = master01;
layerId = "6432EFA6-31A0-4C69-A477-F394A20785B1";
name = "SemiBold Condensed";
paths = (
{
closed = 1;
nodes = (
"496 0 LINE",
"496 714 LINE",
"85 714 LINE",
"85 0 LINE"
);
},
{
closed = 1;
nodes = (
"136 663 LINE",
"445 663 LINE",
"445 51 LINE",
"136 51 LINE"
);
}
);
width = 587;
},
{
associatedMasterId = master01;
layerId = "8BDC7623-036D-4BCF-AA43-02E5FDDBDEF9";
name = "Light Condensed";
paths = (
{
closed = 1;
nodes = (
"496 0 LINE",
"496 714 LINE",
"85 714 LINE",
"85 0 LINE"
);
},
{
closed = 1;
nodes = (
"136 663 LINE",
"445 663 LINE",
"445 51 LINE",
"136 51 LINE"
);
}
);
width = 600;
},
{
associatedMasterId = master01;
layerId = "AB0680FB-BA8F-4315-9D9B-4E2B793E7F5D";
name = "Bold #1";
paths = (
{
closed = 1;
nodes = (
"496 0 LINE",
"496 714 LINE",
"85 714 LINE",
"85 0 LINE"
);
},
{
closed = 1;
nodes = (
"136 663 LINE",
"445 663 LINE",
"445 51 LINE",
"136 51 LINE"
);
}
);
width = 582;
},
{
associatedMasterId = master01;
layerId = "8F1F2420-9CA1-4CA1-BCA1-8F3794BAC43C";
name = "Bold Condensed #1";
paths = (
{
closed = 1;
nodes = (
"496 0 LINE",
"496 714 LINE",
"85 714 LINE",
"85 0 LINE"
);
},
{
closed = 1;
nodes = (
"136 663 LINE",
"445 663 LINE",
"445 51 LINE",
"136 51 LINE"
);
}
);
width = 582;
},
{
associatedMasterId = master01;
layerId = "4383D809-CDB5-4235-8451-6AF55CE9C51B";
name = "Regular #1";
paths = (
{
closed = 1;
nodes = (
"505 0 LINE",
"505 714 LINE",
"94 714 LINE",
"94 0 LINE"
);
},
{
closed = 1;
nodes = (
"145 663 LINE",
"454 663 LINE",
"454 51 LINE",
"145 51 LINE"
);
}
);
width = 600;
},
{
associatedMasterId = master01;
layerId = "E0EB1BEA-BC08-4C29-A933-B3F978D18F7D";
name = "SemiBold #1";
paths = (
{
closed = 1;
nodes = (
"505 0 LINE",
"505 714 LINE",
"94 714 LINE",
"94 0 LINE"
);
},
{
closed = 1;
nodes = (
"145 663 LINE",
"454 663 LINE",
"454 51 LINE",
"145 51 LINE"
);
}
);
width = 600;
},
{
associatedMasterId = master01;
layerId = "071EF1F4-A886-4AC4-AC2B-74881480DF40";
name = "Condensed #1";
paths = (
{
closed = 1;
nodes = (
"496 0 LINE",
"496 714 LINE",
"85 714 LINE",
"85 0 LINE"
);
},
{
closed = 1;
nodes = (
"136 663 LINE",
"445 663 LINE",
"445 51 LINE",
"136 51 LINE"
);
}
);
width = 595;
},
{
associatedMasterId = master01;
layerId = "E07C8AED-714E-42E0-A602-2A313E7F13DF";
name = "SemiBold Condensed #1";
paths = (
{
closed = 1;
nodes = (
"496 0 LINE",
"496 714 LINE",
"85 714 LINE",
"85 0 LINE"
);
},
{
closed = 1;
nodes = (
"136 663 LINE",
"445 663 LINE",
"445 51 LINE",
"136 51 LINE"
);
}
);
width = 587;
},
{
associatedMasterId = master01;
layerId = "DE33529C-ED9D-4B3D-92C9-2DD2D889E1C8";
name = "Light Condensed #1";
paths = (
{
closed = 1;
nodes = (
"496 0 LINE",
"496 714 LINE",
"85 714 LINE",
"85 0 LINE"
);
},
{
closed = 1;
nodes = (
"136 663 LINE",
"445 663 LINE",
"445 51 LINE",
"136 51 LINE"
);
}
);
width = 600;
},
{
layerId = master02;
paths = (
{
closed = 1;
nodes = (
"505 0 LINE",
"505 714 LINE",
"94 714 LINE",
"94 0 LINE"
);
},
{
closed = 1;
nodes = (
"145 663 LINE",
"454 663 LINE",
"454 51 LINE",
"145 51 LINE"
);
}
);
width = 600;
},
{
associatedMasterId = master02;
layerId = "B8C6A015-EBC5-412C-8796-1DE703DCC029";
name = Bold;
paths = (
{
closed = 1;
nodes = (
"496 0 LINE",
"496 714 LINE",
"85 714 LINE",
"85 0 LINE"
);
},
{
closed = 1;
nodes = (
"136 663 LINE",
"445 663 LINE",
"445 51 LINE",
"136 51 LINE"
);
}
);
width = 582;
},
{
associatedMasterId = master02;
layerId = "ADE5472E-E91B-42DA-B27E-B12089EE0C4A";
name = "Bold Condensed";
paths = (
{
closed = 1;
nodes = (
"496 0 LINE",
"496 714 LINE",
"85 714 LINE",
"85 0 LINE"
);
},
{
closed = 1;
nodes = (
"136 663 LINE",
"445 663 LINE",
"445 51 LINE",
"136 51 LINE"
);
}
);
width = 582;
},
{
associatedMasterId = master02;
layerId = "6556777E-FB10-4584-B13B-37C05BC782E1";
name = Regular;
paths = (
{
closed = 1;
nodes = (
"505 0 LINE",
"505 714 LINE",
"94 714 LINE",
"94 0 LINE"
);
},
{
closed = 1;
nodes = (
"145 663 LINE",
"454 663 LINE",
"454 51 LINE",
"145 51 LINE"
);
}
);
width = 600;
},
{
associatedMasterId = master02;
layerId = "F33E900B-FEC3-4FBA-9F35-F4341844A01A";
name = SemiBold;
paths = (
{
closed = 1;
nodes = (
"505 0 LINE",
"505 714 LINE",
"94 714 LINE",
"94 0 LINE"
);
},
{
closed = 1;
nodes = (
"145 663 LINE",
"454 663 LINE",
"454 51 LINE",
"145 51 LINE"
);
}
);
width = 600;
},
{
associatedMasterId = master02;
layerId = "206B40E2-A099-4AFB-92CC-BB4EA2408A6A";
name = Condensed;
paths = (
{
closed = 1;
nodes = (
"496 0 LINE",
"496 714 LINE",
"85 714 LINE",
"85 0 LINE"
);
},
{
closed = 1;
nodes = (
"136 663 LINE",
"445 663 LINE",
"445 51 LINE",
"136 51 LINE"
);
}
);
width = 595;
},
{
associatedMasterId = master02;
layerId = "880DE427-7A48-4946-B919-364E82406D35";
name = "SemiBold Condensed";
paths = (
{
closed = 1;
nodes = (
"496 0 LINE",
"496 714 LINE",
"85 714 LINE",
"85 0 LINE"
);
},
{
closed = 1;
nodes = (
"136 663 LINE",
"445 663 LINE",
"445 51 LINE",
"136 51 LINE"
);
}
);
width = 587;
},
{
associatedMasterId = master02;
layerId = "D5BB5943-0929-45C4-B93F-1D22B1709A80";
name = "Light Condensed";
paths = (
{
closed = 1;
nodes = (
"496 0 LINE",
"496 714 LINE",
"85 714 LINE",
"85 0 LINE"
);
},
{
closed = 1;
nodes = (
"136 663 LINE",
"445 663 LINE",
"445 51 LINE",
"136 51 LINE"
);
}
);
width = 600;
},
{
layerId = master03;
paths = (
{
closed = 1;
nodes = (
"505 0 LINE",
"505 714 LINE",
"94 714 LINE",
"94 0 LINE"
);
},
{
closed = 1;
nodes = (
"145 663 LINE",
"454 663 LINE",
"454 51 LINE",
"145 51 LINE"
);
}
);
width = 600;
},
{
associatedMasterId = master03;
layerId = "C7180B96-3798-4C62-AD1B-4BF7B9C507CC";
name = Bold;
paths = (
{
closed = 1;
nodes = (
"496 0 LINE",
"496 714 LINE",
"85 714 LINE",
"85 0 LINE"
);
},
{
closed = 1;
nodes = (
"136 663 LINE",
"445 663 LINE",
"445 51 LINE",
"136 51 LINE"
);
}
);
width = 582;
},
{
associatedMasterId = master03;
layerId = "D0EC556B-8604-4C8A-855B-2CDFA5F96089";
name = "Bold Condensed";
paths = (
{
closed = 1;
nodes = (
"496 0 LINE",
"496 714 LINE",
"85 714 LINE",
"85 0 LINE"
);
},
{
closed = 1;
nodes = (
"136 663 LINE",
"445 663 LINE",
"445 51 LINE",
"136 51 LINE"
);
}
);
width = 582;
},
{
associatedMasterId = master03;
layerId = "D078983B-B53A-43F3-94B1-B4978B4DF8C2";
name = Regular;
paths = (
{
closed = 1;
nodes = (
"505 0 LINE",
"505 714 LINE",
"94 714 LINE",
"94 0 LINE"
);
},
{
closed = 1;
nodes = (
"145 663 LINE",
"454 663 LINE",
"454 51 LINE",
"145 51 LINE"
);
}
);
width = 600;
},
{
associatedMasterId = master03;
layerId = "EE0834A7-904A-4975-92B6-9B4FA22CDD1A";
name = SemiBold;
paths = (
{
closed = 1;
nodes = (
"505 0 LINE",
"505 714 LINE",
"94 714 LINE",
"94 0 LINE"
);
},
{
closed = 1;
nodes = (
"145 663 LINE",
"454 663 LINE",
"454 51 LINE",
"145 51 LINE"
);
}
);
width = 600;
},
{
associatedMasterId = master03;
layerId = "72151BCD-99D7-4046-828D-9EA8F0674B09";
name = Condensed;
paths = (
{
closed = 1;
nodes = (
"496 0 LINE",
"496 714 LINE",
"85 714 LINE",
"85 0 LINE"
);
},
{
closed = 1;
nodes = (
"136 663 LINE",
"445 663 LINE",
"445 51 LINE",
"136 51 LINE"
);
}
);
width = 595;
},
{
associatedMasterId = master03;
layerId = "012BAF59-F1CD-4723-A15A-57372E67FF3B";
name = "SemiBold Condensed";
paths = (
{
closed = 1;
nodes = (
"496 0 LINE",
"496 714 LINE",
"85 714 LINE",
"85 0 LINE"
);
},
{
closed = 1;
nodes = (
"136 663 LINE",
"445 663 LINE",
"445 51 LINE",
"136 51 LINE"
);
}
);
width = 587;
},
{
associatedMasterId = master03;
layerId = "5EAACF8D-BC9E-49C3-AA19-0AB07F9C758C";
name = "Light Condensed";
paths = (
{
closed = 1;
nodes = (
"496 0 LINE",
"496 714 LINE",
"85 714 LINE",
"85 0 LINE"
);
},
{
closed = 1;
nodes = (
"136 663 LINE",
"445 663 LINE",
"445 51 LINE",
"136 51 LINE"
);
}
);
width = 600;
},
{
layerId = master04;
paths = (
{
closed = 1;
nodes = (
"505 0 LINE",
"505 714 LINE",
"94 714 LINE",
"94 0 LINE"
);
},
{
closed = 1;
nodes = (
"145 663 LINE",
"454 663 LINE",
"454 51 LINE",
"145 51 LINE"
);
}
);
width = 600;
},
{
associatedMasterId = master04;
layerId = "BD3438D2-35F0-4FE3-9630-5A786C939BE7";
name = Bold;
paths = (
{
closed = 1;
nodes = (
"496 0 LINE",
"496 714 LINE",
"85 714 LINE",
"85 0 LINE"
);
},
{
closed = 1;
nodes = (
"136 663 LINE",
"445 663 LINE",
"445 51 LINE",
"136 51 LINE"
);
}
);
width = 582;
},
{
associatedMasterId = master04;
layerId = "1F785DA9-4902-4617-991B-14560DCE2608";
name = "Bold Condensed";
paths = (
{
closed = 1;
nodes = (
"496 0 LINE",
"496 714 LINE",
"85 714 LINE",
"85 0 LINE"
);
},
{
closed = 1;
nodes = (
"136 663 LINE",
"445 663 LINE",
"445 51 LINE",
"136 51 LINE"
);
}
);
width = 582;
},
{
associatedMasterId = master04;
layerId = "395F7BAF-58EE-432D-B092-EA8E092C03AD";
name = Regular;
paths = (
{
closed = 1;
nodes = (
"505 0 LINE",
"505 714 LINE",
"94 714 LINE",
"94 0 LINE"
);
},
{
closed = 1;
nodes = (
"145 663 LINE",
"454 663 LINE",
"454 51 LINE",
"145 51 LINE"
);
}
);
width = 600;
},
{
associatedMasterId = master04;
layerId = "713E81CA-C0AD-49EA-A8B1-A2A829A8C1C4";
name = SemiBold;
paths = (
{
closed = 1;
nodes = (
"505 0 LINE",
"505 714 LINE",
"94 714 LINE",
"94 0 LINE"
);
},
{
closed = 1;
nodes = (
"145 663 LINE",
"454 663 LINE",
"454 51 LINE",
"145 51 LINE"
);
}
);
width = 600;
},
{
associatedMasterId = master04;
layerId = "7F477C60-8971-4A20-98F1-654F725F2970";
name = Condensed;
paths = (
{
closed = 1;
nodes = (
"496 0 LINE",
"496 714 LINE",
"85 714 LINE",
"85 0 LINE"
);
},
{
closed = 1;
nodes = (
"136 663 LINE",
"445 663 LINE",
"445 51 LINE",
"136 51 LINE"
);
}
);
width = 595;
},
{
associatedMasterId = master04;
layerId = "BC6843F6-1CE2-41FD-852A-2FF5EC054419";
name = "SemiBold Condensed";
paths = (
{
closed = 1;
nodes = (
"496 0 LINE",
"496 714 LINE",
"85 714 LINE",
"85 0 LINE"
);
},
{
closed = 1;
nodes = (
"136 663 LINE",
"445 663 LINE",
"445 51 LINE",
"136 51 LINE"
);
}
);
width = 587;
},
{
associatedMasterId = master04;
layerId = "B65528C9-1829-483D-B9A2-994761B5BAF5";
name = "Light Condensed";
paths = (
{
closed = 1;
nodes = (
"496 0 LINE",
"496 714 LINE",
"85 714 LINE",
"85 0 LINE"
);
},
{
closed = 1;
nodes = (
"136 663 LINE",
"445 663 LINE",
"445 51 LINE",
"136 51 LINE"
);
}
);
width = 600;
}
);
},
{
glyphname = "alef-hb";
layers = (
{
anchors = (
{
name = bottom;
position = "{281, 0}";
},
{
name = bottomleft;
position = "{110, 0}";
},
{
name = center;
position = "{265, 127}";
},
{
name = top;
position = "{299, 528}";
},
{
name = topleft;
position = "{83, 528}";
}
);
layerId = master01;
paths = (
{
closed = 1;
nodes = (
"543 0 LINE",
"456 148 OFFCURVE",
"340 307 OFFCURVE",
"260 405 CURVE SMOOTH",
"179 504 OFFCURVE",
"146 542 OFFCURVE",
"110 584 CURVE",
"74 584 LINE",
"109 543 OFFCURVE",
"145 502 OFFCURVE",
"226 401 CURVE SMOOTH",
"305 304 OFFCURVE",
"421 149 OFFCURVE",
"508 0 CURVE"
);
},
{
closed = 1;
nodes = (
"77 0 LINE",
"101 174 LINE SMOOTH",
"116 283 OFFCURVE",
"149 356 OFFCURVE",
"233 404 CURVE",
"217 426 LINE",
"125 373 OFFCURVE",
"86 294 OFFCURVE",
"69 171 CURVE SMOOTH",
"45 0 LINE"
);
},
{
closed = 1;
nodes = (
"464 301 OFFCURVE",
"517 377 OFFCURVE",
"527 501 CURVE SMOOTH",
"534 584 LINE",
"502 584 LINE",
"495 498 LINE SMOOTH",
"486 388 OFFCURVE",
"440 318 OFFCURVE",
"356 270 CURVE",
"372 248 LINE"
);
}
);
width = 588;
},
{
anchors = (
{
name = bottom;
position = "{351, 0}";
},
{
name = bottomleft;
position = "{205, 0}";
},
{
name = center;
position = "{311, 91}";
},
{
name = top;
position = "{355, 553}";
},
{
name = topleft;
position = "{34, 553}";
}
);
layerId = master02;
paths = (
{
closed = 1;
nodes = (
"685 0 LINE",
"589 152 OFFCURVE",
"487 283 OFFCURVE",
"392 434 CURVE SMOOTH",
"370 469 OFFCURVE",
"307 561 OFFCURVE",
"268 609 CURVE",
"32 609 LINE",
"66 570 OFFCURVE",
"164 438 OFFCURVE",
"210 381 CURVE SMOOTH",
"311 256 OFFCURVE",
"374 152 OFFCURVE",
"462 0 CURVE"
);
},
{
closed = 1;
nodes = (
"211 0 LINE",
"234 145 LINE SMOOTH",
"243 203 OFFCURVE",
"248 264 OFFCURVE",
"300 279 CURVE",
"245 402 LINE",
"97 367 OFFCURVE",
"60 261 OFFCURVE",
"44 158 CURVE SMOOTH",
"20 0 LINE"
);
},
{
closed = 1;
nodes = (
"608 278 OFFCURVE",
"659 384 OFFCURVE",
"670 487 CURVE SMOOTH",
"683 609 LINE",
"492 609 LINE",
"478 500 LINE SMOOTH",
"471 445 OFFCURVE",
"467 381 OFFCURVE",
"404 366 CURVE",
"458 243 LINE"
);
}
);
width = 705;
},
{
anchors = (
{
name = bottom;
position = "{200, 0}";
},
{
name = bottomleft;
position = "{147, 0}";
},
{
name = center;
position = "{176, 127}";
},
{
name = top;
position = "{221, 528}";
},
{
name = topleft;
position = "{92, 528}";
}
);
layerId = master03;
paths = (
{
closed = 1;
nodes = (
"377 0 LINE",
"313 148 OFFCURVE",
"240 316 OFFCURVE",
"185 415 CURVE SMOOTH",
"130 514 OFFCURVE",
"114 542 OFFCURVE",
"87 584 CURVE",
"53 584 LINE",
"79 543 OFFCURVE",
"102 512 OFFCURVE",
"155 411 CURVE SMOOTH",
"207 312 OFFCURVE",
"281 149 OFFCURVE",
"345 0 CURVE"
);
},
{
closed = 1;
nodes = (
"66 0 LINE",
"83 184 LINE SMOOTH",
"94 304 OFFCURVE",
"111 350 OFFCURVE",
"170 393 CURVE",
"151 416 LINE",
"86 368 OFFCURVE",
"63 311 OFFCURVE",
"51 181 CURVE SMOOTH",
"34 0 LINE"
);
},
{
closed = 1;
nodes = (
"313 275 OFFCURVE",
"348 375 OFFCURVE",
"356 450 CURVE SMOOTH",
"371 584 LINE",
"339 584 LINE",
"323 447 LINE SMOOTH",
"316 385 OFFCURVE",
"289 293 OFFCURVE",
"242 274 CURVE",
"260 251 LINE"
);
}
);
width = 411;
},
{
anchors = (
{
name = bottom;
position = "{259, 0}";
},
{
name = bottomleft;
position = "{118, 0}";
},
{
name = center;
position = "{248, 81}";
},
{
name = top;
position = "{254, 536}";
},
{
name = topleft;
position = "{16, 536}";
}
);
layerId = master04;
paths = (
{
closed = 1;
nodes = (
"520 0 LINE",
"454 152 OFFCURVE",
"382 303 OFFCURVE",
"320 435 CURVE SMOOTH",
"304 470 OFFCURVE",
"260 561 OFFCURVE",
"240 609 CURVE",
"31 609 LINE",
"58 570 OFFCURVE",
"130 440 OFFCURVE",
"159 381 CURVE SMOOTH",
"220 257 OFFCURVE",
"263 152 OFFCURVE",
"321 0 CURVE"
);
},
{
closed = 1;
nodes = (
"204 0 LINE",
"219 226 LINE SMOOTH",
"223 292 OFFCURVE",
"247 341 OFFCURVE",
"272 339 CURVE",
"242 431 LINE",
"133 408 OFFCURVE",
"55 350 OFFCURVE",
"45 239 CURVE SMOOTH",
"23 0 LINE"
);
},
{
closed = 1;
nodes = (
"435 260 OFFCURVE",
"509 317 OFFCURVE",
"517 437 CURVE SMOOTH",
"529 609 LINE",
"348 609 LINE",
"342 450 LINE SMOOTH",
"339 378 OFFCURVE",
"315 344 OFFCURVE",
"290 336 CURVE",
"326 247 LINE"
);
}
);
width = 552;
}
);
unicode = 05D0;
},
{
glyphname = "aleflamed-hb";
layers = (
{
anchors = (
{
name = caret_1;
position = "{284.5, 0}";
}
);
layerId = master01;
paths = (
{
closed = 1;
nodes = (
"528 0 LINE",
"478 85 OFFCURVE",
"419 173 OFFCURVE",
"362 251 CURVE",
"451 304 OFFCURVE",
"502 379 OFFCURVE",
"512 501 CURVE SMOOTH",
"519 584 LINE",
"487 584 LINE",
"480 498 LINE SMOOTH",
"471 390 OFFCURVE",
"427 321 OFFCURVE",
"346 273 CURVE",
"310 323 OFFCURVE",
"275 368 OFFCURVE",
"245 405 CURVE SMOOTH",
"164 504 OFFCURVE",
"131 542 OFFCURVE",
"95 584 CURVE",
"47 584 LINE",
"47 760 LINE",
"15 755 LINE",
"15 557 LINE",
"82 557 LINE",
"112 523 OFFCURVE",
"147 480 OFFCURVE",
"211 401 CURVE SMOOTH",
"289 303 OFFCURVE",
"406 149 OFFCURVE",
"493 0 CURVE"
);
}
);
width = 569;
},
{
anchors = (
{
name = caret_1;
position = "{383.5, 0}";
}
);
layerId = master02;
paths = (
{
closed = 1;
nodes = (
"715 0 LINE",
"658 91 OFFCURVE",
"598 174 OFFCURVE",
"539 259 CURVE",
"650 304 OFFCURVE",
"690 397 OFFCURVE",
"700 487 CURVE SMOOTH",
"713 609 LINE",
"522 609 LINE",
"508 500 LINE SMOOTH",
"502 454 OFFCURVE",
"498 401 OFFCURVE",
"459 376 CURVE",
"447 395 OFFCURVE",
"434 414 OFFCURVE",
"422 434 CURVE SMOOTH",
"400 469 OFFCURVE",
"337 561 OFFCURVE",
"298 609 CURVE",
"217 609 LINE",
"217 760 LINE",
"25 740 LINE",
"25 451 LINE",
"185 451 LINE",
"203 428 OFFCURVE",
"222 404 OFFCURVE",
"240 381 CURVE SMOOTH",
"341 256 OFFCURVE",
"404 152 OFFCURVE",
"492 0 CURVE"
);
}
);
width = 767;
},
{
anchors = (
{
name = caret_1;
position = "{213, 0}";
}
);
layerId = master03;
paths = (
{
closed = 1;
nodes = (
"359 0 LINE",
"333 72 OFFCURVE",
"302 149 OFFCURVE",
"271 220 CURVE",
"342 281 OFFCURVE",
"346 355 OFFCURVE",
"355 471 CURVE SMOOTH",
"364 584 LINE",
"332 584 LINE",
"323 468 LINE SMOOTH",
"315 369 OFFCURVE",
"317 302 OFFCURVE",
"259 248 CURVE",
"231 312 OFFCURVE",
"202 370 OFFCURVE",
"177 415 CURVE SMOOTH",
"121 514 OFFCURVE",
"106 542 OFFCURVE",
"79 584 CURVE",
"47 584 LINE",
"47 760 LINE",
"15 755 LINE",
"15 557 LINE",
"62 557 LINE",
"82 526 OFFCURVE",
"104 489 OFFCURVE",
"146 411 CURVE SMOOTH",
"199 312 OFFCURVE",
"273 149 OFFCURVE",
"327 0 CURVE"
);
}
);
width = 426;
},
{
anchors = (
{
name = caret_1;
position = "{281.5, 0}";
}
);
layerId = master04;
paths = (
{
closed = 1;
nodes = (
"537 0 LINE",
"497 95 OFFCURVE",
"454 182 OFFCURVE",
"411 270 CURVE",
"502 318 OFFCURVE",
"532 404 OFFCURVE",
"534 487 CURVE SMOOTH",
"538 609 LINE",
"367 609 LINE",
"360 500 LINE SMOOTH",
"358 469 OFFCURVE",
"357 436 OFFCURVE",
"347 409 CURVE",
"343 418 OFFCURVE",
"340 426 OFFCURVE",
"336 434 CURVE SMOOTH",
"321 469 OFFCURVE",
"277 561 OFFCURVE",
"248 609 CURVE",
"207 609 LINE",
"207 760 LINE",
"15 740 LINE",
"15 451 LINE",
"134 451 LINE",
"149 424 OFFCURVE",
"162 399 OFFCURVE",
"172 381 CURVE SMOOTH",
"237 256 OFFCURVE",
"278 152 OFFCURVE",
"334 0 CURVE"
);
}
);
width = 563;
}
);
note = "\012aleflamed\012";
unicode = FB4F;
},
{
glyphname = "alternativeplus-hb";
layers = (
{
layerId = master01;
paths = (
{
closed = 1;
nodes = (
"297 583 LINE",
"273 583 LINE",
"273 365 LINE",
"55 365 LINE",
"55 341 LINE",
"515 341 LINE",
"515 365 LINE",
"297 365 LINE"
);
}
);
width = 570;
},
{
layerId = master02;
paths = (
{
closed = 1;
nodes = (
"348 640 LINE",
"217 640 LINE",
"217 461 LINE",
"35 461 LINE",
"35 330 LINE",
"530 330 LINE",
"530 461 LINE",
"348 461 LINE"
);
}
);
width = 566;
},
{
layerId = master03;
paths = (
{
closed = 1;
nodes = (
"257 583 LINE",
"233 583 LINE",
"233 365 LINE",
"55 365 LINE",
"55 341 LINE",
"435 341 LINE",
"435 365 LINE",
"257 365 LINE"
);
}
);
width = 490;
},
{
layerId = master04;
paths = (
{
closed = 1;
nodes = (
"309 640 LINE",
"178 640 LINE",
"178 461 LINE",
"36 461 LINE",
"36 330 LINE",
"451 330 LINE",
"451 461 LINE",
"309 461 LINE"
);
}
);
width = 487;
}
);
note = "\012alt_plussign\012";
unicode = FB29;
},
{
glyphname = "atnahhafukh-hb";
layers = (
{
anchors = (
{
name = _bottomleft;
position = "{115, 0}";
}
);
layerId = master01;
paths = (
{
closed = 1;
nodes = (
"127 -202 LINE",
"127 -160 LINE",
"157 -155 OFFCURVE",
"171 -137 OFFCURVE",
"171 -99 CURVE SMOOTH",
"171 -82 LINE",
"146 -82 LINE",
"146 -99 LINE SMOOTH",
"146 -126 OFFCURVE",
"137 -137 OFFCURVE",
"115 -137 CURVE SMOOTH",
"92 -137 OFFCURVE",
"83 -126 OFFCURVE",
"83 -99 CURVE SMOOTH",
"83 -82 LINE",
"58 -82 LINE",
"58 -99 LINE SMOOTH",
"58 -137 OFFCURVE",
"72 -155 OFFCURVE",
"101 -160 CURVE",
"101 -202 LINE"
);
}
);
userData = {
com.schriftgestaltung.Glyphs.originalWidth = 229;
};
width = 0;
},
{
anchors = (
{
name = _bottomleft;
position = "{147, 0}";
}
);
layerId = master02;
paths = (
{
closed = 1;
nodes = (
"172 -238 LINE",
"172 -192 LINE",
"219 -184 OFFCURVE",
"243 -156 OFFCURVE",
"243 -95 CURVE SMOOTH",
"243 -70 LINE",
"191 -70 LINE",
"191 -95 LINE SMOOTH",
"191 -130 OFFCURVE",
"179 -146 OFFCURVE",
"147 -146 CURVE SMOOTH",
"113 -146 OFFCURVE",
"101 -130 OFFCURVE",
"101 -95 CURVE SMOOTH",
"101 -70 LINE",
"50 -70 LINE",
"50 -95 LINE SMOOTH",
"50 -156 OFFCURVE",
"76 -185 OFFCURVE",
"120 -192 CURVE",
"120 -238 LINE"
);
}
);
userData = {
com.schriftgestaltung.Glyphs.originalWidth = 293;
};
width = 0;
},
{
anchors = (
{
name = _bottomleft;
position = "{107, 0}";
}
);
layerId = master03;
paths = (
{
closed = 1;
nodes = (
"119 -202 LINE",
"119 -160 LINE",
"149 -155 OFFCURVE",
"163 -137 OFFCURVE",
"163 -99 CURVE SMOOTH",
"163 -82 LINE",
"138 -82 LINE",
"138 -99 LINE SMOOTH",
"138 -126 OFFCURVE",
"129 -137 OFFCURVE",
"107 -137 CURVE SMOOTH",
"84 -137 OFFCURVE",
"75 -126 OFFCURVE",
"75 -99 CURVE SMOOTH",
"75 -82 LINE",
"50 -82 LINE",
"50 -99 LINE SMOOTH",
"50 -137 OFFCURVE",
"64 -155 OFFCURVE",
"93 -160 CURVE",
"93 -202 LINE"
);
}
);
userData = {
com.schriftgestaltung.Glyphs.originalWidth = 213;
};
width = 0;
},
{
anchors = (
{
name = _bottomleft;
position = "{147, 0}";
}
);
layerId = master04;
paths = (
{
closed = 1;
nodes = (
"169 -217 LINE",
"169 -177 LINE",
"210 -170 OFFCURVE",
"231 -145 OFFCURVE",
"231 -92 CURVE SMOOTH",
"231 -70 LINE",
"186 -70 LINE",
"186 -92 LINE SMOOTH",
"186 -123 OFFCURVE",
"175 -137 OFFCURVE",
"147 -137 CURVE SMOOTH",
"117 -137 OFFCURVE",
"107 -123 OFFCURVE",
"107 -92 CURVE SMOOTH",
"107 -70 LINE",
"62 -70 LINE",
"62 -92 LINE SMOOTH",
"62 -145 OFFCURVE",
"85 -171 OFFCURVE",
"123 -177 CURVE",
"123 -217 LINE"
);
}
);
userData = {
com.schriftgestaltung.Glyphs.originalWidth = 293;
};
width = 0;
}
);
note = "\012uni05A2\012";
unicode = 05A2;
},
{
glyphname = "ayin-hb";
layers = (
{
anchors = (
{
name = bottom;
position = "{271, 0}";
},
{
name = bottomleft;
position = "{7, 0}";
},
{
name = center;
position = "{308, 316}";
},
{
name = top;
position = "{281, 528}";
},
{
name = topleft;
position = "{42, 528}";
}
);
layerId = master01;
paths = (
{
closed = 1;
nodes = (
"213 10 LINE SMOOTH",
"373 51 OFFCURVE",
"475 109 OFFCURVE",
"489 456 CURVE SMOOTH",
"494 584 LINE",
"462 584 LINE",
"456 452 LINE SMOOTH",
"441 127 OFFCURVE",
"352 74 OFFCURVE",
"211 37 CURVE SMOOTH",
"45 -6 LINE",
"46 -33 LINE"
);
},
{
closed = 1;
nodes = (
"232 27 LINE",
"236 58 OFFCURVE",
"235 83 OFFCURVE",
"230 102 CURVE",
"100 587 LINE",
"70 581 LINE",
"218 27 LINE"
);
}
);
width = 556;
},
{
anchors = (
{
name = bottom;
position = "{302, 0}";
},
{
name = bottomleft;
position = "{-5, 0}";
},
{
name = center;
position = "{357, 416}";
},
{
name = top;
position = "{342, 553}";
},
{
name = topleft;
position = "{30, 553}";
}
);
layerId = master02;
paths = (
{
closed = 1;
nodes = (
"288 10 LINE SMOOTH",
"568 63 OFFCURVE",
"601 251 OFFCURVE",
"613 407 CURVE SMOOTH",
"629 609 LINE",
"437 609 LINE",
"422 414 LINE SMOOTH",
"408 231 OFFCURVE",
"369 182 OFFCURVE",
"288 167 CURVE SMOOTH",
"25 118 LINE",
"25 -40 LINE"
);
},
{
closed = 1;
nodes = (
"229 67 LINE",
"289 122 OFFCURVE",
"317 214 OFFCURVE",
"301 291 CURVE",
"245 619 LINE",
"57 597 LINE",
"158 67 LINE"
);
}
);
width = 654;
},
{
anchors = (
{
name = bottom;
position = "{158, 0}";
},
{
name = bottomleft;
position = "{1, 0}";
},
{
name = center;
position = "{216, 325}";
},
{
name = top;
position = "{208, 528}";
},
{
name = topleft;
position = "{54, 528}";
}
);
layerId = master03;
paths = (
{
closed = 1;
nodes = (
"167 0 LINE SMOOTH",
"309 34 OFFCURVE",
"339 109 OFFCURVE",
"353 456 CURVE SMOOTH",
"358 584 LINE",
"326 584 LINE",
"320 452 LINE SMOOTH",
"305 127 OFFCURVE",
"289 57 OFFCURVE",
"165 27 CURVE SMOOTH",
"29 -6 LINE",
"30 -33 LINE"
);
},
{
closed = 1;
nodes = (
"171 24 LINE",
"176 58 OFFCURVE",
"169 83 OFFCURVE",
"165 102 CURVE",
"82 587 LINE",
"52 581 LINE",
"150 24 LINE"
);
}
);
width = 397;
},
{
anchors = (
{
name = bottom;
position = "{271, 0}";
},
{
name = bottomleft;
position = "{32, 0}";
},
{
name = center;
position = "{284, 444}";
},
{
name = top;
position = "{302, 553}";
},
{
name = topleft;
position = "{71, 553}";
}
);
layerId = master04;
paths = (
{
closed = 1;
nodes = (
"266 18 LINE SMOOTH",
"414 52 OFFCURVE",
"490 144 OFFCURVE",
"506 344 CURVE SMOOTH",
"527 609 LINE",
"335 609 LINE",
"310 290 LINE SMOOTH",
"305 231 OFFCURVE",
"298 182 OFFCURVE",
"253 172 CURVE SMOOTH",
"13 118 LINE",
"13 -40 LINE"
);
},
{
closed = 1;
nodes = (
"185 67 LINE",
"254 130 OFFCURVE",
"274 226 OFFCURVE",
"261 291 CURVE",
"211 619 LINE",
"22 597 LINE",
"114 67 LINE"
);
}
);
width = 555;
}
);
unicode = 05E2;
},
{
glyphname = "ayinaltone-hb";
layers = (
{
anchors = (
{
name = bottom;
position = "{286, 0}";
},
{
name = bottomleft;
position = "{20, 0}";
},
{
name = top;
position = "{301, 528}";
},
{
name = topleft;
position = "{63, 528}";
}
);
layerId = master01;
paths = (
{
closed = 1;
nodes = (
"208 0 LINE SMOOTH",
"373 1 OFFCURVE",
"470 109 OFFCURVE",
"484 456 CURVE SMOOTH",
"489 584 LINE",
"457 584 LINE",
"451 452 LINE SMOOTH",
"436 127 OFFCURVE",
"351 28 OFFCURVE",
"206 27 CURVE SMOOTH",
"40 26 LINE",
"41 -1 LINE"
);
},
{
closed = 1;
nodes = (
"228 22 LINE",
"232 53 OFFCURVE",
"230 83 OFFCURVE",
"225 102 CURVE",
"95 587 LINE",
"65 581 LINE",
"214 22 LINE"
);
}
);
width = 542;
},
{
anchors = (
{
name = bottom;
position = "{299, 0}";
},
{
name = bottomleft;
position = "{10, 0}";
},
{
name = top;
position = "{337, 553}";
},
{
name = topleft;
position = "{37, 553}";
}
);
layerId = master02;
paths = (
{
closed = 1;
nodes = (
"288 0 LINE SMOOTH",
"573 0 OFFCURVE",
"601 251 OFFCURVE",
"613 407 CURVE SMOOTH",
"629 609 LINE",
"437 609 LINE",
"422 414 LINE SMOOTH",
"408 231 OFFCURVE",
"369 157 OFFCURVE",
"288 157 CURVE SMOOTH",
"25 158 LINE",
"25 0 LINE"
);
},
{
closed = 1;
nodes = (
"229 67 LINE",
"289 122 OFFCURVE",
"317 214 OFFCURVE",
"301 291 CURVE",
"245 619 LINE",
"57 597 LINE",
"158 67 LINE"
);
}
);
width = 649;
},
{
anchors = (
{
name = bottom;
position = "{231, 0}";
},
{
name = bottomleft;
position = "{22, 0}";
},
{
name = top;
position = "{219, 528}";
},
{
name = topleft;
position = "{65, 528}";
}
);
layerId = master03;
paths = (
{
closed = 1;
nodes = (
"158 0 LINE SMOOTH",
"323 0 OFFCURVE",
"370 109 OFFCURVE",
"384 456 CURVE SMOOTH",
"389 584 LINE",
"357 584 LINE",
"351 452 LINE SMOOTH",
"336 127 OFFCURVE",
"301 27 OFFCURVE",
"156 27 CURVE SMOOTH",
"30 27 LINE",
"31 0 LINE"
);
},
{
closed = 1;
nodes = (
"171 17 LINE",
"178 48 OFFCURVE",
"174 83 OFFCURVE",
"171 102 CURVE",
"75 587 LINE",
"44 581 LINE",
"157 17 LINE"
);
}
);
width = 413;
},
{
anchors = (
{
name = bottom;
position = "{287, 0}";
},
{
name = bottomleft;
position = "{-2, 0}";
},
{
name = top;
position = "{272, 553}";
},
{
name = topleft;
position = "{41, 553}";
}
);
layerId = master04;
paths = (
{
closed = 1;
nodes = (
"268 0 LINE SMOOTH",
"553 0 OFFCURVE",
"561 251 OFFCURVE",
"573 407 CURVE SMOOTH",
"589 609 LINE",
"397 609 LINE",
"382 414 LINE SMOOTH",
"368 231 OFFCURVE",
"349 157 OFFCURVE",
"268 157 CURVE SMOOTH",
"25 158 LINE",
"25 0 LINE"
);
},
{
closed = 1;
nodes = (
"229 67 LINE",
"289 122 OFFCURVE",
"317 214 OFFCURVE",
"301 291 CURVE",
"245 619 LINE",
"57 597 LINE",
"158 67 LINE"
);
}
);
width = 624;
}
);
note = "\012alternativeayin\012";
unicode = FB20;
},
{
glyphname = "bet-hb";
layers = (
{
anchors = (
{
name = bottom;
position = "{252, 0}";
},
{
name = bottomleft;
position = "{43, 0}";
},
{
name = center;
position = "{222, 296}";
},
{
name = top;
position = "{214, 528}";
},
{
name = topleft;
position = "{43, 528}";
}
);
layerId = master01;
paths = (
{
closed = 1;
nodes = (
"417 0 LINE",
"424 6 OFFCURVE",
"427 9 OFFCURVE",
"427 17 CURVE",
"427 419 LINE SMOOTH",
"427 527 OFFCURVE",
"370 584 OFFCURVE",
"264 584 CURVE SMOOTH",
"85 584 LINE",
"80 557 LINE",
"259 557 LINE SMOOTH",
"352 557 OFFCURVE",
"395 511 OFFCURVE",
"395 416 CURVE SMOOTH",
"395 0 LINE"
);
},
{
closed = 1;
nodes = (
"494 0 LINE",
"499 27 LINE",
"50 27 LINE",
"50 0 LINE"
);
}
);
width = 549;
},
{
anchors = (
{
name = bottom;
position = "{310, 0}";
},
{
name = bottomleft;
position = "{15, 0}";
},
{
name = center;
position = "{185, 306}";
},
{
name = top;
position = "{247, 553}";
},
{
name = topleft;
position = "{15, 553}";
}
);
layerId = master02;
paths = (
{
closed = 1;
nodes = (
"433 0 LINE",
"466 45 OFFCURVE",
"504 98 OFFCURVE",
"518 147 CURVE",
"518 382 LINE SMOOTH",
"518 533 OFFCURVE",
"433 609 OFFCURVE",
"266 609 CURVE SMOOTH",
"75 609 LINE",
"55 451 LINE",
"257 451 LINE SMOOTH",
"300 451 OFFCURVE",
"326 427 OFFCURVE",
"326 379 CURVE SMOOTH",
"326 0 LINE"
);
},
{
closed = 1;
nodes = (
"574 0 LINE",
"594 158 LINE",
"25 158 LINE",
"25 0 LINE"
);
}
);
width = 609;
},
{
anchors = (
{
name = bottom;
position = "{145, 0}";
},
{
name = bottomleft;
position = "{25, 0}";
},
{
name = center;
position = "{105, 296}";
},
{
name = top;
position = "{124, 528}";
},
{
name = topleft;
position = "{25, 528}";
}
);
layerId = master03;
paths = (
{
closed = 1;
nodes = (
"248 0 LINE",
"255 6 OFFCURVE",
"258 9 OFFCURVE",
"258 17 CURVE",
"258 419 LINE SMOOTH",
"258 527 OFFCURVE",
"221 584 OFFCURVE",
"115 584 CURVE SMOOTH",
"29 584 LINE",
"24 557 LINE",
"110 557 LINE SMOOTH",
"203 557 OFFCURVE",
"226 511 OFFCURVE",
"226 416 CURVE SMOOTH",
"226 0 LINE"
);
},
{
closed = 1;
nodes = (
"308 0 LINE",
"313 27 LINE",
"24 27 LINE",
"24 0 LINE"
);
}
);
width = 337;
},
{
anchors = (
{
name = bottom;
position = "{244, 0}";
},
{
name = bottomleft;
position = "{33, 0}";
},
{
name = center;
position = "{104, 306}";
},
{
name = top;
position = "{214, 553}";
},
{
name = topleft;
position = "{33, 553}";
}
);
layerId = master04;
paths = (
{
closed = 1;
nodes = (
"311 0 LINE",
"344 45 OFFCURVE",
"382 98 OFFCURVE",
"396 147 CURVE",
"396 382 LINE SMOOTH",
"396 533 OFFCURVE",
"331 609 OFFCURVE",
"164 609 CURVE SMOOTH",
"53 609 LINE",
"33 451 LINE",
"155 451 LINE SMOOTH",
"198 451 OFFCURVE",
"204 427 OFFCURVE",
"204 379 CURVE SMOOTH",
"204 0 LINE"
);
},
{
closed = 1;
nodes = (
"437 0 LINE",
"457 158 LINE",
"18 158 LINE",
"18 0 LINE"
);
}
);
width = 475;
}
);
unicode = 05D1;
},
{
glyphname = "dagesh-hb";
layers = (
{
anchors = (
{
name = _center;
position = "{71, 296}";
}
);
layerId = master01;
paths = (
{
closed = 1;
nodes = (
"84 273 OFFCURVE",
"94 283 OFFCURVE",
"94 296 CURVE SMOOTH",
"94 308 OFFCURVE",
"84 318 OFFCURVE",
"72 318 CURVE SMOOTH",
"59 318 OFFCURVE",
"49 308 OFFCURVE",
"49 296 CURVE SMOOTH",
"49 283 OFFCURVE",
"59 273 OFFCURVE",
"72 273 CURVE SMOOTH"
);
}
);
userData = {
com.schriftgestaltung.Glyphs.originalWidth = 144;
};
width = 0;
},
{
anchors = (
{
name = _center;
position = "{101, 306}";
}
);
layerId = master02;
paths = (
{
closed = 1;
nodes = (
"121 269 OFFCURVE",
"138 286 OFFCURVE",
"138 306 CURVE SMOOTH",
"138 326 OFFCURVE",
"121 343 OFFCURVE",
"101 343 CURVE SMOOTH",
"81 343 OFFCURVE",
"64 326 OFFCURVE",
"64 306 CURVE SMOOTH",
"64 286 OFFCURVE",
"81 269 OFFCURVE",
"101 269 CURVE SMOOTH"
);
}
);
userData = {
com.schriftgestaltung.Glyphs.originalWidth = 202;
};
width = 0;
},
{
anchors = (
{
name = _center;
position = "{71, 296}";
}
);
layerId = master03;
paths = (
{
closed = 1;
nodes = (
"84 273 OFFCURVE",
"94 283 OFFCURVE",
"94 296 CURVE SMOOTH",
"94 308 OFFCURVE",
"84 318 OFFCURVE",
"72 318 CURVE SMOOTH",
"59 318 OFFCURVE",
"49 308 OFFCURVE",
"49 296 CURVE SMOOTH",
"49 283 OFFCURVE",
"59 273 OFFCURVE",
"72 273 CURVE SMOOTH"
);
}
);
userData = {
com.schriftgestaltung.Glyphs.originalWidth = 144;
};
width = 0;
},
{
anchors = (
{
name = _center;
position = "{101, 306}";
}
);
layerId = master04;
paths = (
{
closed = 1;
nodes = (
"121 269 OFFCURVE",
"138 286 OFFCURVE",
"138 306 CURVE SMOOTH",
"138 326 OFFCURVE",
"121 343 OFFCURVE",
"101 343 CURVE SMOOTH",
"81 343 OFFCURVE",
"64 326 OFFCURVE",
"64 306 CURVE SMOOTH",
"64 286 OFFCURVE",
"81 269 OFFCURVE",
"101 269 CURVE SMOOTH"
);
}
);
userData = {
com.schriftgestaltung.Glyphs.originalWidth = 202;
};
width = 0;
}
);
note = "\012dagesh\012";
unicode = 05BC;
},
{
glyphname = "dalet-hb";
layers = (
{
anchors = (
{
name = bottom;
position = "{361, 0}";
},
{
name = bottomleft;
position = "{181, 0}";
},
{
name = center;
position = "{181, 296}";
},
{
name = top;
position = "{242, 528}";
},
{
name = topleft;
position = "{13, 528}";
}
);
layerId = master01;
paths = (
{
closed = 1;
nodes = (
"468 557 LINE",
"473 584 LINE",
"40 584 LINE",
"40 557 LINE"
);
},
{
closed = 1;
nodes = (
"378 0 LINE",
"378 509 LINE",
"378 528 OFFCURVE",
"380 548 OFFCURVE",
"383 557 CURVE",
"359 557 LINE",
"350 550 OFFCURVE",
"346 528 OFFCURVE",
"346 509 CURVE",
"346 0 LINE"
);
}
);
width = 513;
},
{
anchors = (
{
name = bottom;
position = "{378, 0}";
},
{
name = bottomleft;
position = "{-15, 0}";
},
{
name = center;
position = "{129, 306}";
},
{
name = top;
position = "{280, 553}";
},
{
name = topleft;
position = "{-25, 553}";
}
);
layerId = master02;
paths = (
{
closed = 1;
nodes = (
"555 451 LINE",
"575 609 LINE",
"35 609 LINE",
"35 451 LINE"
);
},
{
closed = 1;
nodes = (
"474 0 LINE",
"474 384 LINE",
"474 416 OFFCURVE",
"474 439 OFFCURVE",
"495 451 CURVE",
"342 451 LINE",
"293 427 OFFCURVE",
"282 366 OFFCURVE",
"282 336 CURVE",
"282 0 LINE"
);
}
);
width = 590;
},
{
anchors = (
{
name = bottom;
position = "{235, 0}";
},
{
name = bottomleft;
position = "{80, 0}";
},
{
name = center;
position = "{112, 296}";
},
{
name = top;
position = "{171, 528}";
},
{
name = topleft;
position = "{22, 528}";
}
);
layerId = master03;
paths = (
{
closed = 1;
nodes = (
"312 557 LINE",
"317 584 LINE",
"24 584 LINE",
"24 557 LINE"
);
},
{
closed = 1;
nodes = (
"252 0 LINE",
"252 509 LINE",
"252 528 OFFCURVE",
"254 548 OFFCURVE",
"257 557 CURVE",
"233 557 LINE",
"224 550 OFFCURVE",
"220 528 OFFCURVE",
"220 509 CURVE",
"220 0 LINE"
);
}
);
width = 341;
},
{
anchors = (
{
name = bottom;
position = "{264, 0}";
},
{
name = bottomleft;
position = "{32, 0}";
},
{
name = center;
position = "{76, 306}";
},
{
name = top;
position = "{236, 553}";
},
{
name = topleft;
position = "{22, 553}";
}
);
layerId = master04;
paths = (
{
closed = 1;
nodes = (
"423 451 LINE",
"443 609 LINE",
"18 609 LINE",
"18 451 LINE"
);
},
{
closed = 1;
nodes = (
"362 0 LINE",
"362 384 LINE",
"362 416 OFFCURVE",
"362 439 OFFCURVE",
"383 451 CURVE",
"230 451 LINE",
"181 427 OFFCURVE",
"170 366 OFFCURVE",
"170 336 CURVE",
"170 0 LINE"
);
}
);
width = 461;
}
);
unicode = 05D3;
},
{
glyphname = "dargaleft-hb";
layers = (
{
anchors = (
{
name = _bottomleft;
position = "{165, 0}";
}
);
layerId = master01;
paths = (
{
closed = 1;
nodes = (
"173 -200 LINE",
"96 -102 LINE",
"165 -89 LINE",
"165 -66 LINE",
"58 -87 LINE",
"137 -187 LINE",
"61 -200 LINE",
"61 -219 LINE"
);
}
);
userData = {
com.schriftgestaltung.Glyphs.originalWidth = 231;
};
width = 0;
},
{
anchors = (
{
name = _bottomleft;
position = "{195, 0}";
}
);
layerId = master02;
paths = (
{
closed = 1;
nodes = (
"209 -226 LINE",
"122 -113 LINE",
"195 -99 LINE",
"195 -61 LINE",
"50 -87 LINE",
"137 -201 LINE",
"65 -212 LINE",
"65 -252 LINE"
);
}
);
userData = {
com.schriftgestaltung.Glyphs.originalWidth = 259;
};
width = 0;
},
{
anchors = (
{
name = _bottomleft;
position = "{157, 0}";
}
);
layerId = master03;
paths = (
{
closed = 1;
nodes = (
"165 -200 LINE",
"88 -102 LINE",
"157 -89 LINE",
"157 -66 LINE",
"50 -87 LINE",
"129 -187 LINE",
"53 -200 LINE",
"53 -219 LINE"
);
}
);
userData = {
com.schriftgestaltung.Glyphs.originalWidth = 215;
};
width = 0;
},
{
anchors = (
{
name = _bottomleft;
position = "{187, 0}";
}
);
layerId = master04;
paths = (
{
closed = 1;
nodes = (
"199 -206 LINE",
"123 -107 LINE",
"187 -94 LINE",
"187 -61 LINE",
"60 -84 LINE",
"136 -184 LINE",
"73 -193 LINE",
"73 -229 LINE"
);
}
);
userData = {
com.schriftgestaltung.Glyphs.originalWidth = 259;
};
width = 0;
}
);
note = "\012uni05A7\012";
unicode = 05A7;
},
{
glyphname = "dehi-hb";
layers = (
{
anchors = (
{
name = _bottomleft;
position = "{65, 0}";
}
);
layerId = master01;
paths = (
{
closed = 1;
nodes = (
"159 -159 LINE",
"99 -159 OFFCURVE",
"79 -131 OFFCURVE",
"79 -82 CURVE",
"50 -82 LINE",
"50 -149 OFFCURVE",
"83 -188 OFFCURVE",
"159 -188 CURVE"
);
}
);
userData = {
com.schriftgestaltung.Glyphs.originalWidth = 209;
};
width = 0;
},
{
anchors = (
{
name = _bottomleft;
position = "{78, 0}";
}
);
layerId = master02;
paths = (
{
closed = 1;
nodes = (
"214 -170 LINE",
"146 -170 OFFCURVE",
"105 -133 OFFCURVE",
"105 -70 CURVE",
"50 -70 LINE",
"50 -167 OFFCURVE",
"110 -224 OFFCURVE",
"214 -224 CURVE"
);
}
);
userData = {
com.schriftgestaltung.Glyphs.originalWidth = 264;
};
width = 0;
},
{
anchors = (
{
name = _bottomleft;
position = "{65, 0}";
}
);
layerId = master03;
paths = (
{
closed = 1;
nodes = (
"159 -159 LINE",
"99 -159 OFFCURVE",
"79 -131 OFFCURVE",
"79 -82 CURVE",
"50 -82 LINE",
"50 -149 OFFCURVE",
"83 -188 OFFCURVE",
"159 -188 CURVE"
);
}
);
userData = {
com.schriftgestaltung.Glyphs.originalWidth = 209;
};
width = 0;
},
{
anchors = (
{
name = _bottomleft;
position = "{85, 0}";
}
);
layerId = master04;
paths = (
{
closed = 1;
nodes = (
"204 -158 LINE",
"144 -158 OFFCURVE",
"108 -125 OFFCURVE",
"108 -70 CURVE",
"60 -70 LINE",
"60 -155 OFFCURVE",
"113 -205 OFFCURVE",
"204 -205 CURVE"
);
}
);
userData = {
com.schriftgestaltung.Glyphs.originalWidth = 264;
};
width = 0;
}
);
note = "\012uni05AD\012";
unicode = 05AD;
},
{
glyphname = "etnahtaleft-hb";
layers = (
{
anchors = (
{
name = _bottomleft;
position = "{114, 0}";
}
);
layerId = master01;
paths = (
{
closed = 1;
nodes = (
"83 -202 LINE",
"83 -185 LINE SMOOTH",
"83 -158 OFFCURVE",
"92 -147 OFFCURVE",
"115 -147 CURVE SMOOTH",
"137 -147 OFFCURVE",
"146 -158 OFFCURVE",
"146 -185 CURVE SMOOTH",
"146 -202 LINE",
"171 -202 LINE",
"171 -185 LINE SMOOTH",
"171 -147 OFFCURVE",
"157 -129 OFFCURVE",
"127 -124 CURVE",
"127 -82 LINE",
"101 -82 LINE",
"101 -124 LINE",
"72 -129 OFFCURVE",
"58 -147 OFFCURVE",
"58 -185 CURVE SMOOTH",
"58 -202 LINE"
);
}
);
userData = {
com.schriftgestaltung.Glyphs.originalWidth = 229;
};
width = 0;
},
{
anchors = (
{
name = _bottomleft;
position = "{146, 0}";
}
);
layerId = master02;
paths = (
{
closed = 1;
nodes = (
"101 -238 LINE",
"101 -214 LINE SMOOTH",
"101 -178 OFFCURVE",
"113 -163 OFFCURVE",
"147 -163 CURVE SMOOTH",
"179 -163 OFFCURVE",
"191 -178 OFFCURVE",
"191 -214 CURVE SMOOTH",
"191 -238 LINE",
"243 -238 LINE",
"243 -213 LINE SMOOTH",
"243 -154 OFFCURVE",
"221 -125 OFFCURVE",
"172 -117 CURVE",
"172 -70 LINE",
"120 -70 LINE",
"120 -117 LINE",
"73 -125 OFFCURVE",
"50 -154 OFFCURVE",
"50 -213 CURVE SMOOTH",
"50 -238 LINE"
);
}
);
userData = {
com.schriftgestaltung.Glyphs.originalWidth = 293;
};
width = 0;
},
{
anchors = (
{
name = _bottomleft;
position = "{106, 0}";
}
);
layerId = master03;
paths = (
{
closed = 1;
nodes = (
"75 -202 LINE",
"75 -185 LINE SMOOTH",
"75 -158 OFFCURVE",
"84 -147 OFFCURVE",
"107 -147 CURVE SMOOTH",
"129 -147 OFFCURVE",
"138 -158 OFFCURVE",
"138 -185 CURVE SMOOTH",
"138 -202 LINE",
"163 -202 LINE",
"163 -185 LINE SMOOTH",
"163 -147 OFFCURVE",
"149 -129 OFFCURVE",
"119 -124 CURVE",
"119 -82 LINE",
"93 -82 LINE",
"93 -124 LINE",
"64 -129 OFFCURVE",
"50 -147 OFFCURVE",
"50 -185 CURVE SMOOTH",
"50 -202 LINE"
);
}
);
userData = {
com.schriftgestaltung.Glyphs.originalWidth = 213;
};
width = 0;
},
{
anchors = (
{
name = _bottomleft;
position = "{146, 0}";
}
);
layerId = master04;
paths = (
{
closed = 1;
nodes = (
"107 -217 LINE",
"107 -196 LINE SMOOTH",
"107 -165 OFFCURVE",
"117 -152 OFFCURVE",
"147 -152 CURVE SMOOTH",
"175 -152 OFFCURVE",
"186 -165 OFFCURVE",
"186 -196 CURVE SMOOTH",
"186 -217 LINE",
"231 -217 LINE",
"231 -195 LINE SMOOTH",
"231 -144 OFFCURVE",
"212 -118 OFFCURVE",
"169 -111 CURVE",
"169 -70 LINE",
"123 -70 LINE",
"123 -111 LINE",
"82 -118 OFFCURVE",
"62 -144 OFFCURVE",
"62 -195 CURVE SMOOTH",
"62 -217 LINE"
);
}
);
userData = {
com.schriftgestaltung.Glyphs.originalWidth = 293;
};
width = 0;
}
);
note = "\012uni0591\012";
unicode = 0591;
},
{
glyphname = "finalkaf-hb";
layers = (
{
anchors = (
{
name = bottom;
position = "{212, 199}";
},
{
name = bottomleft;
position = "{10, 0}";
},
{
name = center;
position = "{212, 296}";
},
{
name = top;
position = "{167, 528}";
},
{
name = topleft;
position = "{10, 528}";
}
);
layerId = master01;
paths = (
{
closed = 1;
nodes = (
"442 -195 LINE",
"442 382 LINE SMOOTH",
"442 509 OFFCURVE",
"382 584 OFFCURVE",
"276 584 CURVE SMOOTH",
"52 584 LINE",
"47 557 LINE",
"276 557 LINE SMOOTH",
"360 557 OFFCURVE",
"410 492 OFFCURVE",
"410 382 CURVE SMOOTH",
"410 -198 LINE"
);
}
);
width = 519;
},
{
anchors = (
{
name = bottom;
position = "{173, 271}";
},
{
name = bottomleft;
position = "{5, 0}";
},
{
name = center;
position = "{173, 306}";
},
{
name = top;
position = "{269, 553}";
},
{
name = topleft;
position = "{-5, 553}";
}
);
layerId = master02;
paths = (
{
closed = 1;
nodes = (
"542 -170 LINE",
"542 367 LINE SMOOTH",
"542 526 OFFCURVE",
"451 609 OFFCURVE",
"278 609 CURVE SMOOTH",
"55 609 LINE",
"35 451 LINE",
"270 451 LINE SMOOTH",
"323 451 OFFCURVE",
"350 422 OFFCURVE",
"350 367 CURVE SMOOTH",
"350 -180 LINE"
);
}
);
width = 587;
},
{
anchors = (
{
name = bottom;
position = "{121, 199}";
},
{
name = bottomleft;
position = "{29, 0}";
},
{
name = center;
position = "{121, 296}";
},
{
name = top;
position = "{151, 528}";
},
{
name = topleft;
position = "{29, 528}";
}
);
layerId = master03;
paths = (
{
closed = 1;
nodes = (
"303 -195 LINE",
"303 382 LINE SMOOTH",
"303 509 OFFCURVE",
"261 584 OFFCURVE",
"155 584 CURVE SMOOTH",
"31 584 LINE",
"26 557 LINE",
"155 557 LINE SMOOTH",
"239 557 OFFCURVE",
"269 492 OFFCURVE",
"269 382 CURVE SMOOTH",
"269 -198 LINE"
);
}
);
width = 363;
},
{
anchors = (
{
name = bottom;
position = "{118, 241}";
},
{
name = bottomleft;
position = "{24, 0}";
},
{
name = center;
position = "{121, 306}";
},
{
name = top;
position = "{206, 553}";
},
{
name = topleft;
position = "{14, 553}";
}
);
layerId = master04;
paths = (
{
closed = 1;
nodes = (
"415 -170 LINE",
"415 367 LINE SMOOTH",
"415 526 OFFCURVE",
"344 609 OFFCURVE",
"171 609 CURVE SMOOTH",
"38 609 LINE",
"18 451 LINE",
"163 451 LINE SMOOTH",
"216 451 OFFCURVE",
"223 422 OFFCURVE",
"223 367 CURVE SMOOTH",
"223 -180 LINE"
);
}
);
width = 453;
}
);
unicode = 05DA;
},
{
glyphname = "finalmem-hb";
layers = (
{
anchors = (
{
name = bottom;
position = "{344, 0}";
},
{
name = bottomleft;
position = "{110, 0}";
},
{
name = center;
position = "{344, 292}";
},
{
name = top;
position = "{344, 528}";
},
{
name = topleft;
position = "{110, 528}";
}
);
layerId = master01;
paths = (
{
closed = 1;
nodes = (
"62 584 LINE",
"57 557 LINE",
"140 557 LINE",
"131 550 OFFCURVE",
"127 528 OFFCURVE",
"127 509 CURVE SMOOTH",
"127 0 LINE",
"581 0 LINE",
"581 419 LINE SMOOTH",
"581 527 OFFCURVE",
"524 584 OFFCURVE",
"418 584 CURVE SMOOTH"
);
},
{
closed = 1;
nodes = (
"159 27 LINE",
"159 509 LINE SMOOTH",
"159 528 OFFCURVE",
"161 548 OFFCURVE",
"164 557 CURVE",
"413 557 LINE SMOOTH",
"506 557 OFFCURVE",
"549 511 OFFCURVE",
"549 416 CURVE SMOOTH",
"549 27 LINE"
);
}
);
width = 666;
},
{
anchors = (
{
name = bottom;
position = "{357, 0}";
},
{
name = bottomleft;
position = "{55, 0}";
},
{
name = center;
position = "{357, 304}";
},
{
name = top;
position = "{357, 553}";
},
{
name = topleft;
position = "{55, 553}";
}
);
layerId = master02;
paths = (
{
closed = 1;
nodes = (
"55 609 LINE",
"35 451 LINE",
"145 451 LINE",
"96 427 OFFCURVE",
"85 366 OFFCURVE",
"85 336 CURVE SMOOTH",
"85 0 LINE",
"659 0 LINE",
"659 382 LINE SMOOTH",
"659 533 OFFCURVE",
"574 609 OFFCURVE",
"407 609 CURVE SMOOTH"
);
},
{
closed = 1;
nodes = (
"277 158 LINE",
"277 384 LINE SMOOTH",
"277 406 OFFCURVE",
"277 429 OFFCURVE",
"287 451 CURVE",
"398 451 LINE SMOOTH",
"441 451 OFFCURVE",
"467 427 OFFCURVE",
"467 379 CURVE SMOOTH",
"467 158 LINE"
);
}
);
width = 714;
},
{
anchors = (
{
name = bottom;
position = "{212, 0}";
},
{
name = bottomleft;
position = "{57, 0}";
},
{
name = center;
position = "{212, 292}";
},
{
name = top;
position = "{212, 528}";
},
{
name = topleft;
position = "{57, 528}";
}
);
layerId = master03;
paths = (
{
closed = 1;
nodes = (
"34 584 LINE",
"29 557 LINE",
"82 557 LINE",
"73 550 OFFCURVE",
"69 528 OFFCURVE",
"69 509 CURVE SMOOTH",
"69 0 LINE",
"373 0 LINE",
"373 419 LINE SMOOTH",
"373 527 OFFCURVE",
"316 584 OFFCURVE",
"210 584 CURVE SMOOTH"
);
},
{
closed = 1;
nodes = (
"101 27 LINE",
"101 509 LINE SMOOTH",
"101 528 OFFCURVE",
"103 548 OFFCURVE",
"106 557 CURVE",
"205 557 LINE SMOOTH",
"298 557 OFFCURVE",
"341 511 OFFCURVE",
"341 416 CURVE SMOOTH",
"341 27 LINE"
);
}
);
width = 432;
},
{
anchors = (
{
name = bottom;
position = "{292, 0}";
},
{
name = bottomleft;
position = "{63, 0}";
},
{
name = center;
position = "{292, 304}";
},
{
name = top;
position = "{292, 553}";
},
{
name = topleft;
position = "{62, 553}";
}
);
layerId = master04;
paths = (
{
closed = 1;
nodes = (
"38 609 LINE",
"18 451 LINE",
"108 451 LINE",
"59 427 OFFCURVE",
"48 366 OFFCURVE",
"48 336 CURVE SMOOTH",
"48 0 LINE",
"542 0 LINE",
"542 382 LINE SMOOTH",
"542 533 OFFCURVE",
"477 609 OFFCURVE",
"310 609 CURVE SMOOTH"
);
},
{
closed = 1;
nodes = (
"240 158 LINE",
"240 384 LINE SMOOTH",
"240 406 OFFCURVE",
"240 429 OFFCURVE",
"250 451 CURVE",
"301 451 LINE SMOOTH",
"344 451 OFFCURVE",
"350 427 OFFCURVE",
"350 379 CURVE SMOOTH",
"350 158 LINE"
);
}
);
width = 580;
}
);
unicode = 05DD;
},
{
glyphname = "finalnun-hb";
layers = (
{
anchors = (
{
name = bottomleft;
position = "{68, 0}";
},
{
name = center;
position = "{120, 296}";
},
{
name = top;
position = "{141, 528}";
},
{
name = topleft;
position = "{68, 528}";
}
);
layerId = master01;
paths = (
{
closed = 1;
nodes = (
"182 -195 LINE",
"182 584 LINE",
"150 584 LINE",
"150 -198 LINE"
);
},
{
closed = 1;
nodes = (
"170 557 LINE",
"170 584 LINE",
"55 584 LINE",
"50 557 LINE"
);
}
);
width = 303;
},
{
anchors = (
{
name = bottomleft;
position = "{35, 0}";
},
{
name = center;
position = "{55, 306}";
},
{
name = top;
position = "{201, 553}";
},
{
name = topleft;
position = "{25, 553}";
}
);
layerId = master02;
paths = (
{
closed = 1;
nodes = (
"302 -170 LINE",
"302 609 LINE",
"110 609 LINE",
"110 -180 LINE"
);
},
{
closed = 1;
nodes = (
"237 451 LINE",
"237 609 LINE",
"55 609 LINE",
"35 451 LINE"
);
}
);
width = 372;
},
{
anchors = (
{
name = bottomleft;
position = "{44, 0}";
},
{
name = center;
position = "{63, 296}";
},
{
name = top;
position = "{112, 528}";
},
{
name = topleft;
position = "{44, 528}";
}
);
layerId = master03;
paths = (
{
closed = 1;
nodes = (
"140 -195 LINE",
"140 584 LINE",
"108 584 LINE",
"108 -198 LINE"
);
},
{
closed = 1;
nodes = (
"128 557 LINE",
"128 584 LINE",
"43 584 LINE",
"38 557 LINE"
);
}
);
width = 209;
},
{
anchors = (
{
name = bottomleft;
position = "{32, 0}";
},
{
name = center;
position = "{41, 306}";
},
{
name = top;
position = "{150, 553}";
},
{
name = topleft;
position = "{22, 553}";
}
);
layerId = master04;
paths = (
{
closed = 1;
nodes = (
"275 -170 LINE",
"275 609 LINE",
"83 609 LINE",
"83 -180 LINE"
);
},
{
closed = 1;
nodes = (
"210 451 LINE",
"210 609 LINE",
"38 609 LINE",
"18 451 LINE"
);
}
);
width = 313;
}
);
unicode = 05DF;
},
{
glyphname = "finalpe-hb";
layers = (
{
anchors = (
{
name = bottom;
position = "{331, 220}";
},
{
name = bottomleft;
position = "{20, 0}";
},
{
name = center;
position = "{332, 269}";
},
{
name = top;
position = "{232, 528}";
},
{
name = topleft;
position = "{20, 528}";
}
);
layerId = master01;
paths = (
{
closed = 1;
nodes = (
"504 -195 LINE",
"504 297 LINE SMOOTH",
"504 482 OFFCURVE",
"415 594 OFFCURVE",
"263 594 CURVE SMOOTH",
"134 594 OFFCURVE",
"56 513 OFFCURVE",
"56 399 CURVE SMOOTH",
"56 303 OFFCURVE",
"101 234 OFFCURVE",
"198 222 CURVE SMOOTH",
"214 220 OFFCURVE",
"222 220 OFFCURVE",
"229 220 CURVE",
"230 248 LINE",
"224 248 OFFCURVE",
"217 249 OFFCURVE",
"207 250 CURVE SMOOTH",
"125 258 OFFCURVE",
"90 320 OFFCURVE",
"90 399 CURVE SMOOTH",
"90 497 OFFCURVE",
"154 567 OFFCURVE",
"263 567 CURVE SMOOTH",
"394 567 OFFCURVE",
"472 466 OFFCURVE",
"472 297 CURVE SMOOTH",
"472 -198 LINE"
);
}
);
width = 587;
},
{
anchors = (
{
name = bottom;
position = "{348, 225}";
},
{
name = bottomleft;
position = "{21, 0}";
},
{
name = center;
position = "{354, 282}";
},
{
name = top;
position = "{309, 553}";
},
{
name = topleft;
position = "{6, 553}";
}
);
layerId = master02;
paths = (
{
closed = 1;
nodes = (
"621 -170 LINE",
"621 311 LINE SMOOTH",
"621 502 OFFCURVE",
"508 619 OFFCURVE",
"309 619 CURVE SMOOTH",
"124 619 OFFCURVE",
"35 529 OFFCURVE",
"35 404 CURVE SMOOTH",
"35 300 OFFCURVE",
"93 227 OFFCURVE",
"178 209 CURVE SMOOTH",
"220 200 OFFCURVE",
"249 197 OFFCURVE",
"270 201 CURVE",
"286 337 LINE",
"276 337 OFFCURVE",
"262 341 OFFCURVE",
"250 347 CURVE SMOOTH",
"230 357 OFFCURVE",
"218 374 OFFCURVE",
"218 398 CURVE SMOOTH",
"218 435 OFFCURVE",
"241 461 OFFCURVE",
"309 461 CURVE SMOOTH",
"396 461 OFFCURVE",
"429 403 OFFCURVE",
"429 310 CURVE SMOOTH",
"429 -180 LINE"
);
}
);
width = 676;
},
{
anchors = (
{
name = bottom;
position = "{268, 235}";
},
{
name = bottomleft;
position = "{46, 0}";
},
{
name = center;
position = "{199, 399}";
},
{
name = top;
position = "{174, 528}";
},
{
name = topleft;
position = "{40, 528}";
}
);
layerId = master03;
paths = (
{
closed = 1;
nodes = (
"371 -195 LINE",
"371 297 LINE",
"371 482 OFFCURVE",
"314 594 OFFCURVE",
"195 594 CURVE SMOOTH",
"99 594 OFFCURVE",
"39 513 OFFCURVE",
"39 399 CURVE SMOOTH",
"39 303 OFFCURVE",
"84 235 OFFCURVE",
"151 222 CURVE SMOOTH",
"167 219 OFFCURVE",
"175 220 OFFCURVE",
"182 220 CURVE",
"183 248 LINE",
"177 248 OFFCURVE",
"170 248 OFFCURVE",
"160 250 CURVE SMOOTH",
"108 260 OFFCURVE",
"71 320 OFFCURVE",
"71 399 CURVE SMOOTH",
"71 497 OFFCURVE",
"119 567 OFFCURVE",
"195 567 CURVE SMOOTH",
"293 567 OFFCURVE",
"339 466 OFFCURVE",
"339 297 CURVE",
"339 -198 LINE"
);
}
);
width = 437;
},
{
anchors = (
{
name = bottom;
position = "{285, 225}";
},
{
name = bottomleft;
position = "{70, 0}";
},
{
name = center;
position = "{265, 400}";
},
{
name = top;
position = "{292, 553}";
},
{
name = topleft;
position = "{55, 553}";
}
);
layerId = master04;
paths = (
{
closed = 1;
nodes = (
"524 -170 LINE",
"524 368 LINE SMOOTH",
"524 533 OFFCURVE",
"431 619 OFFCURVE",
"252 619 CURVE SMOOTH",
"98 619 OFFCURVE",
"18 545 OFFCURVE",
"18 404 CURVE SMOOTH",
"18 296 OFFCURVE",
"67 229 OFFCURVE",
"161 209 CURVE SMOOTH",
"204 200 OFFCURVE",
"235 197 OFFCURVE",
"253 201 CURVE",
"269 337 LINE",
"257 337 OFFCURVE",
"244 340 OFFCURVE",
"233 347 CURVE SMOOTH",
"212 358 OFFCURVE",
"201 376 OFFCURVE",
"201 398 CURVE SMOOTH",
"201 439 OFFCURVE",
"218 461 OFFCURVE",
"252 461 CURVE SMOOTH",
"305 461 OFFCURVE",
"332 429 OFFCURVE",
"332 367 CURVE SMOOTH",
"332 -180 LINE"
);
}
);
width = 551;
}
);
unicode = 05E3;
},
{
glyphname = "finaltsadi-hb";
layers = (
{
anchors = (
{
name = bottomleft;
position = "{-7, 0}";
},
{
name = center;
position = "{210, 424}";
},
{
name = top;
position = "{203, 528}";
},
{
name = topleft;
position = "{-7, 528}";
}
);
layerId = master01;
paths = (
{
closed = 1;
nodes = (
"348 -195 LINE",
"310 -40 LINE",
"274 108 OFFCURVE",
"226 244 OFFCURVE",
"174 368 CURVE SMOOTH",
"139 451 OFFCURVE",
"96 547 OFFCURVE",
"74 584 CURVE",
"37 584 LINE",
"64 538 OFFCURVE",
"104 452 OFFCURVE",
"140 364 CURVE SMOOTH",
"190 242 OFFCURVE",
"237 109 OFFCURVE",
"273 -40 CURVE",
"311 -200 LINE"
);
},
{
closed = 1;
nodes = (
"356 270 OFFCURVE",
"393 429 OFFCURVE",
"401 496 CURVE SMOOTH",
"411 584 LINE",
"379 584 LINE",
"369 504 LINE SMOOTH",
"361 440 OFFCURVE",
"333 289 OFFCURVE",
"216 242 CURVE",
"225 217 LINE"
);
}
);
width = 471;
},
{
anchors = (
{
name = bottomleft;
position = "{43, 0}";
},
{
name = center;
position = "{333, 504}";
},
{
name = top;
position = "{319, 553}";
},
{
name = topleft;
position = "{21, 553}";
}
);
layerId = master02;
paths = (
{
closed = 1;
nodes = (
"471 -170 LINE",
"414 32 LINE",
"383 153 OFFCURVE",
"341 273 OFFCURVE",
"299 394 CURVE SMOOTH",
"274 466 OFFCURVE",
"243 565 OFFCURVE",
"223 609 CURVE",
"14 609 LINE",
"53 519 OFFCURVE",
"82 448 OFFCURVE",
"111 368 CURVE SMOOTH",
"152 256 OFFCURVE",
"192 144 OFFCURVE",
"222 32 CURVE",
"279 -180 LINE"
);
},
{
closed = 1;
nodes = (
"512 205 OFFCURVE",
"573 341 OFFCURVE",
"591 513 CURVE SMOOTH",
"601 609 LINE",
"412 609 LINE",
"402 526 LINE SMOOTH",
"387 402 OFFCURVE",
"385 328 OFFCURVE",
"290 300 CURVE",
"330 177 LINE"
);
}
);
width = 626;
},
{
anchors = (
{
name = bottomleft;
position = "{24, 0}";
},
{
name = center;
position = "{167, 450}";
},
{
name = top;
position = "{166, 528}";
},
{
name = topleft;
position = "{24, 528}";
}
);
layerId = master03;
paths = (
{
closed = 1;
nodes = (
"244 -196 LINE",
"222 -41 LINE",
"202 107 OFFCURVE",
"173 244 OFFCURVE",
"130 367 CURVE SMOOTH",
"101 450 OFFCURVE",
"66 546 OFFCURVE",
"43 584 CURVE",
"9 584 LINE",
"35 537 OFFCURVE",
"70 451 OFFCURVE",
"100 363 CURVE SMOOTH",
"141 243 OFFCURVE",
"170 108 OFFCURVE",
"190 -41 CURVE",
"212 -201 LINE"
);
},
{
closed = 1;
nodes = (
"257 270 OFFCURVE",
"279 429 OFFCURVE",
"284 496 CURVE SMOOTH",
"291 584 LINE",
"259 584 LINE",
"251 504 LINE SMOOTH",
"245 440 OFFCURVE",
"233 289 OFFCURVE",
"138 242 CURVE",
"147 217 LINE"
);
}
);
width = 335;
},
{
anchors = (
{
name = bottomleft;
position = "{51, 0}";
},
{
name = center;
position = "{272, 535}";
},
{
name = top;
position = "{260, 553}";
},
{
name = topleft;
position = "{29, 553}";
}
);
layerId = master04;
paths = (
{
closed = 1;
nodes = (
"382 -170 LINE",
"348 32 LINE",
"330 153 OFFCURVE",
"301 273 OFFCURVE",
"271 394 CURVE SMOOTH",
"253 466 OFFCURVE",
"235 547 OFFCURVE",
"216 609 CURVE",
"8 609 LINE",
"38 519 OFFCURVE",
"60 448 OFFCURVE",
"81 368 CURVE SMOOTH",
"110 256 OFFCURVE",
"138 144 OFFCURVE",
"156 32 CURVE",
"189 -180 LINE"
);
},
{
closed = 1;
nodes = (
"456 205 OFFCURVE",
"502 341 OFFCURVE",
"502 513 CURVE SMOOTH",
"502 609 LINE",
"313 609 LINE",
"312 526 LINE SMOOTH",
"311 402 OFFCURVE",
"316 328 OFFCURVE",
"224 300 CURVE",
"277 177 LINE"
);
}
);
width = 530;
}
);
unicode = 05E5;
},
{
glyphname = "finalwidemem-hb";
layers = (
{
layerId = master01;
paths = (
{
closed = 1;
nodes = (
"37 584 LINE",
"32 557 LINE",
"115 557 LINE",
"106 550 OFFCURVE",
"102 528 OFFCURVE",
"102 509 CURVE SMOOTH",
"102 0 LINE",
"706 0 LINE",
"706 419 LINE SMOOTH",
"706 527 OFFCURVE",
"649 584 OFFCURVE",
"543 584 CURVE SMOOTH"
);
},
{
closed = 1;
nodes = (
"134 27 LINE",
"134 509 LINE SMOOTH",
"134 528 OFFCURVE",
"136 548 OFFCURVE",
"139 557 CURVE",
"538 557 LINE SMOOTH",
"631 557 OFFCURVE",
"674 511 OFFCURVE",
"674 416 CURVE SMOOTH",
"674 27 LINE"
);
}
);
width = 758;
},
{
layerId = master02;
paths = (
{
closed = 1;
nodes = (
"55 609 LINE",
"35 451 LINE",
"145 451 LINE",
"96 427 OFFCURVE",
"85 366 OFFCURVE",
"85 336 CURVE SMOOTH",
"85 0 LINE",
"819 0 LINE",
"819 382 LINE SMOOTH",
"819 533 OFFCURVE",
"734 609 OFFCURVE",
"567 609 CURVE SMOOTH"
);
},
{
closed = 1;
nodes = (
"277 158 LINE",
"277 384 LINE SMOOTH",
"277 406 OFFCURVE",
"277 429 OFFCURVE",
"287 451 CURVE",
"558 451 LINE SMOOTH",
"601 451 OFFCURVE",
"627 427 OFFCURVE",
"627 379 CURVE SMOOTH",
"627 158 LINE"
);
}
);
width = 854;
},
{
layerId = master03;
paths = (
{
closed = 1;
nodes = (
"47 584 LINE",
"42 557 LINE",
"125 557 LINE",
"116 550 OFFCURVE",
"112 528 OFFCURVE",
"112 509 CURVE SMOOTH",
"112 0 LINE",
"566 0 LINE",
"566 419 LINE SMOOTH",
"566 527 OFFCURVE",
"509 584 OFFCURVE",
"403 584 CURVE SMOOTH"
);
},
{
closed = 1;
nodes = (
"144 27 LINE",
"144 509 LINE SMOOTH",
"144 528 OFFCURVE",
"146 548 OFFCURVE",
"149 557 CURVE",
"398 557 LINE SMOOTH",
"491 557 OFFCURVE",
"534 511 OFFCURVE",
"534 416 CURVE SMOOTH",
"534 27 LINE"
);
}
);
width = 623;
},
{
layerId = master04;
paths = (
{
closed = 1;
nodes = (
"45 609 LINE",
"25 451 LINE",
"135 451 LINE",
"86 427 OFFCURVE",
"75 366 OFFCURVE",
"75 336 CURVE SMOOTH",
"75 0 LINE",
"649 0 LINE",
"649 382 LINE SMOOTH",
"649 533 OFFCURVE",
"564 609 OFFCURVE",
"397 609 CURVE SMOOTH"
);
},
{
closed = 1;
nodes = (
"267 158 LINE",
"267 384 LINE SMOOTH",
"267 406 OFFCURVE",
"267 429 OFFCURVE",
"277 451 CURVE",
"388 451 LINE SMOOTH",
"431 451 OFFCURVE",
"457 427 OFFCURVE",
"457 379 CURVE SMOOTH",
"457 158 LINE"
);
}
);
width = 704;
}
);
note = "\012finalmemwide\012";
unicode = FB26;
},
{
glyphname = "geresh-hb";
layers = (
{
layerId = master01;
paths = (
{
closed = 1;
nodes = (
"46 339 LINE",
"78 408 OFFCURVE",
"102 493 OFFCURVE",
"114 575 CURVE",
"114 584 LINE",
"86 584 LINE",
"79 512 OFFCURVE",
"54 409 OFFCURVE",
"23 339 CURVE"
);
}
);
width = 149;
},
{
layerId = master02;
paths = (
{
closed = 1;
nodes = (
"146 324 LINE",
"179 398 OFFCURVE",
"214 526 OFFCURVE",
"232 598 CURVE",
"225 609 LINE",
"58 609 LINE",
"49 529 OFFCURVE",
"29 415 OFFCURVE",
"10 324 CURVE"
);
}
);
width = 247;
},
{
layerId = master03;
paths = (
{
closed = 1;
nodes = (
"43 365 LINE",
"68 437 OFFCURVE",
"85 506 OFFCURVE",
"99 573 CURVE",
"98 584 LINE",
"69 584 LINE",
"62 512 OFFCURVE",
"47 448 OFFCURVE",
"25 365 CURVE"
);
}
);
width = 135;
},
{
layerId = master04;
paths = (
{
closed = 1;
nodes = (
"159 324 LINE",
"188 397 OFFCURVE",
"209 488 OFFCURVE",
"224 598 CURVE",
"219 609 LINE",
"61 609 LINE",
"58 542 OFFCURVE",
"37 394 OFFCURVE",
"25 324 CURVE"
);
}
);
width = 259;
}
);
unicode = 05F3;
},
{
glyphname = "gereshaccent-hb";
layers = (
{
anchors = (
{
name = _topleft;
position = "{65, 528}";
}
);
layerId = master01;
paths = (
{
closed = 1;
nodes = (
"79 650 LINE",
"79 699 OFFCURVE",
"99 727 OFFCURVE",
"159 727 CURVE",
"159 756 LINE",
"83 756 OFFCURVE",
"50 717 OFFCURVE",
"50 650 CURVE"
);
}
);
userData = {
com.schriftgestaltung.Glyphs.originalWidth = 209;
};
width = 0;
},
{
anchors = (
{
name = _topleft;
position = "{78, 553}";
}
);
layerId = master02;
paths = (
{
closed = 1;
nodes = (
"105 636 LINE",
"105 700 OFFCURVE",
"146 736 OFFCURVE",
"214 736 CURVE",
"214 791 LINE",
"111 791 OFFCURVE",
"50 734 OFFCURVE",
"50 636 CURVE"
);
}
);
userData = {
com.schriftgestaltung.Glyphs.originalWidth = 264;
};
width = 0;
},
{
anchors = (
{
name = _topleft;
position = "{65, 528}";
}
);
layerId = master03;
paths = (
{
closed = 1;
nodes = (
"79 650 LINE",
"79 699 OFFCURVE",
"99 727 OFFCURVE",
"159 727 CURVE",
"159 756 LINE",
"83 756 OFFCURVE",
"50 717 OFFCURVE",
"50 650 CURVE"
);
}
);
userData = {
com.schriftgestaltung.Glyphs.originalWidth = 209;
};
width = 0;
},
{
anchors = (
{
name = _topleft;
position = "{85, 553}";
}
);
layerId = master04;
paths = (
{
closed = 1;
nodes = (
"108 636 LINE",
"108 692 OFFCURVE",
"144 724 OFFCURVE",
"204 724 CURVE",
"204 772 LINE",
"114 772 OFFCURVE",
"60 722 OFFCURVE",
"60 636 CURVE"
);
}
);
userData = {
com.schriftgestaltung.Glyphs.originalWidth = 264;
};
width = 0;
}
);
note = "\012uni059C\012";
unicode = 059C;
},
{
glyphname = "gereshmuqdam-hb";
layers = (
{
anchors = (
{
name = _top;
position = "{119, 528}";
}
);
layerId = master01;
paths = (
{
closed = 1;
nodes = (
"79 650 LINE",
"79 699 OFFCURVE",
"99 727 OFFCURVE",
"159 727 CURVE",
"159 756 LINE",
"83 756 OFFCURVE",
"50 717 OFFCURVE",
"50 650 CURVE"
);
}
);
userData = {
com.schriftgestaltung.Glyphs.originalWidth = 209;
};
width = 0;
},
{
anchors = (
{
name = _top;
position = "{160, 553}";
}
);
layerId = master02;
paths = (
{
closed = 1;
nodes = (
"105 636 LINE",
"105 700 OFFCURVE",
"146 736 OFFCURVE",
"214 736 CURVE",
"214 791 LINE",
"111 791 OFFCURVE",
"50 734 OFFCURVE",
"50 636 CURVE"
);
}
);
userData = {
com.schriftgestaltung.Glyphs.originalWidth = 264;
};
width = 0;
},
{
anchors = (
{
name = _top;
position = "{119, 528}";
}
);
layerId = master03;
paths = (
{
closed = 1;
nodes = (
"79 650 LINE",
"79 699 OFFCURVE",
"99 727 OFFCURVE",
"159 727 CURVE",
"159 756 LINE",
"83 756 OFFCURVE",
"50 717 OFFCURVE",
"50 650 CURVE"
);
}
);
userData = {
com.schriftgestaltung.Glyphs.originalWidth = 209;
};
width = 0;
},
{
anchors = (
{
name = _top;
position = "{157, 553}";
}
);
layerId = master04;
paths = (
{
closed = 1;
nodes = (
"108 636 LINE",
"108 692 OFFCURVE",
"144 724 OFFCURVE",
"204 724 CURVE",
"204 772 LINE",
"114 772 OFFCURVE",
"60 722 OFFCURVE",
"60 636 CURVE"
);
}
);
userData = {
com.schriftgestaltung.Glyphs.originalWidth = 264;
};
width = 0;
}
);
note = "\012uni059D\012";
unicode = 059D;
},
{
glyphname = "gershayim-hb";
layers = (
{
layerId = master01;
paths = (
{
closed = 1;
nodes = (
"46 339 LINE",
"78 408 OFFCURVE",
"102 493 OFFCURVE",
"114 575 CURVE",
"114 584 LINE",
"86 584 LINE",
"79 512 OFFCURVE",
"54 409 OFFCURVE",
"23 339 CURVE"
);
},
{
closed = 1;
nodes = (
"186 339 LINE",
"218 408 OFFCURVE",
"242 493 OFFCURVE",
"254 575 CURVE",
"254 584 LINE",
"226 584 LINE",
"219 512 OFFCURVE",
"194 409 OFFCURVE",
"163 339 CURVE"
);
}
);
width = 287;
},
{
layerId = master02;
paths = (
{
closed = 1;
nodes = (
"146 324 LINE",
"179 398 OFFCURVE",
"214 526 OFFCURVE",
"232 598 CURVE",
"225 609 LINE",
"58 609 LINE",
"49 529 OFFCURVE",
"29 415 OFFCURVE",
"10 324 CURVE"
);
},
{
closed = 1;
nodes = (
"395 324 LINE",
"428 398 OFFCURVE",
"463 526 OFFCURVE",
"481 598 CURVE",
"474 609 LINE",
"307 609 LINE",
"298 529 OFFCURVE",
"278 415 OFFCURVE",
"259 324 CURVE"
);
}
);
width = 496;
},
{
layerId = master03;
paths = (
{
closed = 1;
nodes = (
"43 365 LINE",
"68 437 OFFCURVE",
"85 506 OFFCURVE",
"99 573 CURVE",
"98 584 LINE",
"69 584 LINE",
"62 512 OFFCURVE",
"47 448 OFFCURVE",
"25 365 CURVE"
);
},
{
closed = 1;
nodes = (
"151 365 LINE",
"176 437 OFFCURVE",
"193 506 OFFCURVE",
"207 573 CURVE",
"206 584 LINE",
"177 584 LINE",
"170 512 OFFCURVE",
"155 448 OFFCURVE",
"133 365 CURVE"
);
}
);
width = 243;
},
{
layerId = master04;
paths = (
{
closed = 1;
nodes = (
"159 324 LINE",
"188 397 OFFCURVE",
"209 488 OFFCURVE",
"224 598 CURVE",
"219 609 LINE",
"61 609 LINE",
"58 542 OFFCURVE",
"37 394 OFFCURVE",
"25 324 CURVE"
);
},
{
closed = 1;
nodes = (
"388 324 LINE",
"417 397 OFFCURVE",
"439 488 OFFCURVE",
"454 598 CURVE",
"448 609 LINE",
"291 609 LINE",
"284 519 OFFCURVE",
"271 421 OFFCURVE",
"254 324 CURVE"
);
}
);
width = 479;
}
);
unicode = 05F4;
},
{
glyphname = "gershayimaccent-hb";
layers = (
{
anchors = (
{
name = _top;
position = "{119, 528}";
}
);
layerId = master01;
paths = (
{
closed = 1;
nodes = (
"188 650 LINE",
"188 699 OFFCURVE",
"208 727 OFFCURVE",
"268 727 CURVE",
"268 756 LINE",
"192 756 OFFCURVE",
"159 717 OFFCURVE",
"159 650 CURVE"
);
},
{
closed = 1;
nodes = (
"79 650 LINE",
"79 699 OFFCURVE",
"99 727 OFFCURVE",
"159 727 CURVE",
"159 756 LINE",
"83 756 OFFCURVE",
"50 717 OFFCURVE",
"50 650 CURVE"
);
}
);
userData = {
com.schriftgestaltung.Glyphs.originalWidth = 318;
};
width = 0;
},
{
anchors = (
{
name = _top;
position = "{166, 553}";
}
);
layerId = master02;
paths = (
{
closed = 1;
nodes = (
"272 636 LINE",
"272 700 OFFCURVE",
"314 736 OFFCURVE",
"382 736 CURVE",
"382 791 LINE",
"279 791 OFFCURVE",
"216 734 OFFCURVE",
"216 636 CURVE"
);
},
{
closed = 1;
nodes = (
"106 636 LINE",
"106 700 OFFCURVE",
"148 736 OFFCURVE",
"216 736 CURVE",
"216 791 LINE",
"110 791 OFFCURVE",
"50 733 OFFCURVE",
"50 636 CURVE"
);
}
);
userData = {
com.schriftgestaltung.Glyphs.originalWidth = 432;
};
width = 0;
},
{
anchors = (
{
name = _top;
position = "{119, 528}";
}
);
layerId = master03;
paths = (
{
closed = 1;
nodes = (
"188 650 LINE",
"188 699 OFFCURVE",
"208 727 OFFCURVE",
"268 727 CURVE",
"268 756 LINE",
"192 756 OFFCURVE",
"159 717 OFFCURVE",
"159 650 CURVE"
);
},
{
closed = 1;
nodes = (
"79 650 LINE",
"79 699 OFFCURVE",
"99 727 OFFCURVE",
"159 727 CURVE",
"159 756 LINE",
"83 756 OFFCURVE",
"50 717 OFFCURVE",
"50 650 CURVE"
);
}
);
userData = {
com.schriftgestaltung.Glyphs.originalWidth = 318;
};
width = 0;
},
{
anchors = (
{
name = _top;
position = "{172, 553}";
}
);
layerId = master04;
paths = (
{
closed = 1;
nodes = (
"265 636 LINE",
"265 692 OFFCURVE",
"302 724 OFFCURVE",
"362 724 CURVE",
"362 772 LINE",
"271 772 OFFCURVE",
"216 722 OFFCURVE",
"216 636 CURVE"
);
},
{
closed = 1;
nodes = (
"120 636 LINE",
"120 692 OFFCURVE",
"156 724 OFFCURVE",
"216 724 CURVE",
"216 772 LINE",
"123 772 OFFCURVE",
"70 721 OFFCURVE",
"70 636 CURVE"
);
}
);
userData = {
com.schriftgestaltung.Glyphs.originalWidth = 432;
};
width = 0;
}
);
note = "\012uni059E\012";
unicode = 059E;
},
{
glyphname = "gimel-hb";
layers = (
{
anchors = (
{
name = bottom;
position = "{206, 0}";
},
{
name = bottomleft;
position = "{21, 0}";
},
{
name = center;
position = "{112, 316}";
},
{
name = top;
position = "{155, 528}";
},
{
name = topleft;
position = "{66, 528}";
}
);
layerId = master01;
paths = (
{
closed = 1;
nodes = (
"313 7 LINE",
"262 146 LINE",
"262 479 LINE SMOOTH",
"262 548 OFFCURVE",
"224 584 OFFCURVE",
"160 584 CURVE SMOOTH",
"93 584 LINE",
"88 557 LINE",
"155 557 LINE SMOOTH",
"205 557 OFFCURVE",
"230 529 OFFCURVE",
"230 476 CURVE SMOOTH",
"230 184 LINE",
"207 120 OFFCURVE",
"112 27 OFFCURVE",
"28 27 CURVE SMOOTH",
"25 27 LINE",
"25 0 LINE",
"31 0 LINE SMOOTH",
"113 0 OFFCURVE",
"183 59 OFFCURVE",
"233 131 CURVE",
"236 131 LINE",
"284 -5 LINE"
);
}
);
width = 336;
},
{
anchors = (
{
name = bottom;
position = "{201, 0}";
},
{
name = bottomleft;
position = "{2, 0}";
},
{
name = center;
position = "{101, 306}";
},
{
name = top;
position = "{213, 553}";
},
{
name = topleft;
position = "{40, 553}";
}
);
layerId = master02;
paths = (
{
closed = 1;
nodes = (
"414 23 LINE",
"386 186 LINE",
"386 409 LINE SMOOTH",
"386 539 OFFCURVE",
"320 609 OFFCURVE",
"169 609 CURVE SMOOTH",
"80 609 LINE",
"60 450 LINE",
"116 450 LINE SMOOTH",
"175 450 OFFCURVE",
"194 439 OFFCURVE",
"194 390 CURVE SMOOTH",
"194 223 LINE",
"172 197 OFFCURVE",
"125 164 OFFCURVE",
"50 162 CURVE",
"20 162 LINE",
"20 0 LINE",
"50 0 LINE SMOOTH",
"137 0 OFFCURVE",
"166 23 OFFCURVE",
"209 122 CURVE",
"222 122 LINE",
"244 -5 LINE"
);
}
);
width = 437;
},
{
anchors = (
{
name = bottom;
position = "{150, 0}";
},
{
name = bottomleft;
position = "{31, 0}";
},
{
name = center;
position = "{72, 296}";
},
{
name = top;
position = "{132, 528}";
},
{
name = topleft;
position = "{70, 528}";
}
);
layerId = master03;
paths = (
{
closed = 1;
nodes = (
"237 7 LINE",
"196 144 LINE",
"196 479 LINE SMOOTH",
"196 548 OFFCURVE",
"168 584 OFFCURVE",
"104 584 CURVE SMOOTH",
"75 584 LINE",
"70 557 LINE",
"99 557 LINE SMOOTH",
"149 557 OFFCURVE",
"164 529 OFFCURVE",
"164 476 CURVE SMOOTH",
"164 168 LINE",
"147 130 OFFCURVE",
"97 27 OFFCURVE",
"30 27 CURVE SMOOTH",
"19 27 LINE",
"19 0 LINE",
"30 0 LINE SMOOTH",
"115 0 OFFCURVE",
"157 101 OFFCURVE",
"168 119 CURVE",
"171 119 LINE",
"208 -5 LINE"
);
}
);
width = 261;
},
{
anchors = (
{
name = bottom;
position = "{174, 3}";
},
{
name = bottomleft;
position = "{36, 0}";
},
{
name = center;
position = "{79, 306}";
},
{
name = top;
position = "{203, 553}";
},
{
name = topleft;
position = "{74, 553}";
}
);
layerId = master04;
paths = (
{
closed = 1;
nodes = (
"380 23 LINE",
"353 186 LINE",
"353 409 LINE SMOOTH",
"353 539 OFFCURVE",
"307 609 OFFCURVE",
"156 609 CURVE SMOOTH",
"75 609 LINE",
"55 450 LINE",
"103 450 LINE SMOOTH",
"152 450 OFFCURVE",
"161 439 OFFCURVE",
"161 390 CURVE SMOOTH",
"161 213 LINE",
"139 187 OFFCURVE",
"90 164 OFFCURVE",
"25 162 CURVE",
"15 162 LINE",
"15 0 LINE",
"25 0 LINE SMOOTH",
"102 0 OFFCURVE",
"145 13 OFFCURVE",
"178 85 CURVE",
"191 85 LINE",
"210 -5 LINE"
);
}
);
width = 403;
}
);
unicode = 05D2;
},
{
glyphname = "hatafpatah-hb";
layers = (
{
anchors = (
{
name = _bottom;
position = "{163, 0}";
}
);
layerId = master01;
paths = (
{
closed = 1;
nodes = (
"196 -107 LINE",
"196 -82 LINE",
"50 -82 LINE",
"50 -107 LINE"
);
},
{
closed = 1;
nodes = (
"266 -116 OFFCURVE",
"276 -106 OFFCURVE",
"276 -93 CURVE SMOOTH",
"276 -81 OFFCURVE",
"266 -71 OFFCURVE",
"254 -71 CURVE SMOOTH",
"241 -71 OFFCURVE",
"231 -81 OFFCURVE",
"231 -93 CURVE SMOOTH",
"231 -106 OFFCURVE",
"241 -116 OFFCURVE",
"254 -116 CURVE SMOOTH"
);
},
{
closed = 1;
nodes = (
"266 -206 OFFCURVE",
"276 -196 OFFCURVE",
"276 -183 CURVE SMOOTH",
"276 -171 OFFCURVE",
"266 -161 OFFCURVE",
"254 -161 CURVE SMOOTH",
"241 -161 OFFCURVE",
"231 -171 OFFCURVE",
"231 -183 CURVE SMOOTH",
"231 -196 OFFCURVE",
"241 -206 OFFCURVE",
"254 -206 CURVE SMOOTH"
);
}
);
userData = {
com.schriftgestaltung.Glyphs.originalWidth = 325;
};
width = 0;
},
{
anchors = (
{
name = _bottom;
position = "{232, 0}";
}
);
layerId = master02;
paths = (
{
closed = 1;
nodes = (
"277 -136 LINE",
"277 -74 LINE",
"55 -74 LINE",
"55 -136 LINE"
);
},
{
closed = 1;
nodes = (
"382 -142 OFFCURVE",
"399 -125 OFFCURVE",
"399 -105 CURVE SMOOTH",
"399 -85 OFFCURVE",
"382 -68 OFFCURVE",
"362 -68 CURVE SMOOTH",
"342 -68 OFFCURVE",
"325 -85 OFFCURVE",
"325 -105 CURVE SMOOTH",
"325 -125 OFFCURVE",
"342 -142 OFFCURVE",
"362 -142 CURVE SMOOTH"
);
},
{
closed = 1;
nodes = (
"382 -247 OFFCURVE",
"399 -230 OFFCURVE",
"399 -210 CURVE SMOOTH",
"399 -190 OFFCURVE",
"382 -173 OFFCURVE",
"362 -173 CURVE SMOOTH",
"342 -173 OFFCURVE",
"325 -190 OFFCURVE",
"325 -210 CURVE SMOOTH",
"325 -230 OFFCURVE",
"342 -247 OFFCURVE",
"362 -247 CURVE SMOOTH"
);
}
);
userData = {
com.schriftgestaltung.Glyphs.originalWidth = 463;
};
width = 0;
},
{
anchors = (
{
name = _bottom;
position = "{143, 0}";
}
);
layerId = master03;
paths = (
{
closed = 1;
nodes = (
"186 -107 LINE",
"186 -82 LINE",
"60 -82 LINE",
"60 -107 LINE"
);
},
{
closed = 1;
nodes = (
"256 -116 OFFCURVE",
"266 -106 OFFCURVE",
"266 -93 CURVE SMOOTH",
"266 -81 OFFCURVE",
"256 -71 OFFCURVE",
"244 -71 CURVE SMOOTH",
"231 -71 OFFCURVE",
"221 -81 OFFCURVE",
"221 -93 CURVE SMOOTH",
"221 -106 OFFCURVE",
"231 -116 OFFCURVE",
"244 -116 CURVE SMOOTH"
);
},
{
closed = 1;
nodes = (
"256 -206 OFFCURVE",
"266 -196 OFFCURVE",
"266 -183 CURVE SMOOTH",
"266 -171 OFFCURVE",
"256 -161 OFFCURVE",
"244 -161 CURVE SMOOTH",
"231 -161 OFFCURVE",
"221 -171 OFFCURVE",
"221 -183 CURVE SMOOTH",
"221 -196 OFFCURVE",
"231 -206 OFFCURVE",
"244 -206 CURVE SMOOTH"
);
}
);
userData = {
com.schriftgestaltung.Glyphs.originalWidth = 285;
};
width = 0;
},
{
anchors = (
{
name = _bottom;
position = "{232, 0}";
}
);
layerId = master04;
paths = (
{
closed = 1;
nodes = (
"267 -136 LINE",
"267 -74 LINE",
"65 -74 LINE",
"65 -136 LINE"
);
},
{
closed = 1;
nodes = (
"372 -142 OFFCURVE",
"389 -125 OFFCURVE",
"389 -105 CURVE SMOOTH",
"389 -85 OFFCURVE",
"372 -68 OFFCURVE",
"352 -68 CURVE SMOOTH",
"332 -68 OFFCURVE",
"315 -85 OFFCURVE",
"315 -105 CURVE SMOOTH",
"315 -125 OFFCURVE",
"332 -142 OFFCURVE",
"352 -142 CURVE SMOOTH"
);
},
{
closed = 1;
nodes = (
"372 -247 OFFCURVE",
"389 -230 OFFCURVE",
"389 -210 CURVE SMOOTH",
"389 -190 OFFCURVE",
"372 -173 OFFCURVE",
"352 -173 CURVE SMOOTH",
"332 -173 OFFCURVE",
"315 -190 OFFCURVE",
"315 -210 CURVE SMOOTH",
"315 -230 OFFCURVE",
"332 -247 OFFCURVE",
"352 -247 CURVE SMOOTH"
);
}
);
userData = {
com.schriftgestaltung.Glyphs.originalWidth = 463;
};
width = 0;
}
);
note = "\012hatafpatah\012";
unicode = 05B2;
},
{
glyphname = "hatafpatah_zerowidthjoiner_siluqleft-hb";
layers = (
{
anchors = (
{
name = _bottom;
position = "{193, 0}";
}
);
layerId = master01;
paths = (
{
closed = 1;
nodes = (
"196 -107 LINE",
"196 -82 LINE",
"50 -82 LINE",
"50 -107 LINE"
);
},
{
closed = 1;
nodes = (
"256 -211 LINE",
"256 -66 LINE",
"231 -66 LINE",
"231 -211 LINE"
);
},
{
closed = 1;
nodes = (
"326 -116 OFFCURVE",
"336 -106 OFFCURVE",
"336 -93 CURVE SMOOTH",
"336 -81 OFFCURVE",
"326 -71 OFFCURVE",
"314 -71 CURVE SMOOTH",
"301 -71 OFFCURVE",
"291 -81 OFFCURVE",
"291 -93 CURVE SMOOTH",
"291 -106 OFFCURVE",
"301 -116 OFFCURVE",
"314 -116 CURVE SMOOTH"
);
},
{
closed = 1;
nodes = (
"326 -206 OFFCURVE",
"336 -196 OFFCURVE",
"336 -183 CURVE SMOOTH",
"336 -171 OFFCURVE",
"326 -161 OFFCURVE",
"314 -161 CURVE SMOOTH",
"301 -161 OFFCURVE",
"291 -171 OFFCURVE",
"291 -183 CURVE SMOOTH",
"291 -196 OFFCURVE",
"301 -206 OFFCURVE",
"314 -206 CURVE SMOOTH"
);
}
);
userData = {
com.schriftgestaltung.Glyphs.originalWidth = 385;
};
width = 0;
},
{
anchors = (
{
name = _bottom;
position = "{283, 0}";
}
);
layerId = master02;
paths = (
{
closed = 1;
nodes = (
"277 -136 LINE",
"277 -74 LINE",
"55 -74 LINE",
"55 -136 LINE"
);
},
{
closed = 1;
nodes = (
"378 -247 LINE",
"378 -74 LINE",
"317 -74 LINE",
"317 -247 LINE"
);
},
{
closed = 1;
nodes = (
"484 -142 OFFCURVE",
"501 -125 OFFCURVE",
"501 -105 CURVE SMOOTH",
"501 -85 OFFCURVE",
"484 -68 OFFCURVE",
"464 -68 CURVE SMOOTH",
"444 -68 OFFCURVE",
"427 -85 OFFCURVE",
"427 -105 CURVE SMOOTH",
"427 -125 OFFCURVE",
"444 -142 OFFCURVE",
"464 -142 CURVE SMOOTH"
);
},
{
closed = 1;
nodes = (
"484 -247 OFFCURVE",
"501 -230 OFFCURVE",
"501 -210 CURVE SMOOTH",
"501 -190 OFFCURVE",
"484 -173 OFFCURVE",
"464 -173 CURVE SMOOTH",
"444 -173 OFFCURVE",
"427 -190 OFFCURVE",
"427 -210 CURVE SMOOTH",
"427 -230 OFFCURVE",
"444 -247 OFFCURVE",
"464 -247 CURVE SMOOTH"
);
}
);
userData = {
com.schriftgestaltung.Glyphs.originalWidth = 565;
};
width = 0;
},
{
anchors = (
{
name = _bottom;
position = "{168, 0}";
}
);
layerId = master03;
paths = (
{
closed = 1;
nodes = (
"186 -107 LINE",
"186 -82 LINE",
"60 -82 LINE",
"60 -107 LINE"
);
},
{
closed = 1;
nodes = (
"246 -211 LINE",
"246 -66 LINE",
"221 -66 LINE",
"221 -211 LINE"
);
},
{
closed = 1;
nodes = (
"316 -116 OFFCURVE",
"326 -106 OFFCURVE",
"326 -93 CURVE SMOOTH",
"326 -81 OFFCURVE",
"316 -71 OFFCURVE",
"304 -71 CURVE SMOOTH",
"291 -71 OFFCURVE",
"281 -81 OFFCURVE",
"281 -93 CURVE SMOOTH",
"281 -106 OFFCURVE",
"291 -116 OFFCURVE",
"304 -116 CURVE SMOOTH"
);
},
{
closed = 1;
nodes = (
"316 -206 OFFCURVE",
"326 -196 OFFCURVE",
"326 -183 CURVE SMOOTH",
"326 -171 OFFCURVE",
"316 -161 OFFCURVE",
"304 -161 CURVE SMOOTH",
"291 -161 OFFCURVE",
"281 -171 OFFCURVE",
"281 -183 CURVE SMOOTH",
"281 -196 OFFCURVE",
"291 -206 OFFCURVE",
"304 -206 CURVE SMOOTH"
);
}
);
userData = {
com.schriftgestaltung.Glyphs.originalWidth = 335;
};
width = 0;
},
{
anchors = (
{
name = _bottom;
position = "{283, 0}";
}
);
layerId = master04;
paths = (
{
closed = 1;
nodes = (
"267 -136 LINE",
"267 -74 LINE",
"65 -74 LINE",
"65 -136 LINE"
);
},
{
closed = 1;
nodes = (
"368 -247 LINE",
"368 -74 LINE",
"307 -74 LINE",
"307 -247 LINE"
);
},
{
closed = 1;
nodes = (
"474 -142 OFFCURVE",
"491 -125 OFFCURVE",
"491 -105 CURVE SMOOTH",
"491 -85 OFFCURVE",
"474 -68 OFFCURVE",
"454 -68 CURVE SMOOTH",
"434 -68 OFFCURVE",
"417 -85 OFFCURVE",
"417 -105 CURVE SMOOTH",
"417 -125 OFFCURVE",
"434 -142 OFFCURVE",
"454 -142 CURVE SMOOTH"
);
},
{
closed = 1;
nodes = (
"474 -247 OFFCURVE",
"491 -230 OFFCURVE",
"491 -210 CURVE SMOOTH",
"491 -190 OFFCURVE",
"474 -173 OFFCURVE",
"454 -173 CURVE SMOOTH",
"434 -173 OFFCURVE",
"417 -190 OFFCURVE",
"417 -210 CURVE SMOOTH",
"417 -230 OFFCURVE",
"434 -247 OFFCURVE",
"454 -247 CURVE SMOOTH"
);
}
);
userData = {
com.schriftgestaltung.Glyphs.originalWidth = 565;
};
width = 0;
}
);
},
{
glyphname = "hatafqamats-hb";
layers = (
{
anchors = (
{
name = _bottom;
position = "{163, 0}";
}
);
layerId = master01;
paths = (
{
closed = 1;
nodes = (
"136 -196 LINE",
"136 -106 LINE",
"198 -106 LINE",
"198 -81 LINE",
"50 -81 LINE",
"50 -106 LINE",
"111 -106 LINE",
"111 -196 LINE"
);
},
{
closed = 1;
nodes = (
"267 -116 OFFCURVE",
"277 -106 OFFCURVE",
"277 -93 CURVE SMOOTH",
"277 -81 OFFCURVE",
"267 -71 OFFCURVE",
"255 -71 CURVE SMOOTH",
"242 -71 OFFCURVE",
"232 -81 OFFCURVE",
"232 -93 CURVE SMOOTH",
"232 -106 OFFCURVE",
"242 -116 OFFCURVE",
"255 -116 CURVE SMOOTH"
);
},
{
closed = 1;
nodes = (
"267 -206 OFFCURVE",
"277 -196 OFFCURVE",
"277 -183 CURVE SMOOTH",
"277 -171 OFFCURVE",
"267 -161 OFFCURVE",
"255 -161 CURVE SMOOTH",
"242 -161 OFFCURVE",
"232 -171 OFFCURVE",
"232 -183 CURVE SMOOTH",
"232 -196 OFFCURVE",
"242 -206 OFFCURVE",
"255 -206 CURVE SMOOTH"
);
}
);
userData = {
com.schriftgestaltung.Glyphs.originalWidth = 326;
};
width = 0;
},
{
anchors = (
{
name = _bottom;
position = "{232, 0}";
}
);
layerId = master02;
paths = (
{
closed = 1;
nodes = (
"196 -240 LINE",
"196 -136 LINE",
"277 -136 LINE",
"277 -74 LINE",
"55 -74 LINE",
"55 -136 LINE",
"135 -136 LINE",
"135 -240 LINE"
);
},
{
closed = 1;
nodes = (
"382 -142 OFFCURVE",
"399 -125 OFFCURVE",
"399 -105 CURVE SMOOTH",
"399 -85 OFFCURVE",
"382 -68 OFFCURVE",
"362 -68 CURVE SMOOTH",
"342 -68 OFFCURVE",
"325 -85 OFFCURVE",
"325 -105 CURVE SMOOTH",
"325 -125 OFFCURVE",
"342 -142 OFFCURVE",
"362 -142 CURVE SMOOTH"
);
},
{
closed = 1;
nodes = (
"382 -247 OFFCURVE",
"399 -230 OFFCURVE",
"399 -210 CURVE SMOOTH",
"399 -190 OFFCURVE",
"382 -173 OFFCURVE",
"362 -173 CURVE SMOOTH",
"342 -173 OFFCURVE",
"325 -190 OFFCURVE",
"325 -210 CURVE SMOOTH",
"325 -230 OFFCURVE",
"342 -247 OFFCURVE",
"362 -247 CURVE SMOOTH"
);
}
);
userData = {
com.schriftgestaltung.Glyphs.originalWidth = 463;
};
width = 0;
},
{
anchors = (
{
name = _bottom;
position = "{138, 0}";
}
);
layerId = master03;
paths = (
{
closed = 1;
nodes = (
"106 -196 LINE",
"106 -106 LINE",
"158 -106 LINE",
"158 -81 LINE",
"30 -81 LINE",
"30 -106 LINE",
"81 -106 LINE",
"81 -196 LINE"
);
},
{
closed = 1;
nodes = (
"227 -116 OFFCURVE",
"237 -106 OFFCURVE",
"237 -93 CURVE SMOOTH",
"237 -81 OFFCURVE",
"227 -71 OFFCURVE",
"215 -71 CURVE SMOOTH",
"202 -71 OFFCURVE",
"192 -81 OFFCURVE",
"192 -93 CURVE SMOOTH",
"192 -106 OFFCURVE",
"202 -116 OFFCURVE",
"215 -116 CURVE SMOOTH"
);
},
{
closed = 1;
nodes = (
"227 -206 OFFCURVE",
"237 -196 OFFCURVE",
"237 -183 CURVE SMOOTH",
"237 -171 OFFCURVE",
"227 -161 OFFCURVE",
"215 -161 CURVE SMOOTH",
"202 -161 OFFCURVE",
"192 -171 OFFCURVE",
"192 -183 CURVE SMOOTH",
"192 -196 OFFCURVE",
"202 -206 OFFCURVE",
"215 -206 CURVE SMOOTH"
);
}
);
userData = {
com.schriftgestaltung.Glyphs.originalWidth = 276;
};
width = 0;
},
{
anchors = (
{
name = _bottom;
position = "{232, 0}";
}
);
layerId = master04;
paths = (
{
closed = 1;
nodes = (
"196 -240 LINE",
"196 -136 LINE",
"267 -136 LINE",
"267 -74 LINE",
"65 -74 LINE",
"65 -136 LINE",
"135 -136 LINE",
"135 -240 LINE"
);
},
{
closed = 1;
nodes = (
"372 -142 OFFCURVE",
"389 -125 OFFCURVE",
"389 -105 CURVE SMOOTH",
"389 -85 OFFCURVE",
"372 -68 OFFCURVE",
"352 -68 CURVE SMOOTH",
"332 -68 OFFCURVE",
"315 -85 OFFCURVE",
"315 -105 CURVE SMOOTH",
"315 -125 OFFCURVE",
"332 -142 OFFCURVE",
"352 -142 CURVE SMOOTH"
);
},
{
closed = 1;
nodes = (
"372 -247 OFFCURVE",
"389 -230 OFFCURVE",
"389 -210 CURVE SMOOTH",
"389 -190 OFFCURVE",
"372 -173 OFFCURVE",
"352 -173 CURVE SMOOTH",
"332 -173 OFFCURVE",
"315 -190 OFFCURVE",
"315 -210 CURVE SMOOTH",
"315 -230 OFFCURVE",
"332 -247 OFFCURVE",
"352 -247 CURVE SMOOTH"
);
}
);
userData = {
com.schriftgestaltung.Glyphs.originalWidth = 463;
};
width = 0;
}
);
note = "\012hatafqamats\012";
unicode = 05B3;
},
{
glyphname = "hatafqamats_zerowidthjoiner_siluqleft-hb";
layers = (
{
anchors = (
{
name = _bottom;
position = "{197, 0}";
}
);
layerId = master01;
paths = (
{
closed = 1;
nodes = (
"139 -196 LINE",
"139 -106 LINE",
"201 -106 LINE",
"201 -81 LINE",
"53 -81 LINE",
"53 -106 LINE",
"114 -106 LINE",
"114 -196 LINE"
);
},
{
closed = 1;
nodes = (
"261 -211 LINE",
"261 -66 LINE",
"236 -66 LINE",
"236 -211 LINE"
);
},
{
closed = 1;
nodes = (
"330 -116 OFFCURVE",
"340 -106 OFFCURVE",
"340 -93 CURVE SMOOTH",
"340 -81 OFFCURVE",
"330 -71 OFFCURVE",
"318 -71 CURVE SMOOTH",
"305 -71 OFFCURVE",
"295 -81 OFFCURVE",
"295 -93 CURVE SMOOTH",
"295 -106 OFFCURVE",
"305 -116 OFFCURVE",
"318 -116 CURVE SMOOTH"
);
},
{
closed = 1;
nodes = (
"330 -206 OFFCURVE",
"340 -196 OFFCURVE",
"340 -183 CURVE SMOOTH",
"340 -171 OFFCURVE",
"330 -161 OFFCURVE",
"318 -161 CURVE SMOOTH",
"305 -161 OFFCURVE",
"295 -171 OFFCURVE",
"295 -183 CURVE SMOOTH",
"295 -196 OFFCURVE",
"305 -206 OFFCURVE",
"318 -206 CURVE SMOOTH"
);
}
);
userData = {
com.schriftgestaltung.Glyphs.originalWidth = 393;
};
width = 0;
},
{
anchors = (
{
name = _bottom;
position = "{283, 0}";
}
);
layerId = master02;
paths = (
{
closed = 1;
nodes = (
"196 -240 LINE",
"196 -136 LINE",
"277 -136 LINE",
"277 -74 LINE",
"55 -74 LINE",
"55 -136 LINE",
"135 -136 LINE",
"135 -240 LINE"
);
},
{
closed = 1;
nodes = (
"378 -247 LINE",
"378 -74 LINE",
"317 -74 LINE",
"317 -247 LINE"
);
},
{
closed = 1;
nodes = (
"484 -142 OFFCURVE",
"501 -125 OFFCURVE",
"501 -105 CURVE SMOOTH",
"501 -85 OFFCURVE",
"484 -68 OFFCURVE",
"464 -68 CURVE SMOOTH",
"444 -68 OFFCURVE",
"427 -85 OFFCURVE",
"427 -105 CURVE SMOOTH",
"427 -125 OFFCURVE",
"444 -142 OFFCURVE",
"464 -142 CURVE SMOOTH"
);
},
{
closed = 1;
nodes = (
"484 -247 OFFCURVE",
"501 -230 OFFCURVE",
"501 -210 CURVE SMOOTH",
"501 -190 OFFCURVE",
"484 -173 OFFCURVE",
"464 -173 CURVE SMOOTH",
"444 -173 OFFCURVE",
"427 -190 OFFCURVE",
"427 -210 CURVE SMOOTH",
"427 -230 OFFCURVE",
"444 -247 OFFCURVE",
"464 -247 CURVE SMOOTH"
);
}
);
userData = {
com.schriftgestaltung.Glyphs.originalWidth = 565;
};
width = 0;
},
{
anchors = (
{
name = _bottom;
position = "{164, 0}";
}
);
layerId = master03;
paths = (
{
closed = 1;
nodes = (
"104 -196 LINE",
"104 -106 LINE",
"156 -106 LINE",
"156 -81 LINE",
"28 -81 LINE",
"28 -106 LINE",
"79 -106 LINE",
"79 -196 LINE"
);
},
{
closed = 1;
nodes = (
"216 -211 LINE",
"216 -66 LINE",
"191 -66 LINE",
"191 -211 LINE"
);
},
{
closed = 1;
nodes = (
"285 -116 OFFCURVE",
"295 -106 OFFCURVE",
"295 -93 CURVE SMOOTH",
"295 -81 OFFCURVE",
"285 -71 OFFCURVE",
"273 -71 CURVE SMOOTH",
"260 -71 OFFCURVE",
"250 -81 OFFCURVE",
"250 -93 CURVE SMOOTH",
"250 -106 OFFCURVE",
"260 -116 OFFCURVE",
"273 -116 CURVE SMOOTH"
);
},
{
closed = 1;
nodes = (
"285 -206 OFFCURVE",
"295 -196 OFFCURVE",
"295 -183 CURVE SMOOTH",
"295 -171 OFFCURVE",
"285 -161 OFFCURVE",
"273 -161 CURVE SMOOTH",
"260 -161 OFFCURVE",
"250 -171 OFFCURVE",
"250 -183 CURVE SMOOTH",
"250 -196 OFFCURVE",
"260 -206 OFFCURVE",
"273 -206 CURVE SMOOTH"
);
}
);
userData = {
com.schriftgestaltung.Glyphs.originalWidth = 327;
};
width = 0;
},
{
anchors = (
{
name = _bottom;
position = "{283, 0}";
}
);
layerId = master04;
paths = (
{
closed = 1;
nodes = (
"196 -240 LINE",
"196 -136 LINE",
"267 -136 LINE",
"267 -74 LINE",
"65 -74 LINE",
"65 -136 LINE",
"135 -136 LINE",
"135 -240 LINE"
);
},
{
closed = 1;
nodes = (
"368 -247 LINE",
"368 -74 LINE",
"307 -74 LINE",
"307 -247 LINE"
);
},
{
closed = 1;
nodes = (
"474 -142 OFFCURVE",
"491 -125 OFFCURVE",
"491 -105 CURVE SMOOTH",
"491 -85 OFFCURVE",
"474 -68 OFFCURVE",
"454 -68 CURVE SMOOTH",
"434 -68 OFFCURVE",
"417 -85 OFFCURVE",
"417 -105 CURVE SMOOTH",
"417 -125 OFFCURVE",
"434 -142 OFFCURVE",
"454 -142 CURVE SMOOTH"
);
},
{
closed = 1;
nodes = (
"474 -247 OFFCURVE",
"491 -230 OFFCURVE",
"491 -210 CURVE SMOOTH",
"491 -190 OFFCURVE",
"474 -173 OFFCURVE",
"454 -173 CURVE SMOOTH",
"434 -173 OFFCURVE",
"417 -190 OFFCURVE",
"417 -210 CURVE SMOOTH",
"417 -230 OFFCURVE",
"434 -247 OFFCURVE",
"454 -247 CURVE SMOOTH"
);
}
);
userData = {
com.schriftgestaltung.Glyphs.originalWidth = 565;
};
width = 0;
}
);
},
{
glyphname = "hatafsegol-hb";
layers = (
{
anchors = (
{
name = _bottom;
position = "{160, 0}";
}
);
layerId = master01;
paths = (
{
closed = 1;
nodes = (
"131 -206 OFFCURVE",
"141 -196 OFFCURVE",
"141 -183 CURVE SMOOTH",
"141 -171 OFFCURVE",
"131 -161 OFFCURVE",
"119 -161 CURVE SMOOTH",
"106 -161 OFFCURVE",
"96 -171 OFFCURVE",
"96 -183 CURVE SMOOTH",
"96 -196 OFFCURVE",
"106 -206 OFFCURVE",
"119 -206 CURVE SMOOTH"
);
},
{
closed = 1;
nodes = (
"84 -116 OFFCURVE",
"94 -106 OFFCURVE",
"94 -93 CURVE SMOOTH",
"94 -81 OFFCURVE",
"84 -71 OFFCURVE",
"72 -71 CURVE SMOOTH",
"59 -71 OFFCURVE",
"49 -81 OFFCURVE",
"49 -93 CURVE SMOOTH",
"49 -106 OFFCURVE",
"59 -116 OFFCURVE",
"72 -116 CURVE SMOOTH"
);
},
{
closed = 1;
nodes = (
"180 -116 OFFCURVE",
"190 -106 OFFCURVE",
"190 -93 CURVE SMOOTH",
"190 -81 OFFCURVE",
"180 -71 OFFCURVE",
"168 -71 CURVE SMOOTH",
"155 -71 OFFCURVE",
"145 -81 OFFCURVE",
"145 -93 CURVE SMOOTH",
"145 -106 OFFCURVE",
"155 -116 OFFCURVE",
"168 -116 CURVE SMOOTH"
);
},
{
closed = 1;
nodes = (
"261 -116 OFFCURVE",
"271 -106 OFFCURVE",
"271 -93 CURVE SMOOTH",
"271 -81 OFFCURVE",
"261 -71 OFFCURVE",
"249 -71 CURVE SMOOTH",
"236 -71 OFFCURVE",
"226 -81 OFFCURVE",
"226 -93 CURVE SMOOTH",
"226 -106 OFFCURVE",
"236 -116 OFFCURVE",
"249 -116 CURVE SMOOTH"
);
},
{
closed = 1;
nodes = (
"261 -206 OFFCURVE",
"271 -196 OFFCURVE",
"271 -183 CURVE SMOOTH",
"271 -171 OFFCURVE",
"261 -161 OFFCURVE",
"249 -161 CURVE SMOOTH",
"236 -161 OFFCURVE",
"226 -171 OFFCURVE",
"226 -183 CURVE SMOOTH",
"226 -196 OFFCURVE",
"236 -206 OFFCURVE",
"249 -206 CURVE SMOOTH"
);
}
);
userData = {
com.schriftgestaltung.Glyphs.originalWidth = 320;
};
width = 0;
},
{
anchors = (
{
name = _bottom;
position = "{231, 0}";
}
);
layerId = master02;
paths = (
{
closed = 1;
nodes = (
"185 -247 OFFCURVE",
"202 -230 OFFCURVE",
"202 -210 CURVE SMOOTH",
"202 -190 OFFCURVE",
"185 -173 OFFCURVE",
"165 -173 CURVE SMOOTH",
"145 -173 OFFCURVE",
"128 -190 OFFCURVE",
"128 -210 CURVE SMOOTH",
"128 -230 OFFCURVE",
"145 -247 OFFCURVE",
"165 -247 CURVE SMOOTH"
);
},
{
closed = 1;
nodes = (
"121 -142 OFFCURVE",
"138 -125 OFFCURVE",
"138 -105 CURVE SMOOTH",
"138 -85 OFFCURVE",
"121 -68 OFFCURVE",
"101 -68 CURVE SMOOTH",
"81 -68 OFFCURVE",
"64 -85 OFFCURVE",
"64 -105 CURVE SMOOTH",
"64 -125 OFFCURVE",
"81 -142 OFFCURVE",
"101 -142 CURVE SMOOTH"
);
},
{
closed = 1;
nodes = (
"250 -142 OFFCURVE",
"267 -125 OFFCURVE",
"267 -105 CURVE SMOOTH",
"267 -85 OFFCURVE",
"250 -68 OFFCURVE",
"230 -68 CURVE SMOOTH",
"210 -68 OFFCURVE",
"193 -85 OFFCURVE",
"193 -105 CURVE SMOOTH",
"193 -125 OFFCURVE",
"210 -142 OFFCURVE",
"230 -142 CURVE SMOOTH"
);
},
{
closed = 1;
nodes = (
"381 -142 OFFCURVE",
"398 -125 OFFCURVE",
"398 -105 CURVE SMOOTH",
"398 -85 OFFCURVE",
"381 -68 OFFCURVE",
"361 -68 CURVE SMOOTH",
"341 -68 OFFCURVE",
"324 -85 OFFCURVE",
"324 -105 CURVE SMOOTH",
"324 -125 OFFCURVE",
"341 -142 OFFCURVE",
"361 -142 CURVE SMOOTH"
);
},
{
closed = 1;
nodes = (
"381 -247 OFFCURVE",
"398 -230 OFFCURVE",
"398 -210 CURVE SMOOTH",
"398 -190 OFFCURVE",
"381 -173 OFFCURVE",
"361 -173 CURVE SMOOTH",
"341 -173 OFFCURVE",
"324 -190 OFFCURVE",
"324 -210 CURVE SMOOTH",
"324 -230 OFFCURVE",
"341 -247 OFFCURVE",
"361 -247 CURVE SMOOTH"
);
}
);
userData = {
com.schriftgestaltung.Glyphs.originalWidth = 462;
};
width = 0;
},
{
anchors = (
{
name = _bottom;
position = "{145, 0}";
}
);
layerId = master03;
paths = (
{
closed = 1;
nodes = (
"131 -206 OFFCURVE",
"141 -196 OFFCURVE",
"141 -183 CURVE SMOOTH",
"141 -171 OFFCURVE",
"131 -161 OFFCURVE",
"119 -161 CURVE SMOOTH",
"106 -161 OFFCURVE",
"96 -171 OFFCURVE",
"96 -183 CURVE SMOOTH",
"96 -196 OFFCURVE",
"106 -206 OFFCURVE",
"119 -206 CURVE SMOOTH"
);
},
{
closed = 1;
nodes = (
"84 -116 OFFCURVE",
"94 -106 OFFCURVE",
"94 -93 CURVE SMOOTH",
"94 -81 OFFCURVE",
"84 -71 OFFCURVE",
"72 -71 CURVE SMOOTH",
"59 -71 OFFCURVE",
"49 -81 OFFCURVE",
"49 -93 CURVE SMOOTH",
"49 -106 OFFCURVE",
"59 -116 OFFCURVE",
"72 -116 CURVE SMOOTH"
);
},
{
closed = 1;
nodes = (
"180 -116 OFFCURVE",
"190 -106 OFFCURVE",
"190 -93 CURVE SMOOTH",
"190 -81 OFFCURVE",
"180 -71 OFFCURVE",
"168 -71 CURVE SMOOTH",
"155 -71 OFFCURVE",
"145 -81 OFFCURVE",
"145 -93 CURVE SMOOTH",
"145 -106 OFFCURVE",
"155 -116 OFFCURVE",
"168 -116 CURVE SMOOTH"
);
},
{
closed = 1;
nodes = (
"261 -116 OFFCURVE",
"271 -106 OFFCURVE",
"271 -93 CURVE SMOOTH",
"271 -81 OFFCURVE",
"261 -71 OFFCURVE",
"249 -71 CURVE SMOOTH",
"236 -71 OFFCURVE",
"226 -81 OFFCURVE",
"226 -93 CURVE SMOOTH",
"226 -106 OFFCURVE",
"236 -116 OFFCURVE",
"249 -116 CURVE SMOOTH"
);
},
{
closed = 1;
nodes = (
"261 -206 OFFCURVE",
"271 -196 OFFCURVE",
"271 -183 CURVE SMOOTH",
"271 -171 OFFCURVE",
"261 -161 OFFCURVE",
"249 -161 CURVE SMOOTH",
"236 -161 OFFCURVE",
"226 -171 OFFCURVE",
"226 -183 CURVE SMOOTH",
"226 -196 OFFCURVE",
"236 -206 OFFCURVE",
"249 -206 CURVE SMOOTH"
);
}
);
userData = {
com.schriftgestaltung.Glyphs.originalWidth = 290;
};
width = 0;
},
{
anchors = (
{
name = _bottom;
position = "{231, 0}";
}
);
layerId = master04;
paths = (
{
closed = 1;
nodes = (
"185 -247 OFFCURVE",
"202 -230 OFFCURVE",
"202 -210 CURVE SMOOTH",
"202 -190 OFFCURVE",
"185 -173 OFFCURVE",
"165 -173 CURVE SMOOTH",
"145 -173 OFFCURVE",
"128 -190 OFFCURVE",
"128 -210 CURVE SMOOTH",
"128 -230 OFFCURVE",
"145 -247 OFFCURVE",
"165 -247 CURVE SMOOTH"
);
},
{
closed = 1;
nodes = (
"121 -142 OFFCURVE",
"138 -125 OFFCURVE",
"138 -105 CURVE SMOOTH",
"138 -85 OFFCURVE",
"121 -68 OFFCURVE",
"101 -68 CURVE SMOOTH",
"81 -68 OFFCURVE",
"64 -85 OFFCURVE",
"64 -105 CURVE SMOOTH",
"64 -125 OFFCURVE",
"81 -142 OFFCURVE",
"101 -142 CURVE SMOOTH"
);
},
{
closed = 1;
nodes = (
"250 -142 OFFCURVE",
"267 -125 OFFCURVE",
"267 -105 CURVE SMOOTH",
"267 -85 OFFCURVE",
"250 -68 OFFCURVE",
"230 -68 CURVE SMOOTH",
"210 -68 OFFCURVE",
"193 -85 OFFCURVE",
"193 -105 CURVE SMOOTH",
"193 -125 OFFCURVE",
"210 -142 OFFCURVE",
"230 -142 CURVE SMOOTH"
);
},
{
closed = 1;
nodes = (
"381 -142 OFFCURVE",
"398 -125 OFFCURVE",
"398 -105 CURVE SMOOTH",
"398 -85 OFFCURVE",
"381 -68 OFFCURVE",
"361 -68 CURVE SMOOTH",
"341 -68 OFFCURVE",
"324 -85 OFFCURVE",
"324 -105 CURVE SMOOTH",
"324 -125 OFFCURVE",
"341 -142 OFFCURVE",
"361 -142 CURVE SMOOTH"
);
},
{
closed = 1;
nodes = (
"381 -247 OFFCURVE",
"398 -230 OFFCURVE",
"398 -210 CURVE SMOOTH",
"398 -190 OFFCURVE",
"381 -173 OFFCURVE",
"361 -173 CURVE SMOOTH",
"341 -173 OFFCURVE",
"324 -190 OFFCURVE",
"324 -210 CURVE SMOOTH",
"324 -230 OFFCURVE",
"341 -247 OFFCURVE",
"361 -247 CURVE SMOOTH"
);
}
);
userData = {
com.schriftgestaltung.Glyphs.originalWidth = 462;
};
width = 0;
}
);
note = "\012hatafsegol\012";
unicode = 05B1;
},
{
glyphname = "hatafsegol_zerowidthjoiner_siluqleft-hb";
layers = (
{
anchors = (
{
name = _bottom;
position = "{192, 0}";
}
);
layerId = master01;
paths = (
{
closed = 1;
nodes = (
"252 -211 LINE",
"252 -66 LINE",
"227 -66 LINE",
"227 -211 LINE"
);
},
{
closed = 1;
nodes = (
"87 -116 OFFCURVE",
"97 -106 OFFCURVE",
"97 -93 CURVE SMOOTH",
"97 -81 OFFCURVE",
"87 -71 OFFCURVE",
"75 -71 CURVE SMOOTH",
"62 -71 OFFCURVE",
"52 -81 OFFCURVE",
"52 -93 CURVE SMOOTH",
"52 -106 OFFCURVE",
"62 -116 OFFCURVE",
"75 -116 CURVE SMOOTH"
);
},
{
closed = 1;
nodes = (
"183 -116 OFFCURVE",
"193 -106 OFFCURVE",
"193 -93 CURVE SMOOTH",
"193 -81 OFFCURVE",
"183 -71 OFFCURVE",
"171 -71 CURVE SMOOTH",
"158 -71 OFFCURVE",
"148 -81 OFFCURVE",
"148 -93 CURVE SMOOTH",
"148 -106 OFFCURVE",
"158 -116 OFFCURVE",
"171 -116 CURVE SMOOTH"
);
},
{
closed = 1;
nodes = (
"134 -206 OFFCURVE",
"144 -196 OFFCURVE",
"144 -183 CURVE SMOOTH",
"144 -171 OFFCURVE",
"134 -161 OFFCURVE",
"122 -161 CURVE SMOOTH",
"109 -161 OFFCURVE",
"99 -171 OFFCURVE",
"99 -183 CURVE SMOOTH",
"99 -196 OFFCURVE",
"109 -206 OFFCURVE",
"122 -206 CURVE SMOOTH"
);
},
{
closed = 1;
nodes = (
"322 -116 OFFCURVE",
"332 -106 OFFCURVE",
"332 -93 CURVE SMOOTH",
"332 -81 OFFCURVE",
"322 -71 OFFCURVE",
"310 -71 CURVE SMOOTH",
"297 -71 OFFCURVE",
"287 -81 OFFCURVE",
"287 -93 CURVE SMOOTH",
"287 -106 OFFCURVE",
"297 -116 OFFCURVE",
"310 -116 CURVE SMOOTH"
);
},
{
closed = 1;
nodes = (
"322 -206 OFFCURVE",
"332 -196 OFFCURVE",
"332 -183 CURVE SMOOTH",
"332 -171 OFFCURVE",
"322 -161 OFFCURVE",
"310 -161 CURVE SMOOTH",
"297 -161 OFFCURVE",
"287 -171 OFFCURVE",
"287 -183 CURVE SMOOTH",
"287 -196 OFFCURVE",
"297 -206 OFFCURVE",
"310 -206 CURVE SMOOTH"
);
}
);
userData = {
com.schriftgestaltung.Glyphs.originalWidth = 384;
};
width = 0;
},
{
anchors = (
{
name = _bottom;
position = "{289, 0}";
}
);
layerId = master02;
paths = (
{
closed = 1;
nodes = (
"390 -247 LINE",
"390 -74 LINE",
"329 -74 LINE",
"329 -247 LINE"
);
},
{
closed = 1;
nodes = (
"496 -142 OFFCURVE",
"513 -125 OFFCURVE",
"513 -105 CURVE SMOOTH",
"513 -85 OFFCURVE",
"496 -68 OFFCURVE",
"476 -68 CURVE SMOOTH",
"456 -68 OFFCURVE",
"439 -85 OFFCURVE",
"439 -105 CURVE SMOOTH",
"439 -125 OFFCURVE",
"456 -142 OFFCURVE",
"476 -142 CURVE SMOOTH"
);
},
{
closed = 1;
nodes = (
"496 -247 OFFCURVE",
"513 -230 OFFCURVE",
"513 -210 CURVE SMOOTH",
"513 -190 OFFCURVE",
"496 -173 OFFCURVE",
"476 -173 CURVE SMOOTH",
"456 -173 OFFCURVE",
"439 -190 OFFCURVE",
"439 -210 CURVE SMOOTH",
"439 -230 OFFCURVE",
"456 -247 OFFCURVE",
"476 -247 CURVE SMOOTH"
);
},
{
closed = 1;
nodes = (
"134 -142 OFFCURVE",
"151 -125 OFFCURVE",
"151 -105 CURVE SMOOTH",
"151 -85 OFFCURVE",
"134 -68 OFFCURVE",
"114 -68 CURVE SMOOTH",
"94 -68 OFFCURVE",
"77 -85 OFFCURVE",
"77 -105 CURVE SMOOTH",
"77 -125 OFFCURVE",
"94 -142 OFFCURVE",
"114 -142 CURVE SMOOTH"
);
},
{
closed = 1;
nodes = (
"263 -142 OFFCURVE",
"280 -125 OFFCURVE",
"280 -105 CURVE SMOOTH",
"280 -85 OFFCURVE",
"263 -68 OFFCURVE",
"243 -68 CURVE SMOOTH",
"223 -68 OFFCURVE",
"206 -85 OFFCURVE",
"206 -105 CURVE SMOOTH",
"206 -125 OFFCURVE",
"223 -142 OFFCURVE",
"243 -142 CURVE SMOOTH"
);
},
{
closed = 1;
nodes = (
"198 -247 OFFCURVE",
"215 -230 OFFCURVE",
"215 -210 CURVE SMOOTH",
"215 -190 OFFCURVE",
"198 -173 OFFCURVE",
"178 -173 CURVE SMOOTH",
"158 -173 OFFCURVE",
"141 -190 OFFCURVE",
"141 -210 CURVE SMOOTH",
"141 -230 OFFCURVE",
"158 -247 OFFCURVE",
"178 -247 CURVE SMOOTH"
);
}
);
userData = {
com.schriftgestaltung.Glyphs.originalWidth = 577;
};
width = 0;
},
{
anchors = (
{
name = _bottom;
position = "{169, 0}";
}
);
layerId = master03;
paths = (
{
closed = 1;
nodes = (
"252 -211 LINE",
"252 -66 LINE",
"227 -66 LINE",
"227 -211 LINE"
);
},
{
closed = 1;
nodes = (
"87 -116 OFFCURVE",
"97 -106 OFFCURVE",
"97 -93 CURVE SMOOTH",
"97 -81 OFFCURVE",
"87 -71 OFFCURVE",
"75 -71 CURVE SMOOTH",
"62 -71 OFFCURVE",
"52 -81 OFFCURVE",
"52 -93 CURVE SMOOTH",
"52 -106 OFFCURVE",
"62 -116 OFFCURVE",
"75 -116 CURVE SMOOTH"
);
},
{
closed = 1;
nodes = (
"183 -116 OFFCURVE",
"193 -106 OFFCURVE",
"193 -93 CURVE SMOOTH",
"193 -81 OFFCURVE",
"183 -71 OFFCURVE",
"171 -71 CURVE SMOOTH",
"158 -71 OFFCURVE",
"148 -81 OFFCURVE",
"148 -93 CURVE SMOOTH",
"148 -106 OFFCURVE",
"158 -116 OFFCURVE",
"171 -116 CURVE SMOOTH"
);
},
{
closed = 1;
nodes = (
"134 -206 OFFCURVE",
"144 -196 OFFCURVE",
"144 -183 CURVE SMOOTH",
"144 -171 OFFCURVE",
"134 -161 OFFCURVE",
"122 -161 CURVE SMOOTH",
"109 -161 OFFCURVE",
"99 -171 OFFCURVE",
"99 -183 CURVE SMOOTH",
"99 -196 OFFCURVE",
"109 -206 OFFCURVE",
"122 -206 CURVE SMOOTH"
);
},
{
closed = 1;
nodes = (
"322 -116 OFFCURVE",
"332 -106 OFFCURVE",
"332 -93 CURVE SMOOTH",
"332 -81 OFFCURVE",
"322 -71 OFFCURVE",
"310 -71 CURVE SMOOTH",
"297 -71 OFFCURVE",
"287 -81 OFFCURVE",
"287 -93 CURVE SMOOTH",
"287 -106 OFFCURVE",
"297 -116 OFFCURVE",
"310 -116 CURVE SMOOTH"
);
},
{
closed = 1;
nodes = (
"322 -206 OFFCURVE",
"332 -196 OFFCURVE",
"332 -183 CURVE SMOOTH",
"332 -171 OFFCURVE",
"322 -161 OFFCURVE",
"310 -161 CURVE SMOOTH",
"297 -161 OFFCURVE",
"287 -171 OFFCURVE",
"287 -183 CURVE SMOOTH",
"287 -196 OFFCURVE",
"297 -206 OFFCURVE",
"310 -206 CURVE SMOOTH"
);
}
);
userData = {
com.schriftgestaltung.Glyphs.originalWidth = 338;
};
width = 0;
},
{
anchors = (
{
name = _bottom;
position = "{290, 0}";
}
);
layerId = master04;
paths = (
{
closed = 1;
nodes = (
"390 -247 LINE",
"390 -74 LINE",
"329 -74 LINE",
"329 -247 LINE"
);
},
{
closed = 1;
nodes = (
"496 -142 OFFCURVE",
"513 -125 OFFCURVE",
"513 -105 CURVE SMOOTH",
"513 -85 OFFCURVE",
"496 -68 OFFCURVE",
"476 -68 CURVE SMOOTH",
"456 -68 OFFCURVE",
"439 -85 OFFCURVE",
"439 -105 CURVE SMOOTH",
"439 -125 OFFCURVE",
"456 -142 OFFCURVE",
"476 -142 CURVE SMOOTH"
);
},
{
closed = 1;
nodes = (
"496 -247 OFFCURVE",
"513 -230 OFFCURVE",
"513 -210 CURVE SMOOTH",
"513 -190 OFFCURVE",
"496 -173 OFFCURVE",
"476 -173 CURVE SMOOTH",
"456 -173 OFFCURVE",
"439 -190 OFFCURVE",
"439 -210 CURVE SMOOTH",
"439 -230 OFFCURVE",
"456 -247 OFFCURVE",
"476 -247 CURVE SMOOTH"
);
},
{
closed = 1;
nodes = (
"134 -142 OFFCURVE",
"151 -125 OFFCURVE",
"151 -105 CURVE SMOOTH",
"151 -85 OFFCURVE",
"134 -68 OFFCURVE",
"114 -68 CURVE SMOOTH",
"94 -68 OFFCURVE",
"77 -85 OFFCURVE",
"77 -105 CURVE SMOOTH",
"77 -125 OFFCURVE",
"94 -142 OFFCURVE",
"114 -142 CURVE SMOOTH"
);
},
{
closed = 1;
nodes = (
"263 -142 OFFCURVE",
"280 -125 OFFCURVE",
"280 -105 CURVE SMOOTH",
"280 -85 OFFCURVE",
"263 -68 OFFCURVE",
"243 -68 CURVE SMOOTH",
"223 -68 OFFCURVE",
"206 -85 OFFCURVE",
"206 -105 CURVE SMOOTH",
"206 -125 OFFCURVE",
"223 -142 OFFCURVE",
"243 -142 CURVE SMOOTH"
);
},
{
closed = 1;
nodes = (
"198 -247 OFFCURVE",
"215 -230 OFFCURVE",
"215 -210 CURVE SMOOTH",
"215 -190 OFFCURVE",
"198 -173 OFFCURVE",
"178 -173 CURVE SMOOTH",
"158 -173 OFFCURVE",
"141 -190 OFFCURVE",
"141 -210 CURVE SMOOTH",
"141 -230 OFFCURVE",
"158 -247 OFFCURVE",
"178 -247 CURVE SMOOTH"
);
}
);
userData = {
com.schriftgestaltung.Glyphs.originalWidth = 577;
};
width = 0;
}
);
},
{
glyphname = "he-hb";
layers = (
{
anchors = (
{
name = bottom;
position = "{278, 0}";
},
{
name = bottomleft;
position = "{47, 0}";
},
{
name = center;
position = "{278, 296}";
},
{
name = top;
position = "{275, 528}";
},
{
name = topleft;
position = "{45, 528}";
}
);
layerId = master01;
paths = (
{
closed = 1;
nodes = (
"511 0 LINE",
"511 419 LINE SMOOTH",
"511 527 OFFCURVE",
"454 584 OFFCURVE",
"348 584 CURVE SMOOTH",
"60 584 LINE",
"55 557 LINE",
"343 557 LINE SMOOTH",
"436 557 OFFCURVE",
"479 511 OFFCURVE",
"479 416 CURVE SMOOTH",
"479 0 LINE"
);
},
{
closed = 1;
nodes = (
"106 0 LINE",
"106 355 LINE",
"74 350 LINE",
"74 0 LINE"
);
}
);
width = 596;
},
{
anchors = (
{
name = bottom;
position = "{330, 0}";
},
{
name = bottomleft;
position = "{35, 0}";
},
{
name = center;
position = "{327, 306}";
},
{
name = top;
position = "{330, 553}";
},
{
name = topleft;
position = "{35, 553}";
}
);
layerId = master02;
paths = (
{
closed = 1;
nodes = (
"629 0 LINE",
"629 382 LINE SMOOTH",
"629 533 OFFCURVE",
"544 609 OFFCURVE",
"377 609 CURVE SMOOTH",
"70 609 LINE",
"50 451 LINE",
"368 451 LINE SMOOTH",
"411 451 OFFCURVE",
"437 427 OFFCURVE",
"437 379 CURVE SMOOTH",
"437 0 LINE"
);
},
{
closed = 1;
nodes = (
"252 0 LINE",
"252 326 LINE",
"60 316 LINE",
"60 0 LINE"
);
}
);
width = 679;
},
{
anchors = (
{
name = bottom;
position = "{221, 0}";
},
{
name = bottomleft;
position = "{53, 0}";
},
{
name = center;
position = "{211, 296}";
},
{
name = top;
position = "{204, 528}";
},
{
name = topleft;
position = "{51, 528}";
}
);
layerId = master03;
paths = (
{
closed = 1;
nodes = (
"365 0 LINE",
"365 419 LINE SMOOTH",
"365 527 OFFCURVE",
"328 584 OFFCURVE",
"222 584 CURVE SMOOTH",
"64 584 LINE",
"59 557 LINE",
"217 557 LINE SMOOTH",
"310 557 OFFCURVE",
"333 511 OFFCURVE",
"333 416 CURVE SMOOTH",
"333 0 LINE"
);
},
{
closed = 1;
nodes = (
"100 0 LINE",
"100 395 LINE",
"68 390 LINE",
"68 0 LINE"
);
}
);
width = 434;
},
{
anchors = (
{
name = bottom;
position = "{267, 0}";
},
{
name = bottomleft;
position = "{43, 0}";
},
{
name = center;
position = "{281, 306}";
},
{
name = top;
position = "{267, 553}";
},
{
name = topleft;
position = "{43, 553}";
}
);
layerId = master04;
paths = (
{
closed = 1;
nodes = (
"517 0 LINE",
"517 382 LINE SMOOTH",
"517 533 OFFCURVE",
"452 609 OFFCURVE",
"285 609 CURVE SMOOTH",
"58 609 LINE",
"38 451 LINE",
"276 451 LINE SMOOTH",
"319 451 OFFCURVE",
"325 427 OFFCURVE",
"325 379 CURVE SMOOTH",
"325 0 LINE"
);
},
{
closed = 1;
nodes = (
"240 0 LINE",
"240 346 LINE",
"48 336 LINE",
"48 0 LINE"
);
}
);
width = 555;
}
);
unicode = 05D4;
},
{
glyphname = "het-hb";
layers = (
{
anchors = (
{
name = bottom;
position = "{332, 0}";
},
{
name = bottomleft;
position = "{98, 0}";
},
{
name = center;
position = "{332, 296}";
},
{
name = top;
position = "{332, 528}";
},
{
name = topleft;
position = "{98, 528}";
}
);
layerId = master01;
paths = (
{
closed = 1;
nodes = (
"108 584 LINE",
"108 557 LINE",
"140 557 LINE",
"125 543 OFFCURVE",
"108 488 OFFCURVE",
"108 421 CURVE",
"108 0 LINE",
"140 0 LINE",
"140 421 LINE",
"140 503 OFFCURVE",
"158 543 OFFCURVE",
"166 557 CURVE",
"384 557 LINE SMOOTH",
"477 557 OFFCURVE",
"520 511 OFFCURVE",
"520 416 CURVE SMOOTH",
"520 0 LINE",
"552 0 LINE",
"552 419 LINE SMOOTH",
"552 527 OFFCURVE",
"495 584 OFFCURVE",
"389 584 CURVE SMOOTH"
);
},
{
closed = 1;
nodes = (
"218 557 LINE",
"218 584 LINE",
"60 584 LINE",
"55 557 LINE"
);
}
);
width = 637;
},
{
anchors = (
{
name = bottom;
position = "{349, 0}";
},
{
name = bottomleft;
position = "{45, 0}";
},
{
name = center;
position = "{349, 306}";
},
{
name = top;
position = "{344, 553}";
},
{
name = topleft;
position = "{45, 553}";
}
);
layerId = master02;
paths = (
{
closed = 1;
nodes = (
"115 609 LINE",
"115 457 LINE",
"115 447 LINE",
"79 403 OFFCURVE",
"75 364 OFFCURVE",
"75 316 CURVE",
"75 0 LINE",
"267 0 LINE",
"267 377 LINE",
"267 429 OFFCURVE",
"270 441 OFFCURVE",
"277 451 CURVE",
"388 451 LINE SMOOTH",
"431 451 OFFCURVE",
"457 427 OFFCURVE",
"457 379 CURVE SMOOTH",
"457 0 LINE",
"649 0 LINE",
"649 382 LINE SMOOTH",
"649 533 OFFCURVE",
"564 609 OFFCURVE",
"397 609 CURVE SMOOTH"
);
},
{
closed = 1;
nodes = (
"367 451 LINE",
"367 609 LINE",
"45 609 LINE",
"25 451 LINE"
);
}
);
width = 704;
},
{
anchors = (
{
name = bottom;
position = "{217, 0}";
},
{
name = bottomleft;
position = "{62, 0}";
},
{
name = center;
position = "{217, 296}";
},
{
name = top;
position = "{217, 528}";
},
{
name = topleft;
position = "{62, 528}";
}
);
layerId = master03;
paths = (
{
closed = 1;
nodes = (
"73 584 LINE",
"73 557 LINE",
"105 557 LINE",
"90 543 OFFCURVE",
"73 488 OFFCURVE",
"73 421 CURVE",
"73 0 LINE",
"105 0 LINE",
"105 421 LINE",
"105 503 OFFCURVE",
"123 543 OFFCURVE",
"131 557 CURVE",
"228 557 LINE SMOOTH",
"321 557 OFFCURVE",
"344 511 OFFCURVE",
"344 416 CURVE SMOOTH",
"344 0 LINE",
"376 0 LINE",
"376 419 LINE SMOOTH",
"376 527 OFFCURVE",
"339 584 OFFCURVE",
"233 584 CURVE SMOOTH"
);
},
{
closed = 1;
nodes = (
"173 557 LINE",
"173 584 LINE",
"44 584 LINE",
"39 557 LINE"
);
}
);
width = 435;
},
{
anchors = (
{
name = bottom;
position = "{294, 0}";
},
{
name = bottomleft;
position = "{68, 0}";
},
{
name = center;
position = "{294, 306}";
},
{
name = top;
position = "{294, 553}";
},
{
name = topleft;
position = "{68, 553}";
}
);
layerId = master04;
paths = (
{
closed = 1;
nodes = (
"88 609 LINE",
"88 457 LINE",
"88 447 LINE",
"52 403 OFFCURVE",
"48 364 OFFCURVE",
"48 316 CURVE",
"48 0 LINE",
"240 0 LINE",
"240 377 LINE",
"240 429 OFFCURVE",
"243 441 OFFCURVE",
"250 451 CURVE",
"284 451 LINE SMOOTH",
"327 451 OFFCURVE",
"353 427 OFFCURVE",
"353 379 CURVE SMOOTH",
"353 0 LINE",
"545 0 LINE",
"545 382 LINE SMOOTH",
"545 533 OFFCURVE",
"460 609 OFFCURVE",
"293 609 CURVE SMOOTH"
);
},
{
closed = 1;
nodes = (
"253 451 LINE",
"253 609 LINE",
"48 609 LINE",
"28 451 LINE"
);
}
);
width = 583;
}
);
unicode = 05D7;
},
{
glyphname = "hiriq-hb";
layers = (
{
anchors = (
{
name = _bottom;
position = "{72, 0}";
}
);
layerId = master01;
paths = (
{
closed = 1;
nodes = (
"84 -116 OFFCURVE",
"94 -106 OFFCURVE",
"94 -93 CURVE SMOOTH",
"94 -81 OFFCURVE",
"84 -71 OFFCURVE",
"72 -71 CURVE SMOOTH",
"59 -71 OFFCURVE",
"49 -81 OFFCURVE",
"49 -93 CURVE SMOOTH",
"49 -106 OFFCURVE",
"59 -116 OFFCURVE",
"72 -116 CURVE SMOOTH"
);
}
);
userData = {
com.schriftgestaltung.Glyphs.originalWidth = 144;
};
width = 0;
},
{
anchors = (
{
name = _bottom;
position = "{101, 0}";
}
);
layerId = master02;
paths = (
{
closed = 1;
nodes = (
"121 -142 OFFCURVE",
"138 -125 OFFCURVE",
"138 -105 CURVE SMOOTH",
"138 -85 OFFCURVE",
"121 -68 OFFCURVE",
"101 -68 CURVE SMOOTH",
"81 -68 OFFCURVE",
"64 -85 OFFCURVE",
"64 -105 CURVE SMOOTH",
"64 -125 OFFCURVE",
"81 -142 OFFCURVE",
"101 -142 CURVE SMOOTH"
);
}
);
userData = {
com.schriftgestaltung.Glyphs.originalWidth = 202;
};
width = 0;
},
{
anchors = (
{
name = _bottom;
position = "{72, 0}";
}
);
layerId = master03;
paths = (
{
closed = 1;
nodes = (
"84 -116 OFFCURVE",
"94 -106 OFFCURVE",
"94 -93 CURVE SMOOTH",
"94 -81 OFFCURVE",
"84 -71 OFFCURVE",
"72 -71 CURVE SMOOTH",
"59 -71 OFFCURVE",
"49 -81 OFFCURVE",
"49 -93 CURVE SMOOTH",
"49 -106 OFFCURVE",
"59 -116 OFFCURVE",
"72 -116 CURVE SMOOTH"
);
}
);
userData = {
com.schriftgestaltung.Glyphs.originalWidth = 144;
};
width = 0;
},
{
anchors = (
{
name = _bottom;
position = "{101, 0}";
}
);
layerId = master04;
paths = (
{
closed = 1;
nodes = (
"121 -142 OFFCURVE",
"138 -125 OFFCURVE",
"138 -105 CURVE SMOOTH",
"138 -85 OFFCURVE",
"121 -68 OFFCURVE",
"101 -68 CURVE SMOOTH",
"81 -68 OFFCURVE",
"64 -85 OFFCURVE",
"64 -105 CURVE SMOOTH",
"64 -125 OFFCURVE",
"81 -142 OFFCURVE",
"101 -142 CURVE SMOOTH"
);
}
);
userData = {
com.schriftgestaltung.Glyphs.originalWidth = 202;
};
width = 0;
}
);
note = "\012hiriq\012";
unicode = 05B4;
},
{
glyphname = "holam-hb";
layers = (
{
anchors = (
{
name = _topleft;
position = "{72, 528}";
}
);
layerId = master01;
paths = (
{
closed = 1;
nodes = (
"84 656 OFFCURVE",
"94 666 OFFCURVE",
"94 679 CURVE SMOOTH",
"94 691 OFFCURVE",
"84 701 OFFCURVE",
"72 701 CURVE SMOOTH",
"59 701 OFFCURVE",
"49 691 OFFCURVE",
"49 679 CURVE SMOOTH",
"49 666 OFFCURVE",
"59 656 OFFCURVE",
"72 656 CURVE SMOOTH"
);
}
);
userData = {
com.schriftgestaltung.Glyphs.originalWidth = 144;
};
width = 0;
},
{
anchors = (
{
name = _topleft;
position = "{101, 553}";
}
);
layerId = master02;
paths = (
{
closed = 1;
nodes = (
"121 678 OFFCURVE",
"138 695 OFFCURVE",
"138 715 CURVE SMOOTH",
"138 735 OFFCURVE",
"121 752 OFFCURVE",
"101 752 CURVE SMOOTH",
"81 752 OFFCURVE",
"64 735 OFFCURVE",
"64 715 CURVE SMOOTH",
"64 695 OFFCURVE",
"81 678 OFFCURVE",
"101 678 CURVE SMOOTH"
);
}
);
userData = {
com.schriftgestaltung.Glyphs.originalWidth = 202;
};
width = 0;
},
{
anchors = (
{
name = _topleft;
position = "{72, 528}";
}
);
layerId = master03;
paths = (
{
closed = 1;
nodes = (
"84 656 OFFCURVE",
"94 666 OFFCURVE",
"94 679 CURVE SMOOTH",
"94 691 OFFCURVE",
"84 701 OFFCURVE",
"72 701 CURVE SMOOTH",
"59 701 OFFCURVE",
"49 691 OFFCURVE",
"49 679 CURVE SMOOTH",
"49 666 OFFCURVE",
"59 656 OFFCURVE",
"72 656 CURVE SMOOTH"
);
}
);
userData = {
com.schriftgestaltung.Glyphs.originalWidth = 144;
};
width = 0;
},
{
anchors = (
{
name = _topleft;
position = "{101, 553}";
}
);
layerId = master04;
paths = (
{
closed = 1;
nodes = (
"121 678 OFFCURVE",
"138 695 OFFCURVE",
"138 715 CURVE SMOOTH",
"138 735 OFFCURVE",
"121 752 OFFCURVE",
"101 752 CURVE SMOOTH",
"81 752 OFFCURVE",
"64 735 OFFCURVE",
"64 715 CURVE SMOOTH",
"64 695 OFFCURVE",
"81 678 OFFCURVE",
"101 678 CURVE SMOOTH"
);
}
);
userData = {
com.schriftgestaltung.Glyphs.originalWidth = 202;
};
width = 0;
}
);
note = "\012holam\012";
unicode = 05B9;
},
{
glyphname = "holamhaser-hb";
layers = (
{
anchors = (
{
name = _topleft;
position = "{72, 528}";
}
);
layerId = master01;
paths = (
{
closed = 1;
nodes = (
"84 656 OFFCURVE",
"94 666 OFFCURVE",
"94 679 CURVE SMOOTH",
"94 691 OFFCURVE",
"84 701 OFFCURVE",
"72 701 CURVE SMOOTH",
"59 701 OFFCURVE",
"49 691 OFFCURVE",
"49 679 CURVE SMOOTH",
"49 666 OFFCURVE",
"59 656 OFFCURVE",
"72 656 CURVE SMOOTH"
);
}
);
userData = {
com.schriftgestaltung.Glyphs.originalWidth = 144;
};
width = 0;
},
{
anchors = (
{
name = _topleft;
position = "{101, 553}";
}
);
layerId = master02;
paths = (
{
closed = 1;
nodes = (
"121 678 OFFCURVE",
"138 695 OFFCURVE",
"138 715 CURVE SMOOTH",
"138 735 OFFCURVE",
"121 752 OFFCURVE",
"101 752 CURVE SMOOTH",
"81 752 OFFCURVE",
"64 735 OFFCURVE",
"64 715 CURVE SMOOTH",
"64 695 OFFCURVE",
"81 678 OFFCURVE",
"101 678 CURVE SMOOTH"
);
}
);
userData = {
com.schriftgestaltung.Glyphs.originalWidth = 202;
};
width = 0;
},
{
anchors = (
{
name = _topleft;
position = "{72, 528}";
}
);
layerId = master03;
paths = (
{
closed = 1;
nodes = (
"84 656 OFFCURVE",
"94 666 OFFCURVE",
"94 679 CURVE SMOOTH",
"94 691 OFFCURVE",
"84 701 OFFCURVE",
"72 701 CURVE SMOOTH",
"59 701 OFFCURVE",
"49 691 OFFCURVE",
"49 679 CURVE SMOOTH",
"49 666 OFFCURVE",
"59 656 OFFCURVE",
"72 656 CURVE SMOOTH"
);
}
);
userData = {
com.schriftgestaltung.Glyphs.originalWidth = 144;
};
width = 0;
},
{
anchors = (
{
name = _topleft;
position = "{101, 553}";
}
);
layerId = master04;
paths = (
{
closed = 1;
nodes = (
"121 678 OFFCURVE",
"138 695 OFFCURVE",
"138 715 CURVE SMOOTH",
"138 735 OFFCURVE",
"121 752 OFFCURVE",
"101 752 CURVE SMOOTH",
"81 752 OFFCURVE",
"64 735 OFFCURVE",
"64 715 CURVE SMOOTH",
"64 695 OFFCURVE",
"81 678 OFFCURVE",
"101 678 CURVE SMOOTH"
);
}
);
userData = {
com.schriftgestaltung.Glyphs.originalWidth = 202;
};
width = 0;
}
);
note = "\012uni05BA\012";
unicode = 05BA;
},
{
glyphname = hyphen;
layers = (
{
layerId = master01;
paths = (
{
closed = 1;
nodes = (
"282 259 LINE",
"282 284 LINE",
"40 284 LINE",
"40 259 LINE"
);
}
);
userData = {
com.schriftgestaltung.Glyphs.subCategory = Dash;
};
width = 322;
},
{
layerId = master02;
paths = (
{
closed = 1;
nodes = (
"297 192 LINE",
"297 344 LINE",
"21 344 LINE",
"21 192 LINE"
);
}
);
userData = {
com.schriftgestaltung.Glyphs.subCategory = Dash;
};
width = 318;
},
{
layerId = master03;
paths = (
{
closed = 1;
nodes = (
"237 259 LINE",
"237 286 LINE",
"26 286 LINE",
"26 259 LINE"
);
}
);
userData = {
com.schriftgestaltung.Glyphs.subCategory = Dash;
};
width = 263;
},
{
layerId = master04;
paths = (
{
closed = 1;
nodes = (
"296 192 LINE",
"296 344 LINE",
"29 344 LINE",
"29 192 LINE"
);
}
);
userData = {
com.schriftgestaltung.Glyphs.subCategory = Dash;
};
width = 325;
}
);
leftKerningGroup = hyphen.right;
rightKerningGroup = hyphen.left;
unicode = 002D;
},
{
glyphname = hyphentwo;
layers = (
{
layerId = master01;
paths = (
{
closed = 1;
nodes = (
"282 259 LINE",
"282 284 LINE",
"40 284 LINE",
"40 259 LINE"
);
}
);
userData = {
com.schriftgestaltung.Glyphs.glyph.widthMetricsKey = "=hyphen";
com.schriftgestaltung.Glyphs.subCategory = Dash;
};
width = 322;
},
{
layerId = master02;
paths = (
{
closed = 1;
nodes = (
"297 192 LINE",
"297 344 LINE",
"21 344 LINE",
"21 192 LINE"
);
}
);
userData = {
com.schriftgestaltung.Glyphs.glyph.widthMetricsKey = "=hyphen";
com.schriftgestaltung.Glyphs.subCategory = Dash;
};
width = 318;
},
{
layerId = master03;
paths = (
{
closed = 1;
nodes = (
"237 259 LINE",
"237 286 LINE",
"26 286 LINE",
"26 259 LINE"
);
}
);
userData = {
com.schriftgestaltung.Glyphs.glyph.widthMetricsKey = "=hyphen";
com.schriftgestaltung.Glyphs.subCategory = Dash;
};
width = 263;
},
{
layerId = master04;
paths = (
{
closed = 1;
nodes = (
"296 192 LINE",
"296 344 LINE",
"29 344 LINE",
"29 192 LINE"
);
}
);
userData = {
com.schriftgestaltung.Glyphs.glyph.widthMetricsKey = "=hyphen";
com.schriftgestaltung.Glyphs.subCategory = Dash;
};
width = 325;
}
);
unicode = 2010;
},
{
glyphname = "iluy-hb";
layers = (
{
anchors = (
{
name = _top;
position = "{125, 528}";
}
);
layerId = master01;
paths = (
{
closed = 1;
nodes = (
"191 650 LINE",
"191 777 LINE",
"165 777 LINE",
"165 676 LINE",
"59 676 LINE",
"59 650 LINE"
);
}
);
userData = {
com.schriftgestaltung.Glyphs.originalWidth = 250;
};
width = 0;
},
{
anchors = (
{
name = _top;
position = "{132, 553}";
}
);
layerId = master02;
paths = (
{
closed = 1;
nodes = (
"214 636 LINE",
"214 794 LINE",
"159 794 LINE",
"159 690 LINE",
"50 690 LINE",
"50 636 LINE"
);
}
);
userData = {
com.schriftgestaltung.Glyphs.originalWidth = 264;
};
width = 0;
},
{
anchors = (
{
name = _top;
position = "{116, 528}";
}
);
layerId = master03;
paths = (
{
closed = 1;
nodes = (
"182 650 LINE",
"182 777 LINE",
"156 777 LINE",
"156 676 LINE",
"50 676 LINE",
"50 650 LINE"
);
}
);
userData = {
com.schriftgestaltung.Glyphs.originalWidth = 232;
};
width = 0;
},
{
anchors = (
{
name = _top;
position = "{132, 553}";
}
);
layerId = master04;
paths = (
{
closed = 1;
nodes = (
"204 636 LINE",
"204 775 LINE",
"156 775 LINE",
"156 683 LINE",
"60 683 LINE",
"60 636 LINE"
);
}
);
userData = {
com.schriftgestaltung.Glyphs.originalWidth = 264;
};
width = 0;
}
);
note = "\012uni05AC\012";
unicode = 05AC;
},
{
glyphname = "judeospanishvarika-hb";
layers = (
{
anchors = (
{
name = _top;
position = "{156, 528}";
}
);
layerId = master01;
paths = (
{
closed = 1;
nodes = (
"242 759 LINE",
"242 712 OFFCURVE",
"211 671 OFFCURVE",
"156 671 CURVE SMOOTH",
"102 671 OFFCURVE",
"71 700 OFFCURVE",
"71 759 CURVE",
"50 759 LINE",
"50 694 OFFCURVE",
"89 650 OFFCURVE",
"156 650 CURVE SMOOTH",
"222 650 OFFCURVE",
"261 694 OFFCURVE",
"261 759 CURVE"
);
}
);
userData = {
com.schriftgestaltung.Glyphs.originalWidth = 311;
};
width = 0;
},
{
anchors = (
{
name = _top;
position = "{166, 553}";
}
);
layerId = master02;
paths = (
{
closed = 1;
nodes = (
"226 767 LINE",
"226 727 OFFCURVE",
"204 705 OFFCURVE",
"166 705 CURVE SMOOTH",
"127 705 OFFCURVE",
"105 732 OFFCURVE",
"105 767 CURVE",
"50 767 LINE",
"50 696 OFFCURVE",
"93 647 OFFCURVE",
"166 647 CURVE SMOOTH",
"240 647 OFFCURVE",
"283 696 OFFCURVE",
"283 767 CURVE"
);
}
);
userData = {
com.schriftgestaltung.Glyphs.originalWidth = 333;
};
width = 0;
},
{
anchors = (
{
name = _top;
position = "{156, 528}";
}
);
layerId = master03;
paths = (
{
closed = 1;
nodes = (
"242 759 LINE",
"242 712 OFFCURVE",
"211 671 OFFCURVE",
"156 671 CURVE SMOOTH",
"102 671 OFFCURVE",
"71 700 OFFCURVE",
"71 759 CURVE",
"50 759 LINE",
"50 694 OFFCURVE",
"89 650 OFFCURVE",
"156 650 CURVE SMOOTH",
"222 650 OFFCURVE",
"261 694 OFFCURVE",
"261 759 CURVE"
);
}
);
userData = {
com.schriftgestaltung.Glyphs.originalWidth = 311;
};
width = 0;
},
{
anchors = (
{
name = _top;
position = "{166, 553}";
}
);
layerId = master04;
paths = (
{
closed = 1;
nodes = (
"219 752 LINE",
"219 717 OFFCURVE",
"199 698 OFFCURVE",
"166 698 CURVE SMOOTH",
"132 698 OFFCURVE",
"113 722 OFFCURVE",
"113 752 CURVE",
"64 752 LINE",
"64 690 OFFCURVE",
"102 647 OFFCURVE",
"166 647 CURVE SMOOTH",
"231 647 OFFCURVE",
"269 690 OFFCURVE",
"269 752 CURVE"
);
}
);
userData = {
com.schriftgestaltung.Glyphs.originalWidth = 333;
};
width = 0;
}
);
note = "\012uniFB1E\012";
unicode = FB1E;
},
{
glyphname = "kaf-hb";
layers = (
{
anchors = (
{
name = bottom;
position = "{186, 0}";
},
{
name = bottomleft;
position = "{20, 0}";
},
{
name = center;
position = "{194, 296}";
},
{
name = top;
position = "{170, 528}";
},
{
name = topleft;
position = "{10, 528}";
}
);
layerId = master01;
paths = (
{
closed = 1;
nodes = (
"206 0 LINE SMOOTH",
"362 0 OFFCURVE",
"444 100 OFFCURVE",
"444 292 CURVE SMOOTH",
"444 484 OFFCURVE",
"362 584 OFFCURVE",
"206 584 CURVE SMOOTH",
"62 584 LINE",
"57 557 LINE",
"206 557 LINE SMOOTH",
"340 557 OFFCURVE",
"410 466 OFFCURVE",
"410 292 CURVE SMOOTH",
"410 118 OFFCURVE",
"340 27 OFFCURVE",
"206 27 CURVE SMOOTH",
"57 27 LINE",
"57 0 LINE"
);
}
);
width = 501;
},
{
anchors = (
{
name = bottom;
position = "{174, 0}";
},
{
name = bottomleft;
position = "{-25, 0}";
},
{
name = center;
position = "{165, 306}";
},
{
name = top;
position = "{175, 553}";
},
{
name = topleft;
position = "{-8, 553}";
}
);
layerId = master02;
paths = (
{
closed = 1;
nodes = (
"213 0 LINE SMOOTH",
"407 0 OFFCURVE",
"512 110 OFFCURVE",
"512 297 CURVE SMOOTH",
"512 493 OFFCURVE",
"407 609 OFFCURVE",
"213 609 CURVE SMOOTH",
"45 609 LINE",
"25 451 LINE",
"213 451 LINE SMOOTH",
"285 451 OFFCURVE",
"317 394 OFFCURVE",
"317 297 CURVE SMOOTH",
"317 210 OFFCURVE",
"285 158 OFFCURVE",
"213 158 CURVE SMOOTH",
"25 158 LINE",
"25 0 LINE"
);
}
);
width = 537;
},
{
anchors = (
{
name = bottom;
position = "{137, 0}";
},
{
name = bottomleft;
position = "{36, 0}";
},
{
name = center;
position = "{137, 296}";
},
{
name = top;
position = "{129, 528}";
},
{
name = topleft;
position = "{26, 528}";
}
);
layerId = master03;
paths = (
{
closed = 1;
nodes = (
"133 0 LINE SMOOTH",
"253 0 OFFCURVE",
"301 83 OFFCURVE",
"301 292 CURVE SMOOTH",
"301 501 OFFCURVE",
"253 584 OFFCURVE",
"133 584 CURVE SMOOTH",
"39 584 LINE",
"34 557 LINE",
"133 557 LINE SMOOTH",
"229 557 OFFCURVE",
"267 481 OFFCURVE",
"267 292 CURVE SMOOTH",
"267 103 OFFCURVE",
"229 27 OFFCURVE",
"133 27 CURVE SMOOTH",
"34 27 LINE",
"34 0 LINE"
);
}
);
width = 335;
},
{
anchors = (
{
name = bottom;
position = "{170, 0}";
},
{
name = bottomleft;
position = "{22, 0}";
},
{
name = center;
position = "{117, 306}";
},
{
name = top;
position = "{191, 553}";
},
{
name = topleft;
position = "{22, 553}";
}
);
layerId = master04;
paths = (
{
closed = 1;
nodes = (
"141 0 LINE SMOOTH",
"325 0 OFFCURVE",
"410 93 OFFCURVE",
"410 297 CURVE SMOOTH",
"410 511 OFFCURVE",
"325 609 OFFCURVE",
"141 609 CURVE SMOOTH",
"43 609 LINE",
"23 451 LINE",
"141 451 LINE SMOOTH",
"192 451 OFFCURVE",
"215 403 OFFCURVE",
"215 297 CURVE SMOOTH",
"215 202 OFFCURVE",
"192 158 OFFCURVE",
"141 158 CURVE SMOOTH",
"23 158 LINE",
"23 0 LINE"
);
}
);
width = 428;
}
);
unicode = 05DB;
},
{
glyphname = "lamed-hb";
layers = (
{
anchors = (
{
name = bottom;
position = "{233, 0}";
},
{
name = bottomleft;
position = "{227, 0}";
},
{
name = center;
position = "{142, 334}";
},
{
name = top;
position = "{239, 528}";
},
{
name = topleft;
position = "{-21, 528}";
}
);
layerId = master01;
paths = (
{
closed = 1;
nodes = (
"74 760 LINE",
"42 755 LINE",
"42 557 LINE",
"407 557 LINE",
"227 0 LINE",
"259 0 LINE",
"439 557 LINE",
"447 584 LINE",
"74 584 LINE"
);
}
);
width = 489;
},
{
anchors = (
{
name = bottom;
position = "{263, 0}";
},
{
name = bottomleft;
position = "{219, 0}";
},
{
name = center;
position = "{125, 306}";
},
{
name = top;
position = "{357, 553}";
},
{
name = topleft;
position = "{-93, 553}";
}
);
layerId = master02;
paths = (
{
closed = 1;
nodes = (
"212 760 LINE",
"20 740 LINE",
"20 451 LINE",
"330 451 LINE",
"162 0 LINE",
"362 0 LINE",
"541 499 LINE",
"553 609 LINE",
"212 609 LINE"
);
}
);
width = 578;
},
{
anchors = (
{
name = bottom;
position = "{140, 0}";
},
{
name = bottomleft;
position = "{138, 0}";
},
{
name = center;
position = "{92, 316}";
},
{
name = top;
position = "{158, 528}";
},
{
name = topleft;
position = "{-27, 528}";
}
);
layerId = master03;
paths = (
{
closed = 1;
nodes = (
"57 760 LINE",
"25 755 LINE",
"25 557 LINE",
"260 557 LINE",
"127 0 LINE",
"159 0 LINE",
"292 557 LINE",
"299 584 LINE",
"57 584 LINE"
);
}
);
width = 331;
},
{
anchors = (
{
name = bottom;
position = "{228, 0}";
},
{
name = bottomleft;
position = "{55, 0}";
},
{
name = center;
position = "{118, 306}";
},
{
name = top;
position = "{325, 553}";
},
{
name = topleft;
position = "{-23, 553}";
}
);
layerId = master04;
paths = (
{
closed = 1;
nodes = (
"217 760 LINE",
"25 740 LINE",
"25 451 LINE",
"255 451 LINE",
"137 0 LINE",
"328 0 LINE",
"447 499 LINE",
"471 609 LINE",
"217 609 LINE"
);
}
);
width = 486;
}
);
unicode = 05DC;
},
{
glyphname = "lowerdot-hb";
layers = (
{
anchors = (
{
name = _bottom;
position = "{72, 0}";
}
);
layerId = master01;
paths = (
{
closed = 1;
nodes = (
"84 -117 OFFCURVE",
"94 -107 OFFCURVE",
"94 -94 CURVE SMOOTH",
"94 -82 OFFCURVE",
"84 -72 OFFCURVE",
"72 -72 CURVE SMOOTH",
"59 -72 OFFCURVE",
"49 -82 OFFCURVE",
"49 -94 CURVE SMOOTH",
"49 -107 OFFCURVE",
"59 -117 OFFCURVE",
"72 -117 CURVE SMOOTH"
);
}
);
userData = {
com.schriftgestaltung.Glyphs.originalWidth = 144;
};
width = 0;
},
{
anchors = (
{
name = _bottom;
position = "{101, 0}";
}
);
layerId = master02;
paths = (
{
closed = 1;
nodes = (
"121 -142 OFFCURVE",
"138 -125 OFFCURVE",
"138 -105 CURVE SMOOTH",
"138 -85 OFFCURVE",
"121 -68 OFFCURVE",
"101 -68 CURVE SMOOTH",
"81 -68 OFFCURVE",
"64 -85 OFFCURVE",
"64 -105 CURVE SMOOTH",
"64 -125 OFFCURVE",
"81 -142 OFFCURVE",
"101 -142 CURVE SMOOTH"
);
}
);
userData = {
com.schriftgestaltung.Glyphs.originalWidth = 202;
};
width = 0;
},
{
anchors = (
{
name = _bottom;
position = "{72, 0}";
}
);
layerId = master03;
paths = (
{
closed = 1;
nodes = (
"84 -117 OFFCURVE",
"94 -107 OFFCURVE",
"94 -94 CURVE SMOOTH",
"94 -82 OFFCURVE",
"84 -72 OFFCURVE",
"72 -72 CURVE SMOOTH",
"59 -72 OFFCURVE",
"49 -82 OFFCURVE",
"49 -94 CURVE SMOOTH",
"49 -107 OFFCURVE",
"59 -117 OFFCURVE",
"72 -117 CURVE SMOOTH"
);
}
);
userData = {
com.schriftgestaltung.Glyphs.originalWidth = 144;
};
width = 0;
},
{
anchors = (
{
name = _bottom;
position = "{101, 0}";
}
);
layerId = master04;
paths = (
{
closed = 1;
nodes = (
"121 -142 OFFCURVE",
"138 -125 OFFCURVE",
"138 -105 CURVE SMOOTH",
"138 -85 OFFCURVE",
"121 -68 OFFCURVE",
"101 -68 CURVE SMOOTH",
"81 -68 OFFCURVE",
"64 -85 OFFCURVE",
"64 -105 CURVE SMOOTH",
"64 -125 OFFCURVE",
"81 -142 OFFCURVE",
"101 -142 CURVE SMOOTH"
);
}
);
userData = {
com.schriftgestaltung.Glyphs.originalWidth = 202;
};
width = 0;
}
);
note = "\012lowerdot\012";
unicode = 05C5;
},
{
glyphname = "mahapakhleft-hb";
layers = (
{
anchors = (
{
name = _bottomleft;
position = "{102, 0}";
}
);
layerId = master01;
paths = (
{
closed = 1;
nodes = (
"154 -229 LINE",
"80 -154 LINE",
"151 -82 LINE",
"121 -82 LINE",
"50 -153 LINE",
"125 -229 LINE"
);
}
);
userData = {
com.schriftgestaltung.Glyphs.originalWidth = 227;
};
width = 0;
},
{
anchors = (
{
name = _bottomleft;
position = "{132, 0}";
}
);
layerId = master02;
paths = (
{
closed = 1;
nodes = (
"214 -253 LINE",
"123 -161 LINE",
"214 -70 LINE",
"141 -70 LINE",
"50 -161 LINE",
"141 -253 LINE"
);
}
);
userData = {
com.schriftgestaltung.Glyphs.originalWidth = 264;
};
width = 0;
},
{
anchors = (
{
name = _bottomleft;
position = "{102, 0}";
}
);
layerId = master03;
paths = (
{
closed = 1;
nodes = (
"154 -229 LINE",
"80 -154 LINE",
"151 -82 LINE",
"121 -82 LINE",
"50 -153 LINE",
"125 -229 LINE"
);
}
);
userData = {
com.schriftgestaltung.Glyphs.originalWidth = 204;
};
width = 0;
},
{
anchors = (
{
name = _bottomleft;
position = "{132, 0}";
}
);
layerId = master04;
paths = (
{
closed = 1;
nodes = (
"204 -231 LINE",
"124 -150 LINE",
"204 -70 LINE",
"140 -70 LINE",
"60 -150 LINE",
"140 -231 LINE"
);
}
);
userData = {
com.schriftgestaltung.Glyphs.originalWidth = 264;
};
width = 0;
}
);
note = "\012uni05A4\012";
unicode = 05A4;
},
{
glyphname = "maqaf-hb";
layers = (
{
layerId = master01;
paths = (
{
closed = 1;
nodes = (
"282 557 LINE",
"282 584 LINE",
"40 584 LINE",
"40 557 LINE"
);
}
);
width = 322;
},
{
layerId = master02;
paths = (
{
closed = 1;
nodes = (
"301 451 LINE",
"301 609 LINE",
"25 609 LINE",
"25 451 LINE"
);
}
);
width = 326;
},
{
layerId = master03;
paths = (
{
closed = 1;
nodes = (
"237 557 LINE",
"237 584 LINE",
"36 584 LINE",
"36 557 LINE"
);
}
);
width = 273;
},
{
layerId = master04;
paths = (
{
closed = 1;
nodes = (
"272 451 LINE",
"272 609 LINE",
"25 609 LINE",
"25 451 LINE"
);
}
);
width = 297;
}
);
unicode = 05BE;
},
{
glyphname = "masoracircle-hb";
layers = (
{
anchors = (
{
name = _top;
position = "{107, 528}";
}
);
layerId = master01;
paths = (
{
closed = 1;
nodes = (
"139 650 OFFCURVE",
"164 675 OFFCURVE",
"164 707 CURVE SMOOTH",
"164 738 OFFCURVE",
"138 764 OFFCURVE",
"107 764 CURVE SMOOTH",
"76 764 OFFCURVE",
"50 738 OFFCURVE",
"50 707 CURVE SMOOTH",
"50 675 OFFCURVE",
"75 650 OFFCURVE",
"107 650 CURVE SMOOTH"
);
},
{
closed = 1;
nodes = (
"89 674 OFFCURVE",
"75 689 OFFCURVE",
"75 707 CURVE SMOOTH",
"75 725 OFFCURVE",
"90 739 OFFCURVE",
"107 739 CURVE SMOOTH",
"124 739 OFFCURVE",
"139 725 OFFCURVE",
"139 707 CURVE SMOOTH",
"139 689 OFFCURVE",
"125 674 OFFCURVE",
"107 674 CURVE SMOOTH"
);
}
);
userData = {
com.schriftgestaltung.Glyphs.originalWidth = 214;
};
width = 0;
},
{
anchors = (
{
name = _top;
position = "{151, 553}";
}
);
layerId = master02;
paths = (
{
closed = 1;
nodes = (
"208 632 OFFCURVE",
"252 677 OFFCURVE",
"252 733 CURVE SMOOTH",
"252 789 OFFCURVE",
"207 834 OFFCURVE",
"151 834 CURVE SMOOTH",
"95 834 OFFCURVE",
"50 789 OFFCURVE",
"50 733 CURVE SMOOTH",
"50 677 OFFCURVE",
"94 632 OFFCURVE",
"151 632 CURVE SMOOTH"
);
},
{
closed = 1;
nodes = (
"121 679 OFFCURVE",
"97 703 OFFCURVE",
"97 733 CURVE SMOOTH",
"97 763 OFFCURVE",
"122 787 OFFCURVE",
"151 787 CURVE SMOOTH",
"180 787 OFFCURVE",
"205 763 OFFCURVE",
"205 733 CURVE SMOOTH",
"205 703 OFFCURVE",
"181 679 OFFCURVE",
"151 679 CURVE SMOOTH"
);
}
);
userData = {
com.schriftgestaltung.Glyphs.originalWidth = 302;
};
width = 0;
},
{
anchors = (
{
name = _top;
position = "{107, 528}";
}
);
layerId = master03;
paths = (
{
closed = 1;
nodes = (
"139 650 OFFCURVE",
"164 675 OFFCURVE",
"164 707 CURVE SMOOTH",
"164 738 OFFCURVE",
"138 764 OFFCURVE",
"107 764 CURVE SMOOTH",
"76 764 OFFCURVE",
"50 738 OFFCURVE",
"50 707 CURVE SMOOTH",
"50 675 OFFCURVE",
"75 650 OFFCURVE",
"107 650 CURVE SMOOTH"
);
},
{
closed = 1;
nodes = (
"89 674 OFFCURVE",
"75 689 OFFCURVE",
"75 707 CURVE SMOOTH",
"75 725 OFFCURVE",
"90 739 OFFCURVE",
"107 739 CURVE SMOOTH",
"124 739 OFFCURVE",
"139 725 OFFCURVE",
"139 707 CURVE SMOOTH",
"139 689 OFFCURVE",
"125 674 OFFCURVE",
"107 674 CURVE SMOOTH"
);
}
);
userData = {
com.schriftgestaltung.Glyphs.originalWidth = 214;
};
width = 0;
},
{
anchors = (
{
name = _top;
position = "{151, 553}";
}
);
layerId = master04;
paths = (
{
closed = 1;
nodes = (
"201 632 OFFCURVE",
"240 671 OFFCURVE",
"240 721 CURVE SMOOTH",
"240 770 OFFCURVE",
"200 809 OFFCURVE",
"151 809 CURVE SMOOTH",
"102 809 OFFCURVE",
"62 770 OFFCURVE",
"62 721 CURVE SMOOTH",
"62 671 OFFCURVE",
"101 632 OFFCURVE",
"151 632 CURVE SMOOTH"
);
},
{
closed = 1;
nodes = (
"125 673 OFFCURVE",
"104 694 OFFCURVE",
"104 721 CURVE SMOOTH",
"104 747 OFFCURVE",
"126 768 OFFCURVE",
"151 768 CURVE SMOOTH",
"176 768 OFFCURVE",
"198 747 OFFCURVE",
"198 721 CURVE SMOOTH",
"198 694 OFFCURVE",
"177 673 OFFCURVE",
"151 673 CURVE SMOOTH"
);
}
);
userData = {
com.schriftgestaltung.Glyphs.originalWidth = 302;
};
width = 0;
}
);
note = "\012uni05AF\012";
unicode = 05AF;
},
{
glyphname = "mem-hb";
layers = (
{
anchors = (
{
name = bottom;
position = "{330, 0}";
},
{
name = bottomleft;
position = "{66, 0}";
},
{
name = center;
position = "{330, 296}";
},
{
name = top;
position = "{345, 528}";
},
{
name = topleft;
position = "{89, 528}";
}
);
layerId = master01;
paths = (
{
closed = 1;
nodes = (
"102 0 LINE",
"173 376 LINE SMOOTH",
"187 449 OFFCURVE",
"227 566 OFFCURVE",
"358 566 CURVE SMOOTH",
"459 566 OFFCURVE",
"536 496 OFFCURVE",
"536 318 CURVE SMOOTH",
"536 303 LINE SMOOTH",
"536 135 OFFCURVE",
"466 27 OFFCURVE",
"335 27 CURVE SMOOTH",
"235 27 LINE",
"231 0 LINE",
"336 0 LINE SMOOTH",
"488 0 OFFCURVE",
"568 117 OFFCURVE",
"568 303 CURVE SMOOTH",
"568 318 LINE SMOOTH",
"568 513 OFFCURVE",
"481 593 OFFCURVE",
"358 593 CURVE SMOOTH",
"218 593 OFFCURVE",
"172 480 OFFCURVE",
"154 405 CURVE",
"153 405 LINE",
"92 584 LINE",
"60 584 LINE",
"141 356 LINE",
"70 0 LINE"
);
}
);
width = 618;
},
{
anchors = (
{
name = bottom;
position = "{396, 0}";
},
{
name = bottomleft;
position = "{157, 0}";
},
{
name = center;
position = "{396, 306}";
},
{
name = top;
position = "{403, 553}";
},
{
name = topleft;
position = "{61, 553}";
}
);
layerId = master02;
paths = (
{
closed = 1;
nodes = (
"243 0 LINE",
"295 312 LINE SMOOTH",
"312 416 OFFCURVE",
"338 458 OFFCURVE",
"420 458 CURVE SMOOTH",
"475 458 OFFCURVE",
"518 406 OFFCURVE",
"518 320 CURVE SMOOTH",
"518 307 LINE SMOOTH",
"518 221 OFFCURVE",
"477 158 OFFCURVE",
"409 158 CURVE SMOOTH",
"348 158 LINE",
"326 0 LINE",
"419 0 LINE SMOOTH",
"602 0 OFFCURVE",
"710 126 OFFCURVE",
"710 307 CURVE SMOOTH",
"710 320 LINE SMOOTH",
"710 503 OFFCURVE",
"609 619 OFFCURVE",
"462 619 CURVE SMOOTH",
"356 619 OFFCURVE",
"295 590 OFFCURVE",
"253 486 CURVE",
"247 486 LINE",
"217 609 LINE",
"25 609 LINE",
"110 353 LINE",
"44 0 LINE"
);
}
);
width = 730;
},
{
anchors = (
{
name = bottom;
position = "{219, 0}";
},
{
name = bottomleft;
position = "{54, 0}";
},
{
name = center;
position = "{217, 296}";
},
{
name = top;
position = "{252, 528}";
},
{
name = topleft;
position = "{72, 528}";
}
);
layerId = master03;
paths = (
{
closed = 1;
nodes = (
"76 0 LINE",
"117 407 LINE SMOOTH",
"128 519 OFFCURVE",
"179 566 OFFCURVE",
"229 566 CURVE SMOOTH",
"303 566 OFFCURVE",
"340 481 OFFCURVE",
"340 318 CURVE SMOOTH",
"340 303 LINE SMOOTH",
"340 122 OFFCURVE",
"294 27 OFFCURVE",
"208 27 CURVE SMOOTH",
"159 27 LINE",
"155 0 LINE",
"209 0 LINE SMOOTH",
"315 0 OFFCURVE",
"372 104 OFFCURVE",
"372 303 CURVE SMOOTH",
"372 318 LINE SMOOTH",
"372 499 OFFCURVE",
"324 593 OFFCURVE",
"229 593 CURVE SMOOTH",
"167 593 OFFCURVE",
"123 544 OFFCURVE",
"107 471 CURVE",
"106 471 LINE",
"76 584 LINE",
"44 584 LINE",
"90 421 LINE",
"44 0 LINE"
);
}
);
width = 406;
},
{
anchors = (
{
name = bottom;
position = "{324, 0}";
},
{
name = bottomleft;
position = "{178, 0}";
},
{
name = center;
position = "{335, 306}";
},
{
name = top;
position = "{348, 553}";
},
{
name = topleft;
position = "{82, 553}";
}
);
layerId = master04;
paths = (
{
closed = 1;
nodes = (
"236 0 LINE",
"267 312 LINE SMOOTH",
"277 408 OFFCURVE",
"305 458 OFFCURVE",
"338 458 CURVE SMOOTH",
"383 458 OFFCURVE",
"406 411 OFFCURVE",
"406 320 CURVE SMOOTH",
"406 307 LINE SMOOTH",
"406 209 OFFCURVE",
"381 158 OFFCURVE",
"329 158 CURVE SMOOTH",
"304 158 LINE",
"289 0 LINE",
"339 0 LINE SMOOTH",
"511 0 OFFCURVE",
"598 105 OFFCURVE",
"598 307 CURVE SMOOTH",
"598 320 LINE SMOOTH",
"598 516 OFFCURVE",
"527 619 OFFCURVE",
"390 619 CURVE SMOOTH",
"308 619 OFFCURVE",
"253 577 OFFCURVE",
"231 496 CURVE",
"225 496 LINE",
"215 609 LINE",
"23 609 LINE",
"88 353 LINE",
"44 0 LINE"
);
}
);
width = 621;
}
);
unicode = 05DE;
},
{
glyphname = "merkhakefulaleft-hb";
layers = (
{
anchors = (
{
name = _bottomleft;
position = "{199, 0}";
}
);
layerId = master01;
paths = (
{
closed = 1;
nodes = (
"235 -222 OFFCURVE",
"268 -183 OFFCURVE",
"268 -116 CURVE",
"239 -116 LINE",
"239 -165 OFFCURVE",
"219 -193 OFFCURVE",
"159 -193 CURVE",
"159 -222 LINE"
);
},
{
closed = 1;
nodes = (
"126 -222 OFFCURVE",
"159 -183 OFFCURVE",
"159 -116 CURVE",
"130 -116 LINE",
"130 -165 OFFCURVE",
"110 -193 OFFCURVE",
"50 -193 CURVE",
"50 -222 LINE"
);
}
);
userData = {
com.schriftgestaltung.Glyphs.originalWidth = 318;
};
width = 0;
},
{
anchors = (
{
name = _bottomleft;
position = "{266, 0}";
}
);
layerId = master02;
paths = (
{
closed = 1;
nodes = (
"323 -224 OFFCURVE",
"382 -166 OFFCURVE",
"382 -70 CURVE",
"326 -70 LINE",
"326 -132 OFFCURVE",
"285 -170 OFFCURVE",
"216 -170 CURVE",
"216 -224 LINE"
);
},
{
closed = 1;
nodes = (
"156 -224 OFFCURVE",
"216 -167 OFFCURVE",
"216 -70 CURVE",
"160 -70 LINE",
"160 -132 OFFCURVE",
"119 -170 OFFCURVE",
"50 -170 CURVE",
"50 -224 LINE"
);
}
);
userData = {
com.schriftgestaltung.Glyphs.originalWidth = 432;
};
width = 0;
},
{
anchors = (
{
name = _bottomleft;
position = "{199, 0}";
}
);
layerId = master03;
paths = (
{
closed = 1;
nodes = (
"235 -222 OFFCURVE",
"268 -183 OFFCURVE",
"268 -116 CURVE",
"239 -116 LINE",
"239 -165 OFFCURVE",
"219 -193 OFFCURVE",
"159 -193 CURVE",
"159 -222 LINE"
);
},
{
closed = 1;
nodes = (
"126 -222 OFFCURVE",
"159 -183 OFFCURVE",
"159 -116 CURVE",
"130 -116 LINE",
"130 -165 OFFCURVE",
"110 -193 OFFCURVE",
"50 -193 CURVE",
"50 -222 LINE"
);
}
);
userData = {
com.schriftgestaltung.Glyphs.originalWidth = 318;
};
width = 0;
},
{
anchors = (
{
name = _bottomleft;
position = "{260, 0}";
}
);
layerId = master04;
paths = (
{
closed = 1;
nodes = (
"310 -205 OFFCURVE",
"362 -154 OFFCURVE",
"362 -70 CURVE",
"312 -70 LINE",
"312 -124 OFFCURVE",
"277 -158 OFFCURVE",
"216 -158 CURVE",
"216 -205 LINE"
);
},
{
closed = 1;
nodes = (
"163 -205 OFFCURVE",
"216 -155 OFFCURVE",
"216 -70 CURVE",
"167 -70 LINE",
"167 -124 OFFCURVE",
"131 -158 OFFCURVE",
"70 -158 CURVE",
"70 -205 LINE"
);
}
);
userData = {
com.schriftgestaltung.Glyphs.originalWidth = 432;
};
width = 0;
}
);
note = "\012uni05A6\012";
unicode = 05A6;
},
{
glyphname = "merkhaleft-hb";
layers = (
{
anchors = (
{
name = _bottomleft;
position = "{159, 0}";
}
);
layerId = master01;
paths = (
{
closed = 1;
nodes = (
"126 -188 OFFCURVE",
"159 -149 OFFCURVE",
"159 -82 CURVE",
"130 -82 LINE",
"130 -131 OFFCURVE",
"110 -159 OFFCURVE",
"50 -159 CURVE",
"50 -188 LINE"
);
}
);
userData = {
com.schriftgestaltung.Glyphs.originalWidth = 209;
};
width = 0;
},
{
anchors = (
{
name = _bottomleft;
position = "{214, 0}";
}
);
layerId = master02;
paths = (
{
closed = 1;
nodes = (
"155 -224 OFFCURVE",
"214 -167 OFFCURVE",
"214 -70 CURVE",
"159 -70 LINE",
"159 -132 OFFCURVE",
"118 -170 OFFCURVE",
"50 -170 CURVE",
"50 -224 LINE"
);
}
);
userData = {
com.schriftgestaltung.Glyphs.originalWidth = 264;
};
width = 0;
},
{
anchors = (
{
name = _bottomleft;
position = "{159, 0}";
}
);
layerId = master03;
paths = (
{
closed = 1;
nodes = (
"126 -188 OFFCURVE",
"159 -149 OFFCURVE",
"159 -82 CURVE",
"130 -82 LINE",
"130 -131 OFFCURVE",
"110 -159 OFFCURVE",
"50 -159 CURVE",
"50 -188 LINE"
);
}
);
userData = {
com.schriftgestaltung.Glyphs.originalWidth = 209;
};
width = 0;
},
{
anchors = (
{
name = _bottomleft;
position = "{204, 0}";
}
);
layerId = master04;
paths = (
{
closed = 1;
nodes = (
"152 -205 OFFCURVE",
"204 -155 OFFCURVE",
"204 -70 CURVE",
"156 -70 LINE",
"156 -124 OFFCURVE",
"120 -158 OFFCURVE",
"60 -158 CURVE",
"60 -205 LINE"
);
}
);
userData = {
com.schriftgestaltung.Glyphs.originalWidth = 264;
};
width = 0;
}
);
note = "\012uni05A5\012";
unicode = 05A5;
},
{
glyphname = "munahleft-hb";
layers = (
{
anchors = (
{
name = _bottomleft;
position = "{185, 0}";
}
);
layerId = master01;
paths = (
{
closed = 1;
nodes = (
"185 -213 LINE",
"185 -82 LINE",
"159 -82 LINE",
"159 -187 LINE",
"50 -187 LINE",
"50 -213 LINE"
);
}
);
userData = {
com.schriftgestaltung.Glyphs.originalWidth = 235;
};
width = 0;
},
{
anchors = (
{
name = _bottomleft;
position = "{214, 0}";
}
);
layerId = master02;
paths = (
{
closed = 1;
nodes = (
"214 -228 LINE",
"214 -70 LINE",
"159 -70 LINE",
"159 -174 LINE",
"50 -174 LINE",
"50 -228 LINE"
);
}
);
userData = {
com.schriftgestaltung.Glyphs.originalWidth = 264;
};
width = 0;
},
{
anchors = (
{
name = _bottomleft;
position = "{185, 0}";
}
);
layerId = master03;
paths = (
{
closed = 1;
nodes = (
"185 -213 LINE",
"185 -82 LINE",
"159 -82 LINE",
"159 -187 LINE",
"50 -187 LINE",
"50 -213 LINE"
);
}
);
userData = {
com.schriftgestaltung.Glyphs.originalWidth = 235;
};
width = 0;
},
{
anchors = (
{
name = _bottomleft;
position = "{204, 0}";
}
);
layerId = master04;
paths = (
{
closed = 1;
nodes = (
"204 -209 LINE",
"204 -70 LINE",
"156 -70 LINE",
"156 -161 LINE",
"60 -161 LINE",
"60 -209 LINE"
);
}
);
userData = {
com.schriftgestaltung.Glyphs.originalWidth = 264;
};
width = 0;
}
);
note = "\012uni05A3\012";
unicode = 05A3;
},
{
glyphname = "nun-hb";
layers = (
{
anchors = (
{
name = bottom;
position = "{162, 0}";
},
{
name = bottomleft;
position = "{21, 0}";
},
{
name = center;
position = "{120, 296}";
},
{
name = top;
position = "{151, 528}";
},
{
name = topleft;
position = "{72, 528}";
}
);
layerId = master01;
paths = (
{
closed = 1;
nodes = (
"268 0 LINE",
"268 479 LINE SMOOTH",
"268 548 OFFCURVE",
"230 584 OFFCURVE",
"176 584 CURVE SMOOTH",
"96 584 LINE",
"91 557 LINE",
"171 557 LINE SMOOTH",
"211 557 OFFCURVE",
"236 529 OFFCURVE",
"236 476 CURVE SMOOTH",
"236 0 LINE"
);
},
{
closed = 1;
nodes = (
"251 0 LINE",
"251 27 LINE",
"55 27 LINE",
"55 0 LINE"
);
}
);
width = 353;
},
{
anchors = (
{
name = bottom;
position = "{177, 0}";
},
{
name = bottomleft;
position = "{-43, 0}";
},
{
name = center;
position = "{81, 306}";
},
{
name = top;
position = "{193, 553}";
},
{
name = topleft;
position = "{20, 553}";
}
);
layerId = master02;
paths = (
{
closed = 1;
nodes = (
"367 0 LINE",
"367 411 LINE SMOOTH",
"367 540 OFFCURVE",
"301 609 OFFCURVE",
"156 609 CURVE SMOOTH",
"75 609 LINE",
"55 451 LINE",
"103 451 LINE SMOOTH",
"156 451 OFFCURVE",
"175 440 OFFCURVE",
"175 392 CURVE SMOOTH",
"175 0 LINE"
);
},
{
closed = 1;
nodes = (
"267 0 LINE",
"267 158 LINE",
"35 158 LINE",
"35 0 LINE"
);
}
);
width = 421;
},
{
anchors = (
{
name = bottom;
position = "{99, 0}";
},
{
name = bottomleft;
position = "{23, 0}";
},
{
name = center;
position = "{66, 296}";
},
{
name = top;
position = "{122, 528}";
},
{
name = topleft;
position = "{64, 528}";
}
);
layerId = master03;
paths = (
{
closed = 1;
nodes = (
"177 0 LINE",
"177 479 LINE SMOOTH",
"177 548 OFFCURVE",
"149 584 OFFCURVE",
"95 584 CURVE SMOOTH",
"45 584 LINE",
"40 557 LINE",
"90 557 LINE SMOOTH",
"130 557 OFFCURVE",
"145 529 OFFCURVE",
"145 476 CURVE SMOOTH",
"145 0 LINE"
);
},
{
closed = 1;
nodes = (
"160 0 LINE",
"160 27 LINE",
"34 27 LINE",
"34 0 LINE"
);
}
);
width = 236;
},
{
anchors = (
{
name = bottom;
position = "{169, 0}";
},
{
name = bottomleft;
position = "{-7, 0}";
},
{
name = center;
position = "{64, 306}";
},
{
name = top;
position = "{185, 553}";
},
{
name = topleft;
position = "{56, 553}";
}
);
layerId = master04;
paths = (
{
closed = 1;
nodes = (
"322 0 LINE",
"322 411 LINE SMOOTH",
"322 540 OFFCURVE",
"274 609 OFFCURVE",
"129 609 CURVE SMOOTH",
"58 609 LINE",
"38 451 LINE",
"76 451 LINE SMOOTH",
"129 451 OFFCURVE",
"130 440 OFFCURVE",
"130 392 CURVE SMOOTH",
"130 0 LINE"
);
},
{
closed = 1;
nodes = (
"222 0 LINE",
"222 158 LINE",
"28 158 LINE",
"28 0 LINE"
);
}
);
width = 366;
}
);
unicode = 05E0;
},
{
glyphname = "nunhafukha-hb";
layers = (
{
layerId = master01;
paths = (
{
closed = 1;
nodes = (
"315 0 LINE",
"315 27 LINE",
"111 27 LINE",
"111 416 LINE SMOOTH",
"111 518 OFFCURVE",
"162 557 OFFCURVE",
"250 557 CURVE SMOOTH",
"280 557 LINE",
"280 584 LINE",
"245 584 LINE SMOOTH",
"144 584 OFFCURVE",
"85 531 OFFCURVE",
"85 419 CURVE SMOOTH",
"85 0 LINE"
);
}
);
width = 350;
},
{
layerId = master02;
paths = (
{
closed = 1;
nodes = (
"449 0 LINE",
"449 158 LINE",
"262 158 LINE",
"262 416 LINE SMOOTH",
"262 440 OFFCURVE",
"271 451 OFFCURVE",
"296 451 CURVE SMOOTH",
"416 451 LINE",
"416 609 LINE",
"243 609 LINE SMOOTH",
"126 609 OFFCURVE",
"70 540 OFFCURVE",
"70 435 CURVE SMOOTH",
"70 0 LINE"
);
}
);
width = 474;
},
{
layerId = master03;
paths = (
{
closed = 1;
nodes = (
"210 0 LINE",
"210 29 LINE",
"96 29 LINE",
"96 479 LINE",
"96 537 OFFCURVE",
"109 557 OFFCURVE",
"152 557 CURVE SMOOTH",
"184 557 LINE",
"184 584 LINE",
"147 584 LINE SMOOTH",
"93 584 OFFCURVE",
"70 553 OFFCURVE",
"70 487 CURVE SMOOTH",
"70 0 LINE"
);
}
);
width = 245;
},
{
layerId = master04;
paths = (
{
closed = 1;
nodes = (
"338 0 LINE",
"338 146 LINE",
"220 146 LINE",
"220 409 LINE SMOOTH",
"220 445 OFFCURVE",
"233 463 OFFCURVE",
"260 463 CURVE SMOOTH",
"306 463 LINE",
"306 609 LINE",
"204 609 LINE SMOOTH",
"95 609 OFFCURVE",
"50 547 OFFCURVE",
"50 417 CURVE SMOOTH",
"50 0 LINE"
);
}
);
width = 358;
}
);
note = "\012uni05C6\012";
unicode = 05C6;
},
{
glyphname = "ole-hb";
layers = (
{
anchors = (
{
name = _top;
position = "{101, 528}";
}
);
layerId = master01;
paths = (
{
closed = 1;
nodes = (
"154 647 LINE",
"80 722 LINE",
"151 794 LINE",
"121 794 LINE",
"50 723 LINE",
"125 647 LINE"
);
}
);
userData = {
com.schriftgestaltung.Glyphs.originalWidth = 204;
};
width = 0;
},
{
anchors = (
{
name = _top;
position = "{132, 553}";
}
);
layerId = master02;
paths = (
{
closed = 1;
nodes = (
"214 633 LINE",
"123 725 LINE",
"214 816 LINE",
"141 816 LINE",
"50 725 LINE",
"141 633 LINE"
);
}
);
userData = {
com.schriftgestaltung.Glyphs.originalWidth = 264;
};
width = 0;
},
{
anchors = (
{
name = _top;
position = "{101, 528}";
}
);
layerId = master03;
paths = (
{
closed = 1;
nodes = (
"154 647 LINE",
"80 722 LINE",
"151 794 LINE",
"121 794 LINE",
"50 723 LINE",
"125 647 LINE"
);
}
);
userData = {
com.schriftgestaltung.Glyphs.originalWidth = 204;
};
width = 0;
},
{
anchors = (
{
name = _top;
position = "{132, 553}";
}
);
layerId = master04;
paths = (
{
closed = 1;
nodes = (
"204 633 LINE",
"124 714 LINE",
"204 794 LINE",
"140 794 LINE",
"60 714 LINE",
"140 633 LINE"
);
}
);
userData = {
com.schriftgestaltung.Glyphs.originalWidth = 264;
};
width = 0;
}
);
note = "\012uni05AB\012";
unicode = 05AB;
},
{
glyphname = "paseq-hb";
layers = (
{
layerId = master01;
paths = (
{
closed = 1;
nodes = (
"253 -251 LINE",
"278 -251 LINE",
"278 763 LINE",
"253 763 LINE"
);
}
);
width = 535;
},
{
layerId = master02;
paths = (
{
closed = 1;
nodes = (
"189 -218 LINE",
"320 -218 LINE",
"320 760 LINE",
"189 760 LINE"
);
}
);
width = 509;
},
{
layerId = master03;
paths = (
{
closed = 1;
nodes = (
"176 -242 LINE",
"202 -242 LINE",
"202 761 LINE",
"176 761 LINE"
);
}
);
width = 378;
},
{
layerId = master04;
paths = (
{
closed = 1;
nodes = (
"189 -218 LINE",
"320 -218 LINE",
"320 760 LINE",
"189 760 LINE"
);
}
);
width = 509;
}
);
note = "\012paseq\012";
unicode = 05C0;
},
{
glyphname = "pashta-hb";
layers = (
{
anchors = (
{
name = _topleft;
position = "{159, 528}";
}
);
layerId = master01;
paths = (
{
closed = 1;
nodes = (
"159 650 LINE",
"159 717 OFFCURVE",
"126 756 OFFCURVE",
"50 756 CURVE",
"50 727 LINE",
"110 727 OFFCURVE",
"130 699 OFFCURVE",
"130 650 CURVE"
);
}
);
userData = {
com.schriftgestaltung.Glyphs.originalWidth = 209;
};
width = 0;
},
{
anchors = (
{
name = _topleft;
position = "{214, 553}";
}
);
layerId = master02;
paths = (
{
closed = 1;
nodes = (
"214 650 LINE",
"214 749 OFFCURVE",
"153 805 OFFCURVE",
"50 805 CURVE",
"50 750 LINE",
"120 750 OFFCURVE",
"159 713 OFFCURVE",
"159 650 CURVE"
);
}
);
userData = {
com.schriftgestaltung.Glyphs.originalWidth = 264;
};
width = 0;
},
{
anchors = (
{
name = _topleft;
position = "{159, 528}";
}
);
layerId = master03;
paths = (
{
closed = 1;
nodes = (
"159 650 LINE",
"159 717 OFFCURVE",
"126 756 OFFCURVE",
"50 756 CURVE",
"50 727 LINE",
"110 727 OFFCURVE",
"130 699 OFFCURVE",
"130 650 CURVE"
);
}
);
userData = {
com.schriftgestaltung.Glyphs.originalWidth = 209;
};
width = 0;
},
{
anchors = (
{
name = _topleft;
position = "{204, 553}";
}
);
layerId = master04;
paths = (
{
closed = 1;
nodes = (
"204 650 LINE",
"204 737 OFFCURVE",
"150 786 OFFCURVE",
"60 786 CURVE",
"60 738 LINE",
"121 738 OFFCURVE",
"156 705 OFFCURVE",
"156 650 CURVE"
);
}
);
userData = {
com.schriftgestaltung.Glyphs.originalWidth = 264;
};
width = 0;
}
);
note = "\012uni0599\012";
unicode = 0599;
},
{
glyphname = "patah-hb";
layers = (
{
anchors = (
{
name = _bottom;
position = "{124, 0}";
}
);
layerId = master01;
paths = (
{
closed = 1;
nodes = (
"198 -107 LINE",
"198 -82 LINE",
"50 -82 LINE",
"50 -107 LINE"
);
}
);
userData = {
com.schriftgestaltung.Glyphs.originalWidth = 248;
};
width = 0;
},
{
anchors = (
{
name = _bottom;
position = "{166, 0}";
}
);
layerId = master02;
paths = (
{
closed = 1;
nodes = (
"277 -136 LINE",
"277 -74 LINE",
"55 -74 LINE",
"55 -136 LINE"
);
}
);
userData = {
com.schriftgestaltung.Glyphs.originalWidth = 332;
};
width = 0;
},
{
anchors = (
{
name = _bottom;
position = "{104, 0}";
}
);
layerId = master03;
paths = (
{
closed = 1;
nodes = (
"158 -107 LINE",
"158 -82 LINE",
"50 -82 LINE",
"50 -107 LINE"
);
}
);
userData = {
com.schriftgestaltung.Glyphs.originalWidth = 208;
};
width = 0;
},
{
anchors = (
{
name = _bottom;
position = "{166, 0}";
}
);
layerId = master04;
paths = (
{
closed = 1;
nodes = (
"263 -127 LINE",
"263 -74 LINE",
"69 -74 LINE",
"69 -127 LINE"
);
}
);
userData = {
com.schriftgestaltung.Glyphs.originalWidth = 332;
};
width = 0;
}
);
note = "\012patah\012";
unicode = 05B7;
},
{
glyphname = "pazer-hb";
layers = (
{
anchors = (
{
name = _top;
position = "{115, 528}";
}
);
layerId = master01;
paths = (
{
closed = 1;
nodes = (
"83 620 LINE",
"83 653 LINE",
"91 649 OFFCURVE",
"102 646 OFFCURVE",
"114 646 CURVE SMOOTH",
"153 647 OFFCURVE",
"171 665 OFFCURVE",
"171 708 CURVE SMOOTH",
"171 734 LINE",
"146 734 LINE",
"146 708 LINE SMOOTH",
"146 681 OFFCURVE",
"137 670 OFFCURVE",
"115 670 CURVE SMOOTH",
"92 670 OFFCURVE",
"83 681 OFFCURVE",
"83 708 CURVE SMOOTH",
"83 734 LINE",
"58 734 LINE",
"58 620 LINE"
);
}
);
userData = {
com.schriftgestaltung.Glyphs.originalWidth = 229;
};
width = 0;
},
{
anchors = (
{
name = _top;
position = "{134, 553}";
}
);
layerId = master02;
paths = (
{
closed = 1;
nodes = (
"101 635 LINE",
"101 686 LINE",
"109 682 OFFCURVE",
"119 681 OFFCURVE",
"130 681 CURVE SMOOTH",
"189 681 OFFCURVE",
"218 718 OFFCURVE",
"218 778 CURVE SMOOTH",
"218 803 LINE",
"166 803 LINE",
"166 778 LINE SMOOTH",
"166 740 OFFCURVE",
"155 727 OFFCURVE",
"123 727 CURVE SMOOTH",
"111 727 OFFCURVE",
"105 729 OFFCURVE",
"101 734 CURVE",
"101 803 LINE",
"50 803 LINE",
"50 635 LINE"
);
}
);
userData = {
com.schriftgestaltung.Glyphs.originalWidth = 268;
};
width = 0;
},
{
anchors = (
{
name = _top;
position = "{107, 528}";
}
);
layerId = master03;
paths = (
{
closed = 1;
nodes = (
"75 620 LINE",
"75 653 LINE",
"83 649 OFFCURVE",
"94 646 OFFCURVE",
"106 646 CURVE SMOOTH",
"145 647 OFFCURVE",
"163 665 OFFCURVE",
"163 708 CURVE SMOOTH",
"163 734 LINE",
"138 734 LINE",
"138 708 LINE SMOOTH",
"138 681 OFFCURVE",
"129 670 OFFCURVE",
"107 670 CURVE SMOOTH",
"84 670 OFFCURVE",
"75 681 OFFCURVE",
"75 708 CURVE SMOOTH",
"75 734 LINE",
"50 734 LINE",
"50 620 LINE"
);
}
);
userData = {
com.schriftgestaltung.Glyphs.originalWidth = 213;
};
width = 0;
},
{
anchors = (
{
name = _top;
position = "{134, 553}";
}
);
layerId = master04;
paths = (
{
closed = 1;
nodes = (
"105 635 LINE",
"105 680 LINE",
"112 676 OFFCURVE",
"121 675 OFFCURVE",
"130 675 CURVE SMOOTH",
"182 675 OFFCURVE",
"208 708 OFFCURVE",
"208 760 CURVE SMOOTH",
"208 782 LINE",
"162 782 LINE",
"162 760 LINE SMOOTH",
"162 727 OFFCURVE",
"152 716 OFFCURVE",
"124 716 CURVE SMOOTH",
"114 716 OFFCURVE",
"109 717 OFFCURVE",
"105 722 CURVE",
"105 782 LINE",
"60 782 LINE",
"60 635 LINE"
);
}
);
userData = {
com.schriftgestaltung.Glyphs.originalWidth = 268;
};
width = 0;
}
);
note = "\012uni05A1\012";
unicode = 05A1;
},
{
glyphname = "pe-hb";
layers = (
{
anchors = (
{
name = bottom;
position = "{258, 0}";
},
{
name = bottomleft;
position = "{60, 0}";
},
{
name = center;
position = "{337, 270}";
},
{
name = top;
position = "{247, 528}";
},
{
name = topleft;
position = "{60, 528}";
}
);
layerId = master01;
paths = (
{
closed = 1;
nodes = (
"236 0 LINE SMOOTH",
"409 0 OFFCURVE",
"514 122 OFFCURVE",
"514 297 CURVE SMOOTH",
"514 482 OFFCURVE",
"427 594 OFFCURVE",
"275 594 CURVE SMOOTH",
"146 594 OFFCURVE",
"66 513 OFFCURVE",
"66 399 CURVE SMOOTH",
"66 303 OFFCURVE",
"111 234 OFFCURVE",
"208 222 CURVE SMOOTH",
"224 220 OFFCURVE",
"232 220 OFFCURVE",
"239 220 CURVE",
"240 248 LINE",
"234 248 OFFCURVE",
"227 249 OFFCURVE",
"217 250 CURVE SMOOTH",
"135 258 OFFCURVE",
"100 320 OFFCURVE",
"100 399 CURVE SMOOTH",
"100 497 OFFCURVE",
"166 567 OFFCURVE",
"275 567 CURVE SMOOTH",
"406 567 OFFCURVE",
"480 466 OFFCURVE",
"480 297 CURVE SMOOTH",
"480 138 OFFCURVE",
"388 27 OFFCURVE",
"236 27 CURVE SMOOTH",
"82 27 LINE",
"82 0 LINE"
);
}
);
width = 574;
},
{
anchors = (
{
name = bottom;
position = "{312, 0}";
},
{
name = bottomleft;
position = "{38, 0}";
},
{
name = center;
position = "{344, 323}";
},
{
name = top;
position = "{319, 553}";
},
{
name = topleft;
position = "{38, 553}";
}
);
layerId = master02;
paths = (
{
closed = 1;
nodes = (
"260 0 LINE SMOOTH",
"487 0 OFFCURVE",
"616 113 OFFCURVE",
"616 310 CURVE SMOOTH",
"616 502 OFFCURVE",
"503 619 OFFCURVE",
"304 619 CURVE SMOOTH",
"119 619 OFFCURVE",
"30 529 OFFCURVE",
"30 404 CURVE SMOOTH",
"30 300 OFFCURVE",
"88 228 OFFCURVE",
"173 209 CURVE SMOOTH",
"215 200 OFFCURVE",
"244 197 OFFCURVE",
"265 201 CURVE",
"281 337 LINE",
"271 337 OFFCURVE",
"257 341 OFFCURVE",
"245 347 CURVE SMOOTH",
"225 356 OFFCURVE",
"213 374 OFFCURVE",
"213 398 CURVE SMOOTH",
"213 435 OFFCURVE",
"236 461 OFFCURVE",
"304 461 CURVE SMOOTH",
"391 461 OFFCURVE",
"421 403 OFFCURVE",
"421 310 CURVE SMOOTH",
"421 213 OFFCURVE",
"372 158 OFFCURVE",
"280 158 CURVE SMOOTH",
"48 158 LINE",
"48 0 LINE"
);
}
);
width = 646;
},
{
anchors = (
{
name = bottom;
position = "{228, 0}";
},
{
name = bottomleft;
position = "{73, 0}";
},
{
name = center;
position = "{207, 400}";
},
{
name = top;
position = "{207, 528}";
},
{
name = topleft;
position = "{60, 528}";
}
);
layerId = master03;
paths = (
{
closed = 1;
nodes = (
"156 0 LINE SMOOTH",
"296 0 OFFCURVE",
"371 122 OFFCURVE",
"371 297 CURVE SMOOTH",
"371 482 OFFCURVE",
"314 594 OFFCURVE",
"195 594 CURVE SMOOTH",
"99 594 OFFCURVE",
"39 513 OFFCURVE",
"39 399 CURVE SMOOTH",
"39 303 OFFCURVE",
"84 235 OFFCURVE",
"151 222 CURVE SMOOTH",
"167 219 OFFCURVE",
"175 220 OFFCURVE",
"182 220 CURVE",
"183 248 LINE",
"177 248 OFFCURVE",
"170 248 OFFCURVE",
"160 250 CURVE SMOOTH",
"108 260 OFFCURVE",
"73 320 OFFCURVE",
"73 399 CURVE SMOOTH",
"73 497 OFFCURVE",
"119 567 OFFCURVE",
"195 567 CURVE SMOOTH",
"293 567 OFFCURVE",
"337 466 OFFCURVE",
"337 297 CURVE SMOOTH",
"337 138 OFFCURVE",
"275 27 OFFCURVE",
"156 27 CURVE SMOOTH",
"62 27 LINE",
"62 0 LINE"
);
}
);
width = 410;
},
{
anchors = (
{
name = bottom;
position = "{256, 0}";
},
{
name = bottomleft;
position = "{54, 0}";
},
{
name = center;
position = "{260, 397}";
},
{
name = top;
position = "{271, 553}";
},
{
name = topleft;
position = "{54, 553}";
}
);
layerId = master04;
paths = (
{
closed = 1;
nodes = (
"214 0 LINE SMOOTH",
"423 0 OFFCURVE",
"529 115 OFFCURVE",
"529 310 CURVE SMOOTH",
"529 504 OFFCURVE",
"428 619 OFFCURVE",
"257 619 CURVE SMOOTH",
"110 619 OFFCURVE",
"23 539 OFFCURVE",
"23 404 CURVE SMOOTH",
"23 302 OFFCURVE",
"76 230 OFFCURVE",
"166 209 CURVE SMOOTH",
"201 201 OFFCURVE",
"231 198 OFFCURVE",
"248 201 CURVE",
"264 337 LINE",
"251 337 OFFCURVE",
"238 341 OFFCURVE",
"230 349 CURVE SMOOTH",
"215 361 OFFCURVE",
"206 379 OFFCURVE",
"206 398 CURVE SMOOTH",
"206 438 OFFCURVE",
"225 461 OFFCURVE",
"257 461 CURVE SMOOTH",
"305 461 OFFCURVE",
"334 405 OFFCURVE",
"334 310 CURVE SMOOTH",
"334 214 OFFCURVE",
"308 158 OFFCURVE",
"234 158 CURVE SMOOTH",
"51 158 LINE",
"51 0 LINE"
);
}
);
width = 552;
}
);
unicode = 05E4;
},
{
glyphname = "qadma-hb";
layers = (
{
anchors = (
{
name = _topleft;
position = "{145, 528}";
}
);
layerId = master01;
paths = (
{
closed = 1;
nodes = (
"159 650 LINE",
"159 717 OFFCURVE",
"126 756 OFFCURVE",
"50 756 CURVE",
"50 727 LINE",
"110 727 OFFCURVE",
"130 699 OFFCURVE",
"130 650 CURVE"
);
}
);
userData = {
com.schriftgestaltung.Glyphs.originalWidth = 209;
};
width = 0;
},
{
anchors = (
{
name = _topleft;
position = "{187, 553}";
}
);
layerId = master02;
paths = (
{
closed = 1;
nodes = (
"214 636 LINE",
"214 735 OFFCURVE",
"153 791 OFFCURVE",
"50 791 CURVE",
"50 736 LINE",
"120 736 OFFCURVE",
"159 699 OFFCURVE",
"159 636 CURVE"
);
}
);
userData = {
com.schriftgestaltung.Glyphs.originalWidth = 264;
};
width = 0;
},
{
anchors = (
{
name = _topleft;
position = "{145, 528}";
}
);
layerId = master03;
paths = (
{
closed = 1;
nodes = (
"159 650 LINE",
"159 717 OFFCURVE",
"126 756 OFFCURVE",
"50 756 CURVE",
"50 727 LINE",
"110 727 OFFCURVE",
"130 699 OFFCURVE",
"130 650 CURVE"
);
}
);
userData = {
com.schriftgestaltung.Glyphs.originalWidth = 209;
};
width = 0;
},
{
anchors = (
{
name = _topleft;
position = "{180, 553}";
}
);
layerId = master04;
paths = (
{
closed = 1;
nodes = (
"204 636 LINE",
"204 723 OFFCURVE",
"150 772 OFFCURVE",
"60 772 CURVE",
"60 724 LINE",
"121 724 OFFCURVE",
"156 691 OFFCURVE",
"156 636 CURVE"
);
}
);
userData = {
com.schriftgestaltung.Glyphs.originalWidth = 264;
};
width = 0;
}
);
note = "\012uni05A8\012";
unicode = 05A8;
},
{
glyphname = "qamats-hb";
layers = (
{
anchors = (
{
name = _bottom;
position = "{125, 0}";
}
);
layerId = master01;
paths = (
{
closed = 1;
nodes = (
"137 -198 LINE",
"137 -107 LINE",
"199 -107 LINE",
"199 -82 LINE",
"50 -82 LINE",
"50 -107 LINE",
"112 -107 LINE",
"112 -198 LINE"
);
}
);
userData = {
com.schriftgestaltung.Glyphs.originalWidth = 249;
};
width = 0;
},
{
anchors = (
{
name = _bottom;
position = "{166, 0}";
}
);
layerId = master02;
paths = (
{
closed = 1;
nodes = (
"196 -240 LINE",
"196 -136 LINE",
"277 -136 LINE",
"277 -74 LINE",
"55 -74 LINE",
"55 -136 LINE",
"135 -136 LINE",
"135 -240 LINE"
);
}
);
userData = {
com.schriftgestaltung.Glyphs.originalWidth = 332;
};
width = 0;
},
{
anchors = (
{
name = _bottom;
position = "{105, 0}";
}
);
layerId = master03;
paths = (
{
closed = 1;
nodes = (
"117 -198 LINE",
"117 -107 LINE",
"159 -107 LINE",
"159 -82 LINE",
"50 -82 LINE",
"50 -107 LINE",
"92 -107 LINE",
"92 -198 LINE"
);
}
);
userData = {
com.schriftgestaltung.Glyphs.originalWidth = 209;
};
width = 0;
},
{
anchors = (
{
name = _bottom;
position = "{166, 0}";
}
);
layerId = master04;
paths = (
{
closed = 1;
nodes = (
"192 -218 LINE",
"192 -127 LINE",
"263 -127 LINE",
"263 -74 LINE",
"69 -74 LINE",
"69 -127 LINE",
"139 -127 LINE",
"139 -218 LINE"
);
}
);
userData = {
com.schriftgestaltung.Glyphs.originalWidth = 332;
};
width = 0;
}
);
note = "\012qamats\012";
unicode = 05B8;
},
{
glyphname = "qamatsqatan-hb";
layers = (
{
anchors = (
{
name = _bottom;
position = "{97, 0}";
}
);
layerId = master01;
paths = (
{
closed = 1;
nodes = (
"108 -161 LINE",
"108 -107 LINE",
"141 -107 LINE",
"141 -82 LINE",
"50 -82 LINE",
"50 -107 LINE",
"83 -107 LINE",
"83 -161 LINE"
);
}
);
userData = {
com.schriftgestaltung.Glyphs.originalWidth = 191;
};
width = 0;
},
{
anchors = (
{
name = _bottom;
position = "{146, 0}";
}
);
layerId = master02;
paths = (
{
closed = 1;
nodes = (
"176 -210 LINE",
"176 -136 LINE",
"237 -136 LINE",
"237 -74 LINE",
"55 -74 LINE",
"55 -136 LINE",
"115 -136 LINE",
"115 -210 LINE"
);
}
);
userData = {
com.schriftgestaltung.Glyphs.originalWidth = 292;
};
width = 0;
},
{
anchors = (
{
name = _bottom;
position = "{97, 0}";
}
);
layerId = master03;
paths = (
{
closed = 1;
nodes = (
"108 -161 LINE",
"108 -107 LINE",
"141 -107 LINE",
"141 -82 LINE",
"50 -82 LINE",
"50 -107 LINE",
"83 -107 LINE",
"83 -161 LINE"
);
}
);
userData = {
com.schriftgestaltung.Glyphs.originalWidth = 191;
};
width = 0;
},
{
anchors = (
{
name = _bottom;
position = "{146, 0}";
}
);
layerId = master04;
paths = (
{
closed = 1;
nodes = (
"172 -192 LINE",
"172 -127 LINE",
"225 -127 LINE",
"225 -74 LINE",
"67 -74 LINE",
"67 -127 LINE",
"119 -127 LINE",
"119 -192 LINE"
);
}
);
userData = {
com.schriftgestaltung.Glyphs.originalWidth = 292;
};
width = 0;
}
);
note = "\012qamatsqatan\012";
unicode = 05C7;
},
{
glyphname = "qarneypara-hb";
layers = (
{
anchors = (
{
name = _top;
position = "{196, 528}";
}
);
layerId = master01;
paths = (
{
closed = 1;
nodes = (
"256 673 LINE",
"264 669 OFFCURVE",
"274 667 OFFCURVE",
"284 667 CURVE SMOOTH",
"317 667 OFFCURVE",
"342 693 OFFCURVE",
"342 725 CURVE SMOOTH",
"342 757 OFFCURVE",
"316 782 OFFCURVE",
"284 782 CURVE SMOOTH",
"252 782 OFFCURVE",
"226 757 OFFCURVE",
"226 725 CURVE SMOOTH",
"226 714 OFFCURVE",
"229 704 OFFCURVE",
"234 696 CURVE",
"210 672 LINE",
"232 650 LINE"
);
},
{
closed = 1;
nodes = (
"182 672 LINE",
"158 696 LINE",
"163 704 OFFCURVE",
"166 714 OFFCURVE",
"166 725 CURVE SMOOTH",
"166 757 OFFCURVE",
"140 782 OFFCURVE",
"108 782 CURVE SMOOTH",
"76 782 OFFCURVE",
"50 757 OFFCURVE",
"50 725 CURVE SMOOTH",
"50 693 OFFCURVE",
"75 667 OFFCURVE",
"108 667 CURVE SMOOTH",
"118 667 OFFCURVE",
"128 669 OFFCURVE",
"136 673 CURVE",
"160 650 LINE"
);
},
{
closed = 1;
nodes = (
"90 692 OFFCURVE",
"75 707 OFFCURVE",
"75 725 CURVE SMOOTH",
"75 742 OFFCURVE",
"91 758 OFFCURVE",
"109 758 CURVE SMOOTH",
"126 758 OFFCURVE",
"141 743 OFFCURVE",
"141 725 CURVE SMOOTH",
"141 706 OFFCURVE",
"126 692 OFFCURVE",
"109 692 CURVE SMOOTH"
);
},
{
closed = 1;
nodes = (
"266 692 OFFCURVE",
"251 706 OFFCURVE",
"251 725 CURVE SMOOTH",
"251 743 OFFCURVE",
"266 758 OFFCURVE",
"283 758 CURVE SMOOTH",
"301 758 OFFCURVE",
"317 742 OFFCURVE",
"317 725 CURVE SMOOTH",
"317 707 OFFCURVE",
"302 692 OFFCURVE",
"283 692 CURVE SMOOTH"
);
}
);
userData = {
com.schriftgestaltung.Glyphs.originalWidth = 392;
};
width = 0;
},
{
anchors = (
{
name = _top;
position = "{300, 553}";
}
);
layerId = master02;
paths = (
{
closed = 1;
nodes = (
"396 670 LINE",
"411 663 OFFCURVE",
"428 659 OFFCURVE",
"446 659 CURVE SMOOTH",
"505 659 OFFCURVE",
"550 705 OFFCURVE",
"550 762 CURVE SMOOTH",
"550 820 OFFCURVE",
"503 864 OFFCURVE",
"446 864 CURVE SMOOTH",
"389 864 OFFCURVE",
"343 819 OFFCURVE",
"343 762 CURVE SMOOTH",
"343 743 OFFCURVE",
"348 725 OFFCURVE",
"357 711 CURVE",
"314 668 LINE",
"354 629 LINE"
);
},
{
closed = 1;
nodes = (
"286 668 LINE",
"243 711 LINE",
"252 725 OFFCURVE",
"257 743 OFFCURVE",
"257 762 CURVE SMOOTH",
"257 819 OFFCURVE",
"211 864 OFFCURVE",
"154 864 CURVE SMOOTH",
"97 864 OFFCURVE",
"50 819 OFFCURVE",
"50 762 CURVE SMOOTH",
"50 705 OFFCURVE",
"95 659 OFFCURVE",
"154 659 CURVE SMOOTH",
"172 659 OFFCURVE",
"189 663 OFFCURVE",
"204 670 CURVE",
"246 629 LINE"
);
},
{
closed = 1;
nodes = (
"126 710 OFFCURVE",
"102 734 OFFCURVE",
"102 762 CURVE SMOOTH",
"102 789 OFFCURVE",
"127 813 OFFCURVE",
"155 813 CURVE SMOOTH",
"181 813 OFFCURVE",
"205 790 OFFCURVE",
"205 762 CURVE SMOOTH",
"205 733 OFFCURVE",
"182 710 OFFCURVE",
"155 710 CURVE SMOOTH"
);
},
{
closed = 1;
nodes = (
"418 710 OFFCURVE",
"395 733 OFFCURVE",
"395 762 CURVE SMOOTH",
"395 790 OFFCURVE",
"419 813 OFFCURVE",
"445 813 CURVE SMOOTH",
"473 813 OFFCURVE",
"498 789 OFFCURVE",
"498 762 CURVE SMOOTH",
"498 734 OFFCURVE",
"474 710 OFFCURVE",
"445 710 CURVE SMOOTH"
);
}
);
userData = {
com.schriftgestaltung.Glyphs.originalWidth = 600;
};
width = 0;
},
{
anchors = (
{
name = _top;
position = "{191, 528}";
}
);
layerId = master03;
paths = (
{
closed = 1;
nodes = (
"246 673 LINE",
"254 669 OFFCURVE",
"264 667 OFFCURVE",
"274 667 CURVE SMOOTH",
"307 667 OFFCURVE",
"332 693 OFFCURVE",
"332 725 CURVE SMOOTH",
"332 757 OFFCURVE",
"306 782 OFFCURVE",
"274 782 CURVE SMOOTH",
"242 782 OFFCURVE",
"216 757 OFFCURVE",
"216 725 CURVE SMOOTH",
"216 714 OFFCURVE",
"219 704 OFFCURVE",
"224 696 CURVE",
"200 672 LINE",
"222 650 LINE"
);
},
{
closed = 1;
nodes = (
"182 672 LINE",
"158 696 LINE",
"163 704 OFFCURVE",
"166 714 OFFCURVE",
"166 725 CURVE SMOOTH",
"166 757 OFFCURVE",
"140 782 OFFCURVE",
"108 782 CURVE SMOOTH",
"76 782 OFFCURVE",
"50 757 OFFCURVE",
"50 725 CURVE SMOOTH",
"50 693 OFFCURVE",
"75 667 OFFCURVE",
"108 667 CURVE SMOOTH",
"118 667 OFFCURVE",
"128 669 OFFCURVE",
"136 673 CURVE",
"160 650 LINE"
);
},
{
closed = 1;
nodes = (
"90 692 OFFCURVE",
"75 707 OFFCURVE",
"75 725 CURVE SMOOTH",
"75 742 OFFCURVE",
"91 758 OFFCURVE",
"109 758 CURVE SMOOTH",
"126 758 OFFCURVE",
"141 743 OFFCURVE",
"141 725 CURVE SMOOTH",
"141 706 OFFCURVE",
"126 692 OFFCURVE",
"109 692 CURVE SMOOTH"
);
},
{
closed = 1;
nodes = (
"256 692 OFFCURVE",
"241 706 OFFCURVE",
"241 725 CURVE SMOOTH",
"241 743 OFFCURVE",
"256 758 OFFCURVE",
"273 758 CURVE SMOOTH",
"291 758 OFFCURVE",
"307 742 OFFCURVE",
"307 725 CURVE SMOOTH",
"307 707 OFFCURVE",
"292 692 OFFCURVE",
"273 692 CURVE SMOOTH"
);
}
);
userData = {
com.schriftgestaltung.Glyphs.originalWidth = 382;
};
width = 0;
},
{
anchors = (
{
name = _top;
position = "{300, 553}";
}
);
layerId = master04;
paths = (
{
closed = 1;
nodes = (
"384 665 LINE",
"397 659 OFFCURVE",
"412 655 OFFCURVE",
"428 655 CURVE SMOOTH",
"480 655 OFFCURVE",
"519 696 OFFCURVE",
"519 746 CURVE SMOOTH",
"519 797 OFFCURVE",
"478 835 OFFCURVE",
"428 835 CURVE SMOOTH",
"378 835 OFFCURVE",
"338 796 OFFCURVE",
"338 746 CURVE SMOOTH",
"338 729 OFFCURVE",
"342 713 OFFCURVE",
"350 701 CURVE",
"312 663 LINE",
"347 629 LINE"
);
},
{
closed = 1;
nodes = (
"288 663 LINE",
"250 701 LINE",
"258 713 OFFCURVE",
"262 729 OFFCURVE",
"262 746 CURVE SMOOTH",
"262 796 OFFCURVE",
"222 835 OFFCURVE",
"172 835 CURVE SMOOTH",
"122 835 OFFCURVE",
"81 796 OFFCURVE",
"81 746 CURVE SMOOTH",
"81 696 OFFCURVE",
"120 655 OFFCURVE",
"172 655 CURVE SMOOTH",
"188 655 OFFCURVE",
"203 659 OFFCURVE",
"216 665 CURVE",
"253 629 LINE"
);
},
{
closed = 1;
nodes = (
"147 700 OFFCURVE",
"126 721 OFFCURVE",
"126 746 CURVE SMOOTH",
"126 769 OFFCURVE",
"148 790 OFFCURVE",
"173 790 CURVE SMOOTH",
"196 790 OFFCURVE",
"217 770 OFFCURVE",
"217 746 CURVE SMOOTH",
"217 720 OFFCURVE",
"196 700 OFFCURVE",
"173 700 CURVE SMOOTH"
);
},
{
closed = 1;
nodes = (
"404 700 OFFCURVE",
"383 720 OFFCURVE",
"383 746 CURVE SMOOTH",
"383 770 OFFCURVE",
"404 790 OFFCURVE",
"427 790 CURVE SMOOTH",
"452 790 OFFCURVE",
"474 769 OFFCURVE",
"474 746 CURVE SMOOTH",
"474 721 OFFCURVE",
"453 700 OFFCURVE",
"427 700 CURVE SMOOTH"
);
}
);
userData = {
com.schriftgestaltung.Glyphs.originalWidth = 600;
};
width = 0;
}
);
note = "\012uni059F\012";
unicode = 059F;
},
{
glyphname = "qof-hb";
layers = (
{
anchors = (
{
name = bottom;
position = "{353, 0}";
},
{
name = bottomleft;
position = "{30, 0}";
},
{
name = center;
position = "{260, 296}";
},
{
name = top;
position = "{296, 528}";
},
{
name = topleft;
position = "{70, 528}";
}
);
layerId = master01;
paths = (
{
closed = 1;
nodes = (
"370 0 LINE",
"550 557 LINE",
"558 584 LINE",
"87 584 LINE",
"82 557 LINE",
"518 557 LINE",
"338 0 LINE"
);
},
{
closed = 1;
nodes = (
"149 -195 LINE",
"149 400 LINE",
"117 395 LINE",
"117 -198 LINE"
);
}
);
width = 600;
},
{
anchors = (
{
name = bottom;
position = "{405, 0}";
},
{
name = bottomleft;
position = "{-39, 0}";
},
{
name = center;
position = "{318, 326}";
},
{
name = top;
position = "{334, 553}";
},
{
name = topleft;
position = "{25, 553}";
}
);
layerId = master02;
paths = (
{
closed = 1;
nodes = (
"503 0 LINE",
"642 498 LINE",
"652 609 LINE",
"55 609 LINE",
"35 453 LINE",
"437 453 LINE",
"311 0 LINE"
);
},
{
closed = 1;
nodes = (
"247 -170 LINE",
"247 346 LINE",
"55 336 LINE",
"55 -180 LINE"
);
}
);
width = 672;
},
{
anchors = (
{
name = bottom;
position = "{233, 0}";
},
{
name = bottomleft;
position = "{37, 0}";
},
{
name = center;
position = "{200, 296}";
},
{
name = top;
position = "{236, 528}";
},
{
name = topleft;
position = "{77, 528}";
}
);
layerId = master03;
paths = (
{
closed = 1;
nodes = (
"257 0 LINE",
"397 557 LINE",
"403 584 LINE",
"54 584 LINE",
"49 557 LINE",
"365 557 LINE",
"225 0 LINE"
);
},
{
closed = 1;
nodes = (
"106 -195 LINE",
"106 400 LINE",
"74 395 LINE",
"74 -198 LINE"
);
}
);
width = 437;
},
{
anchors = (
{
name = bottom;
position = "{398, 0}";
},
{
name = bottomleft;
position = "{4, 0}";
},
{
name = center;
position = "{277, 316}";
},
{
name = top;
position = "{298, 553}";
},
{
name = topleft;
position = "{57, 553}";
}
);
layerId = master04;
paths = (
{
closed = 1;
nodes = (
"456 0 LINE",
"545 498 LINE",
"563 609 LINE",
"48 609 LINE",
"28 453 LINE",
"350 453 LINE",
"274 0 LINE"
);
},
{
closed = 1;
nodes = (
"230 -170 LINE",
"230 366 LINE",
"38 356 LINE",
"38 -180 LINE"
);
}
);
width = 576;
}
);
unicode = 05E7;
},
{
glyphname = "qubuts-hb";
layers = (
{
anchors = (
{
name = _bottom;
position = "{130, 0}";
}
);
layerId = master01;
paths = (
{
closed = 1;
nodes = (
"84 -116 OFFCURVE",
"94 -106 OFFCURVE",
"94 -93 CURVE SMOOTH",
"94 -81 OFFCURVE",
"84 -71 OFFCURVE",
"72 -71 CURVE SMOOTH",
"59 -71 OFFCURVE",
"49 -81 OFFCURVE",
"49 -93 CURVE SMOOTH",
"49 -106 OFFCURVE",
"59 -116 OFFCURVE",
"72 -116 CURVE SMOOTH"
);
},
{
closed = 1;
nodes = (
"142 -162 OFFCURVE",
"152 -152 OFFCURVE",
"152 -139 CURVE SMOOTH",
"152 -127 OFFCURVE",
"142 -117 OFFCURVE",
"130 -117 CURVE SMOOTH",
"117 -117 OFFCURVE",
"107 -127 OFFCURVE",
"107 -139 CURVE SMOOTH",
"107 -152 OFFCURVE",
"117 -162 OFFCURVE",
"130 -162 CURVE SMOOTH"
);
},
{
closed = 1;
nodes = (
"200 -206 OFFCURVE",
"210 -196 OFFCURVE",
"210 -183 CURVE SMOOTH",
"210 -171 OFFCURVE",
"200 -161 OFFCURVE",
"188 -161 CURVE SMOOTH",
"175 -161 OFFCURVE",
"165 -171 OFFCURVE",
"165 -183 CURVE SMOOTH",
"165 -196 OFFCURVE",
"175 -206 OFFCURVE",
"188 -206 CURVE SMOOTH"
);
}
);
userData = {
com.schriftgestaltung.Glyphs.originalWidth = 260;
};
width = 0;
},
{
anchors = (
{
name = _bottom;
position = "{208, 0}";
}
);
layerId = master02;
paths = (
{
closed = 1;
nodes = (
"121 -142 OFFCURVE",
"138 -125 OFFCURVE",
"138 -105 CURVE SMOOTH",
"138 -85 OFFCURVE",
"121 -68 OFFCURVE",
"101 -68 CURVE SMOOTH",
"81 -68 OFFCURVE",
"64 -85 OFFCURVE",
"64 -105 CURVE SMOOTH",
"64 -125 OFFCURVE",
"81 -142 OFFCURVE",
"101 -142 CURVE SMOOTH"
);
},
{
closed = 1;
nodes = (
"228 -194 OFFCURVE",
"245 -177 OFFCURVE",
"245 -157 CURVE SMOOTH",
"245 -137 OFFCURVE",
"228 -120 OFFCURVE",
"208 -120 CURVE SMOOTH",
"188 -120 OFFCURVE",
"171 -137 OFFCURVE",
"171 -157 CURVE SMOOTH",
"171 -177 OFFCURVE",
"188 -194 OFFCURVE",
"208 -194 CURVE SMOOTH"
);
},
{
closed = 1;
nodes = (
"335 -247 OFFCURVE",
"352 -230 OFFCURVE",
"352 -210 CURVE SMOOTH",
"352 -190 OFFCURVE",
"335 -173 OFFCURVE",
"315 -173 CURVE SMOOTH",
"295 -173 OFFCURVE",
"278 -190 OFFCURVE",
"278 -210 CURVE SMOOTH",
"278 -230 OFFCURVE",
"295 -247 OFFCURVE",
"315 -247 CURVE SMOOTH"
);
}
);
userData = {
com.schriftgestaltung.Glyphs.originalWidth = 416;
};
width = 0;
},
{
anchors = (
{
name = _bottom;
position = "{125, 0}";
}
);
layerId = master03;
paths = (
{
closed = 1;
nodes = (
"84 -116 OFFCURVE",
"94 -106 OFFCURVE",
"94 -93 CURVE SMOOTH",
"94 -81 OFFCURVE",
"84 -71 OFFCURVE",
"72 -71 CURVE SMOOTH",
"59 -71 OFFCURVE",
"49 -81 OFFCURVE",
"49 -93 CURVE SMOOTH",
"49 -106 OFFCURVE",
"59 -116 OFFCURVE",
"72 -116 CURVE SMOOTH"
);
},
{
closed = 1;
nodes = (
"142 -162 OFFCURVE",
"152 -152 OFFCURVE",
"152 -139 CURVE SMOOTH",
"152 -127 OFFCURVE",
"142 -117 OFFCURVE",
"130 -117 CURVE SMOOTH",
"117 -117 OFFCURVE",
"107 -127 OFFCURVE",
"107 -139 CURVE SMOOTH",
"107 -152 OFFCURVE",
"117 -162 OFFCURVE",
"130 -162 CURVE SMOOTH"
);
},
{
closed = 1;
nodes = (
"200 -206 OFFCURVE",
"210 -196 OFFCURVE",
"210 -183 CURVE SMOOTH",
"210 -171 OFFCURVE",
"200 -161 OFFCURVE",
"188 -161 CURVE SMOOTH",
"175 -161 OFFCURVE",
"165 -171 OFFCURVE",
"165 -183 CURVE SMOOTH",
"165 -196 OFFCURVE",
"175 -206 OFFCURVE",
"188 -206 CURVE SMOOTH"
);
}
);
userData = {
com.schriftgestaltung.Glyphs.originalWidth = 250;
};
width = 0;
},
{
anchors = (
{
name = _bottom;
position = "{208, 0}";
}
);
layerId = master04;
paths = (
{
closed = 1;
nodes = (
"121 -142 OFFCURVE",
"138 -125 OFFCURVE",
"138 -105 CURVE SMOOTH",
"138 -85 OFFCURVE",
"121 -68 OFFCURVE",
"101 -68 CURVE SMOOTH",
"81 -68 OFFCURVE",
"64 -85 OFFCURVE",
"64 -105 CURVE SMOOTH",
"64 -125 OFFCURVE",
"81 -142 OFFCURVE",
"101 -142 CURVE SMOOTH"
);
},
{
closed = 1;
nodes = (
"228 -194 OFFCURVE",
"245 -177 OFFCURVE",
"245 -157 CURVE SMOOTH",
"245 -137 OFFCURVE",
"228 -120 OFFCURVE",
"208 -120 CURVE SMOOTH",
"188 -120 OFFCURVE",
"171 -137 OFFCURVE",
"171 -157 CURVE SMOOTH",
"171 -177 OFFCURVE",
"188 -194 OFFCURVE",
"208 -194 CURVE SMOOTH"
);
},
{
closed = 1;
nodes = (
"335 -247 OFFCURVE",
"352 -230 OFFCURVE",
"352 -210 CURVE SMOOTH",
"352 -190 OFFCURVE",
"335 -173 OFFCURVE",
"315 -173 CURVE SMOOTH",
"295 -173 OFFCURVE",
"278 -190 OFFCURVE",
"278 -210 CURVE SMOOTH",
"278 -230 OFFCURVE",
"295 -247 OFFCURVE",
"315 -247 CURVE SMOOTH"
);
}
);
userData = {
com.schriftgestaltung.Glyphs.originalWidth = 416;
};
width = 0;
}
);
note = "\012qubuts\012";
unicode = 05BB;
},
{
glyphname = "rafe-hb";
layers = (
{
anchors = (
{
name = _top;
position = "{132, 528}";
}
);
layerId = master01;
paths = (
{
closed = 1;
nodes = (
"214 667 LINE",
"214 692 LINE",
"50 692 LINE",
"50 667 LINE"
);
}
);
userData = {
com.schriftgestaltung.Glyphs.originalWidth = 264;
};
width = 0;
},
{
anchors = (
{
name = _top;
position = "{181, 553}";
}
);
layerId = master02;
paths = (
{
closed = 1;
nodes = (
"307 684 LINE",
"307 746 LINE",
"55 746 LINE",
"55 684 LINE"
);
}
);
userData = {
com.schriftgestaltung.Glyphs.originalWidth = 362;
};
width = 0;
},
{
anchors = (
{
name = _top;
position = "{112, 528}";
}
);
layerId = master03;
paths = (
{
closed = 1;
nodes = (
"174 667 LINE",
"174 692 LINE",
"50 692 LINE",
"50 667 LINE"
);
}
);
userData = {
com.schriftgestaltung.Glyphs.originalWidth = 224;
};
width = 0;
},
{
anchors = (
{
name = _top;
position = "{181, 553}";
}
);
layerId = master04;
paths = (
{
closed = 1;
nodes = (
"291 684 LINE",
"291 737 LINE",
"71 737 LINE",
"71 684 LINE"
);
}
);
userData = {
com.schriftgestaltung.Glyphs.originalWidth = 362;
};
width = 0;
}
);
note = "\012rafe\012";
unicode = 05BF;
},
{
glyphname = "resh-hb";
layers = (
{
anchors = (
{
name = bottom;
position = "{402, 0}";
},
{
name = bottomleft;
position = "{196, 0}";
},
{
name = center;
position = "{196, 296}";
},
{
name = top;
position = "{186, 528}";
},
{
name = topleft;
position = "{3, 528}";
}
);
layerId = master01;
paths = (
{
closed = 1;
nodes = (
"418 0 LINE",
"418 419 LINE SMOOTH",
"418 527 OFFCURVE",
"361 584 OFFCURVE",
"255 584 CURVE SMOOTH",
"48 584 LINE",
"43 557 LINE",
"250 557 LINE SMOOTH",
"343 557 OFFCURVE",
"386 511 OFFCURVE",
"386 416 CURVE SMOOTH",
"386 0 LINE"
);
}
);
width = 505;
},
{
anchors = (
{
name = bottom;
position = "{403, 0}";
},
{
name = bottomleft;
position = "{152, 0}";
},
{
name = center;
position = "{152, 306}";
},
{
name = top;
position = "{225, 553}";
},
{
name = topleft;
position = "{-50, 553}";
}
);
layerId = master02;
paths = (
{
closed = 1;
nodes = (
"499 0 LINE",
"499 382 LINE SMOOTH",
"499 533 OFFCURVE",
"414 609 OFFCURVE",
"247 609 CURVE SMOOTH",
"55 609 LINE",
"35 451 LINE",
"238 451 LINE SMOOTH",
"281 451 OFFCURVE",
"307 427 OFFCURVE",
"307 379 CURVE SMOOTH",
"307 0 LINE"
);
}
);
width = 554;
},
{
anchors = (
{
name = bottom;
position = "{264, 0}";
},
{
name = bottomleft;
position = "{69, 0}";
},
{
name = center;
position = "{119, 296}";
},
{
name = top;
position = "{137, 528}";
},
{
name = topleft;
position = "{27, 528}";
}
);
layerId = master03;
paths = (
{
closed = 1;
nodes = (
"280 0 LINE",
"280 419 LINE SMOOTH",
"280 527 OFFCURVE",
"243 584 OFFCURVE",
"137 584 CURVE SMOOTH",
"29 584 LINE",
"24 557 LINE",
"132 557 LINE SMOOTH",
"225 557 OFFCURVE",
"248 511 OFFCURVE",
"248 416 CURVE SMOOTH",
"248 0 LINE"
);
}
);
width = 339;
},
{
anchors = (
{
name = bottom;
position = "{314, 0}";
},
{
name = bottomleft;
position = "{188, 0}";
},
{
name = center;
position = "{125, 306}";
},
{
name = top;
position = "{210, 553}";
},
{
name = topleft;
position = "{19, 553}";
}
);
layerId = master04;
paths = (
{
closed = 1;
nodes = (
"412 0 LINE",
"412 382 LINE SMOOTH",
"412 533 OFFCURVE",
"347 609 OFFCURVE",
"180 609 CURVE SMOOTH",
"38 609 LINE",
"18 451 LINE",
"171 451 LINE SMOOTH",
"214 451 OFFCURVE",
"220 427 OFFCURVE",
"220 379 CURVE SMOOTH",
"220 0 LINE"
);
}
);
width = 450;
}
);
unicode = 05E8;
},
{
glyphname = "reviamugrash-hb";
layers = (
{
anchors = (
{
name = _topleft;
position = "{115, 528}";
}
);
layerId = master01;
paths = (
{
closed = 1;
nodes = (
"131 692 LINE",
"93 735 LINE",
"55 692 LINE",
"93 650 LINE"
);
}
);
userData = {
com.schriftgestaltung.Glyphs.originalWidth = 186;
};
width = 0;
},
{
anchors = (
{
name = _topleft;
position = "{197, 553}";
}
);
layerId = master02;
paths = (
{
closed = 1;
nodes = (
"204 735 LINE",
"127 820 LINE",
"50 735 LINE",
"127 650 LINE"
);
}
);
userData = {
com.schriftgestaltung.Glyphs.originalWidth = 254;
};
width = 0;
},
{
anchors = (
{
name = _topleft;
position = "{110, 528}";
}
);
layerId = master03;
paths = (
{
closed = 1;
nodes = (
"126 692 LINE",
"88 735 LINE",
"50 692 LINE",
"88 650 LINE"
);
}
);
userData = {
com.schriftgestaltung.Glyphs.originalWidth = 176;
};
width = 0;
},
{
anchors = (
{
name = _topleft;
position = "{188, 553}";
}
);
layerId = master04;
paths = (
{
closed = 1;
nodes = (
"195 725 LINE",
"127 799 LINE",
"59 725 LINE",
"127 650 LINE"
);
}
);
userData = {
com.schriftgestaltung.Glyphs.originalWidth = 254;
};
width = 0;
}
);
note = "\012uni0597\012";
unicode = 0597;
},
{
glyphname = "samekh-hb";
layers = (
{
anchors = (
{
name = bottom;
position = "{311, 0}";
},
{
name = bottomleft;
position = "{67, 0}";
},
{
name = center;
position = "{310, 296}";
},
{
name = top;
position = "{315, 528}";
},
{
name = topleft;
position = "{23, 528}";
}
);
layerId = master01;
paths = (
{
closed = 1;
nodes = (
"472 -10 OFFCURVE",
"547 107 OFFCURVE",
"547 331 CURVE SMOOTH",
"547 497 OFFCURVE",
"489 584 OFFCURVE",
"359 584 CURVE SMOOTH",
"55 584 LINE",
"50 557 LINE",
"355 557 LINE SMOOTH",
"467 557 OFFCURVE",
"515 478 OFFCURVE",
"515 328 CURVE SMOOTH",
"515 122 OFFCURVE",
"451 15 OFFCURVE",
"310 15 CURVE SMOOTH",
"180 15 OFFCURVE",
"122 104 OFFCURVE",
"122 295 CURVE SMOOTH",
"122 386 OFFCURVE",
"147 481 OFFCURVE",
"182 552 CURVE",
"199 572 LINE",
"153 562 LINE",
"153 552 LINE",
"118 487 OFFCURVE",
"90 397 OFFCURVE",
"90 308 CURVE",
"90 295 LINE SMOOTH",
"90 88 OFFCURVE",
"159 -10 OFFCURVE",
"310 -10 CURVE SMOOTH"
);
}
);
width = 607;
},
{
anchors = (
{
name = bottom;
position = "{361, 0}";
},
{
name = bottomleft;
position = "{35, 0}";
},
{
name = center;
position = "{362, 306}";
},
{
name = top;
position = "{362, 553}";
},
{
name = topleft;
position = "{-9, 553}";
}
);
layerId = master02;
paths = (
{
closed = 1;
nodes = (
"565 -9 OFFCURVE",
"669 113 OFFCURVE",
"669 320 CURVE SMOOTH",
"669 502 OFFCURVE",
"578 609 OFFCURVE",
"379 609 CURVE SMOOTH",
"55 609 LINE",
"35 451 LINE",
"379 451 LINE SMOOTH",
"458 451 OFFCURVE",
"478 403 OFFCURVE",
"478 322 CURVE SMOOTH",
"478 210 OFFCURVE",
"445 144 OFFCURVE",
"363 144 CURVE SMOOTH",
"279 144 OFFCURVE",
"246 207 OFFCURVE",
"246 314 CURVE SMOOTH",
"246 400 OFFCURVE",
"260 451 OFFCURVE",
"305 451 CURVE",
"305 461 LINE",
"149 460 LINE",
"149 445 LINE",
"94 428 OFFCURVE",
"55 363 OFFCURVE",
"55 268 CURVE",
"55 260 LINE SMOOTH",
"55 92 OFFCURVE",
"159 -9 OFFCURVE",
"363 -9 CURVE SMOOTH"
);
}
);
width = 704;
},
{
anchors = (
{
name = bottom;
position = "{207, 0}";
},
{
name = bottomleft;
position = "{79, 0}";
},
{
name = center;
position = "{203, 296}";
},
{
name = top;
position = "{200, 527}";
},
{
name = topleft;
position = "{35, 527}";
}
);
layerId = master03;
paths = (
{
closed = 1;
nodes = (
"314 -10 OFFCURVE",
"366 97 OFFCURVE",
"366 331 CURVE SMOOTH",
"366 504 OFFCURVE",
"319 584 OFFCURVE",
"218 584 CURVE SMOOTH",
"44 584 LINE",
"39 557 LINE",
"214 557 LINE SMOOTH",
"296 557 OFFCURVE",
"334 485 OFFCURVE",
"334 328 CURVE SMOOTH",
"334 113 OFFCURVE",
"292 15 OFFCURVE",
"199 15 CURVE SMOOTH",
"118 15 OFFCURVE",
"81 103 OFFCURVE",
"81 295 CURVE SMOOTH",
"81 403 OFFCURVE",
"97 483 OFFCURVE",
"131 552 CURVE",
"148 572 LINE",
"102 562 LINE",
"102 552 LINE",
"66 485 OFFCURVE",
"49 408 OFFCURVE",
"49 308 CURVE",
"49 295 LINE SMOOTH",
"49 86 OFFCURVE",
"96 -10 OFFCURVE",
"199 -10 CURVE SMOOTH"
);
}
);
width = 405;
},
{
anchors = (
{
name = bottom;
position = "{302, 0}";
},
{
name = bottomleft;
position = "{77, 0}";
},
{
name = center;
position = "{298, 306}";
},
{
name = top;
position = "{302, 553}";
},
{
name = topleft;
position = "{33, 553}";
}
);
layerId = master04;
paths = (
{
closed = 1;
nodes = (
"467 -9 OFFCURVE",
"566 113 OFFCURVE",
"566 320 CURVE SMOOTH",
"566 502 OFFCURVE",
"473 609 OFFCURVE",
"314 609 CURVE SMOOTH",
"48 609 LINE",
"28 451 LINE",
"324 451 LINE SMOOTH",
"358 451 OFFCURVE",
"377 403 OFFCURVE",
"377 322 CURVE SMOOTH",
"377 210 OFFCURVE",
"348 144 OFFCURVE",
"298 144 CURVE SMOOTH",
"253 144 OFFCURVE",
"227 207 OFFCURVE",
"227 314 CURVE SMOOTH",
"227 400 OFFCURVE",
"246 451 OFFCURVE",
"278 451 CURVE",
"278 461 LINE",
"132 460 LINE",
"132 445 LINE",
"73 427 OFFCURVE",
"38 361 OFFCURVE",
"38 268 CURVE",
"38 260 LINE SMOOTH",
"38 91 OFFCURVE",
"134 -9 OFFCURVE",
"298 -9 CURVE SMOOTH"
);
}
);
width = 594;
}
);
unicode = 05E1;
},
{
glyphname = "segol-hb";
layers = (
{
anchors = (
{
name = _bottom;
position = "{120, 0}";
}
);
layerId = master01;
paths = (
{
closed = 1;
nodes = (
"84 -116 OFFCURVE",
"94 -106 OFFCURVE",
"94 -93 CURVE SMOOTH",
"94 -81 OFFCURVE",
"84 -71 OFFCURVE",
"72 -71 CURVE SMOOTH",
"59 -71 OFFCURVE",
"49 -81 OFFCURVE",
"49 -93 CURVE SMOOTH",
"49 -106 OFFCURVE",
"59 -116 OFFCURVE",
"72 -116 CURVE SMOOTH"
);
},
{
closed = 1;
nodes = (
"180 -116 OFFCURVE",
"190 -106 OFFCURVE",
"190 -93 CURVE SMOOTH",
"190 -81 OFFCURVE",
"180 -71 OFFCURVE",
"168 -71 CURVE SMOOTH",
"155 -71 OFFCURVE",
"145 -81 OFFCURVE",
"145 -93 CURVE SMOOTH",
"145 -106 OFFCURVE",
"155 -116 OFFCURVE",
"168 -116 CURVE SMOOTH"
);
},
{
closed = 1;
nodes = (
"131 -206 OFFCURVE",
"141 -196 OFFCURVE",
"141 -183 CURVE SMOOTH",
"141 -171 OFFCURVE",
"131 -161 OFFCURVE",
"119 -161 CURVE SMOOTH",
"106 -161 OFFCURVE",
"96 -171 OFFCURVE",
"96 -183 CURVE SMOOTH",
"96 -196 OFFCURVE",
"106 -206 OFFCURVE",
"119 -206 CURVE SMOOTH"
);
}
);
userData = {
com.schriftgestaltung.Glyphs.originalWidth = 239;
};
width = 0;
},
{
anchors = (
{
name = _bottom;
position = "{166, 0}";
}
);
layerId = master02;
paths = (
{
closed = 1;
nodes = (
"121 -142 OFFCURVE",
"138 -125 OFFCURVE",
"138 -105 CURVE SMOOTH",
"138 -85 OFFCURVE",
"121 -68 OFFCURVE",
"101 -68 CURVE SMOOTH",
"81 -68 OFFCURVE",
"64 -85 OFFCURVE",
"64 -105 CURVE SMOOTH",
"64 -125 OFFCURVE",
"81 -142 OFFCURVE",
"101 -142 CURVE SMOOTH"
);
},
{
closed = 1;
nodes = (
"250 -142 OFFCURVE",
"267 -125 OFFCURVE",
"267 -105 CURVE SMOOTH",
"267 -85 OFFCURVE",
"250 -68 OFFCURVE",
"230 -68 CURVE SMOOTH",
"210 -68 OFFCURVE",
"193 -85 OFFCURVE",
"193 -105 CURVE SMOOTH",
"193 -125 OFFCURVE",
"210 -142 OFFCURVE",
"230 -142 CURVE SMOOTH"
);
},
{
closed = 1;
nodes = (
"185 -247 OFFCURVE",
"202 -230 OFFCURVE",
"202 -210 CURVE SMOOTH",
"202 -190 OFFCURVE",
"185 -173 OFFCURVE",
"165 -173 CURVE SMOOTH",
"145 -173 OFFCURVE",
"128 -190 OFFCURVE",
"128 -210 CURVE SMOOTH",
"128 -230 OFFCURVE",
"145 -247 OFFCURVE",
"165 -247 CURVE SMOOTH"
);
}
);
userData = {
com.schriftgestaltung.Glyphs.originalWidth = 331;
};
width = 0;
},
{
anchors = (
{
name = _bottom;
position = "{110, 0}";
}
);
layerId = master03;
paths = (
{
closed = 1;
nodes = (
"94 -116 OFFCURVE",
"104 -106 OFFCURVE",
"104 -93 CURVE SMOOTH",
"104 -81 OFFCURVE",
"94 -71 OFFCURVE",
"82 -71 CURVE SMOOTH",
"69 -71 OFFCURVE",
"59 -81 OFFCURVE",
"59 -93 CURVE SMOOTH",
"59 -106 OFFCURVE",
"69 -116 OFFCURVE",
"82 -116 CURVE SMOOTH"
);
},
{
closed = 1;
nodes = (
"170 -116 OFFCURVE",
"180 -106 OFFCURVE",
"180 -93 CURVE SMOOTH",
"180 -81 OFFCURVE",
"170 -71 OFFCURVE",
"158 -71 CURVE SMOOTH",
"145 -71 OFFCURVE",
"135 -81 OFFCURVE",
"135 -93 CURVE SMOOTH",
"135 -106 OFFCURVE",
"145 -116 OFFCURVE",
"158 -116 CURVE SMOOTH"
);
},
{
closed = 1;
nodes = (
"131 -206 OFFCURVE",
"141 -196 OFFCURVE",
"141 -183 CURVE SMOOTH",
"141 -171 OFFCURVE",
"131 -161 OFFCURVE",
"119 -161 CURVE SMOOTH",
"106 -161 OFFCURVE",
"96 -171 OFFCURVE",
"96 -183 CURVE SMOOTH",
"96 -196 OFFCURVE",
"106 -206 OFFCURVE",
"119 -206 CURVE SMOOTH"
);
}
);
userData = {
com.schriftgestaltung.Glyphs.originalWidth = 219;
};
width = 0;
},
{
anchors = (
{
name = _bottom;
position = "{166, 0}";
}
);
layerId = master04;
paths = (
{
closed = 1;
nodes = (
"121 -142 OFFCURVE",
"138 -125 OFFCURVE",
"138 -105 CURVE SMOOTH",
"138 -85 OFFCURVE",
"121 -68 OFFCURVE",
"101 -68 CURVE SMOOTH",
"81 -68 OFFCURVE",
"64 -85 OFFCURVE",
"64 -105 CURVE SMOOTH",
"64 -125 OFFCURVE",
"81 -142 OFFCURVE",
"101 -142 CURVE SMOOTH"
);
},
{
closed = 1;
nodes = (
"250 -142 OFFCURVE",
"267 -125 OFFCURVE",
"267 -105 CURVE SMOOTH",
"267 -85 OFFCURVE",
"250 -68 OFFCURVE",
"230 -68 CURVE SMOOTH",
"210 -68 OFFCURVE",
"193 -85 OFFCURVE",
"193 -105 CURVE SMOOTH",
"193 -125 OFFCURVE",
"210 -142 OFFCURVE",
"230 -142 CURVE SMOOTH"
);
},
{
closed = 1;
nodes = (
"185 -247 OFFCURVE",
"202 -230 OFFCURVE",
"202 -210 CURVE SMOOTH",
"202 -190 OFFCURVE",
"185 -173 OFFCURVE",
"165 -173 CURVE SMOOTH",
"145 -173 OFFCURVE",
"128 -190 OFFCURVE",
"128 -210 CURVE SMOOTH",
"128 -230 OFFCURVE",
"145 -247 OFFCURVE",
"165 -247 CURVE SMOOTH"
);
}
);
userData = {
com.schriftgestaltung.Glyphs.originalWidth = 331;
};
width = 0;
}
);
note = "\012segol\012";
unicode = 05B6;
},
{
glyphname = "segolta-hb";
layers = (
{
anchors = (
{
name = _topleft;
position = "{120, 528}";
}
);
layerId = master01;
paths = (
{
closed = 1;
nodes = (
"132 744 OFFCURVE",
"142 754 OFFCURVE",
"142 767 CURVE SMOOTH",
"142 779 OFFCURVE",
"132 789 OFFCURVE",
"120 789 CURVE SMOOTH",
"107 789 OFFCURVE",
"97 779 OFFCURVE",
"97 767 CURVE SMOOTH",
"97 754 OFFCURVE",
"107 744 OFFCURVE",
"120 744 CURVE SMOOTH"
);
},
{
closed = 1;
nodes = (
"85 655 OFFCURVE",
"95 665 OFFCURVE",
"95 678 CURVE SMOOTH",
"95 690 OFFCURVE",
"85 700 OFFCURVE",
"73 700 CURVE SMOOTH",
"60 700 OFFCURVE",
"50 690 OFFCURVE",
"50 678 CURVE SMOOTH",
"50 665 OFFCURVE",
"60 655 OFFCURVE",
"73 655 CURVE SMOOTH"
);
},
{
closed = 1;
nodes = (
"180 655 OFFCURVE",
"190 665 OFFCURVE",
"190 678 CURVE SMOOTH",
"190 690 OFFCURVE",
"180 700 OFFCURVE",
"168 700 CURVE SMOOTH",
"155 700 OFFCURVE",
"145 690 OFFCURVE",
"145 678 CURVE SMOOTH",
"145 665 OFFCURVE",
"155 655 OFFCURVE",
"168 655 CURVE SMOOTH"
);
}
);
userData = {
com.schriftgestaltung.Glyphs.originalWidth = 239;
};
width = 0;
},
{
anchors = (
{
name = _topleft;
position = "{230, 553}";
}
);
layerId = master02;
paths = (
{
closed = 1;
nodes = (
"188 778 OFFCURVE",
"207 797 OFFCURVE",
"207 820 CURVE SMOOTH",
"207 843 OFFCURVE",
"188 862 OFFCURVE",
"165 862 CURVE SMOOTH",
"142 862 OFFCURVE",
"123 843 OFFCURVE",
"123 820 CURVE SMOOTH",
"123 797 OFFCURVE",
"142 778 OFFCURVE",
"165 778 CURVE SMOOTH"
);
},
{
closed = 1;
nodes = (
"123 672 OFFCURVE",
"142 691 OFFCURVE",
"142 714 CURVE SMOOTH",
"142 737 OFFCURVE",
"123 756 OFFCURVE",
"100 756 CURVE SMOOTH",
"77 756 OFFCURVE",
"58 737 OFFCURVE",
"58 714 CURVE SMOOTH",
"58 691 OFFCURVE",
"77 672 OFFCURVE",
"100 672 CURVE SMOOTH"
);
},
{
closed = 1;
nodes = (
"254 672 OFFCURVE",
"273 691 OFFCURVE",
"273 714 CURVE SMOOTH",
"273 737 OFFCURVE",
"254 756 OFFCURVE",
"231 756 CURVE SMOOTH",
"208 756 OFFCURVE",
"189 737 OFFCURVE",
"189 714 CURVE SMOOTH",
"189 691 OFFCURVE",
"208 672 OFFCURVE",
"231 672 CURVE SMOOTH"
);
}
);
userData = {
com.schriftgestaltung.Glyphs.originalWidth = 331;
};
width = 0;
},
{
anchors = (
{
name = _topleft;
position = "{110, 528}";
}
);
layerId = master03;
paths = (
{
closed = 1;
nodes = (
"122 744 OFFCURVE",
"132 754 OFFCURVE",
"132 767 CURVE SMOOTH",
"132 779 OFFCURVE",
"122 789 OFFCURVE",
"110 789 CURVE SMOOTH",
"97 789 OFFCURVE",
"87 779 OFFCURVE",
"87 767 CURVE SMOOTH",
"87 754 OFFCURVE",
"97 744 OFFCURVE",
"110 744 CURVE SMOOTH"
);
},
{
closed = 1;
nodes = (
"85 655 OFFCURVE",
"95 665 OFFCURVE",
"95 678 CURVE SMOOTH",
"95 690 OFFCURVE",
"85 700 OFFCURVE",
"73 700 CURVE SMOOTH",
"60 700 OFFCURVE",
"50 690 OFFCURVE",
"50 678 CURVE SMOOTH",
"50 665 OFFCURVE",
"60 655 OFFCURVE",
"73 655 CURVE SMOOTH"
);
},
{
closed = 1;
nodes = (
"160 655 OFFCURVE",
"170 665 OFFCURVE",
"170 678 CURVE SMOOTH",
"170 690 OFFCURVE",
"160 700 OFFCURVE",
"148 700 CURVE SMOOTH",
"135 700 OFFCURVE",
"125 690 OFFCURVE",
"125 678 CURVE SMOOTH",
"125 665 OFFCURVE",
"135 655 OFFCURVE",
"148 655 CURVE SMOOTH"
);
}
);
userData = {
com.schriftgestaltung.Glyphs.originalWidth = 219;
};
width = 0;
},
{
anchors = (
{
name = _topleft;
position = "{222, 553}";
}
);
layerId = master04;
paths = (
{
closed = 1;
nodes = (
"188 778 OFFCURVE",
"207 797 OFFCURVE",
"207 820 CURVE SMOOTH",
"207 843 OFFCURVE",
"188 862 OFFCURVE",
"165 862 CURVE SMOOTH",
"142 862 OFFCURVE",
"123 843 OFFCURVE",
"123 820 CURVE SMOOTH",
"123 797 OFFCURVE",
"142 778 OFFCURVE",
"165 778 CURVE SMOOTH"
);
},
{
closed = 1;
nodes = (
"123 672 OFFCURVE",
"142 691 OFFCURVE",
"142 714 CURVE SMOOTH",
"142 737 OFFCURVE",
"123 756 OFFCURVE",
"100 756 CURVE SMOOTH",
"77 756 OFFCURVE",
"58 737 OFFCURVE",
"58 714 CURVE SMOOTH",
"58 691 OFFCURVE",
"77 672 OFFCURVE",
"100 672 CURVE SMOOTH"
);
},
{
closed = 1;
nodes = (
"254 672 OFFCURVE",
"273 691 OFFCURVE",
"273 714 CURVE SMOOTH",
"273 737 OFFCURVE",
"254 756 OFFCURVE",
"231 756 CURVE SMOOTH",
"208 756 OFFCURVE",
"189 737 OFFCURVE",
"189 714 CURVE SMOOTH",
"189 691 OFFCURVE",
"208 672 OFFCURVE",
"231 672 CURVE SMOOTH"
);
}
);
userData = {
com.schriftgestaltung.Glyphs.originalWidth = 331;
};
width = 0;
}
);
note = "\012uni0592\012";
unicode = 0592;
},
{
glyphname = "shalshelet-hb";
layers = (
{
anchors = (
{
name = _top;
position = "{94, 528}";
}
);
layerId = master01;
paths = (
{
closed = 1;
nodes = (
"86 650 LINE",
"132 673 LINE",
"92 696 LINE",
"132 719 LINE",
"92 742 LINE",
"132 765 LINE",
"95 765 LINE",
"55 742 LINE",
"95 719 LINE",
"55 696 LINE",
"95 673 LINE",
"50 650 LINE"
);
}
);
userData = {
com.schriftgestaltung.Glyphs.originalWidth = 188;
};
width = 0;
},
{
anchors = (
{
name = _top;
position = "{129, 553}";
}
);
layerId = master02;
paths = (
{
closed = 1;
nodes = (
"114 659 LINE",
"208 705 LINE",
"125 751 LINE",
"208 798 LINE",
"125 844 LINE",
"208 890 LINE",
"133 890 LINE",
"50 844 LINE",
"133 798 LINE",
"50 751 LINE",
"133 705 LINE",
"50 659 LINE"
);
}
);
userData = {
com.schriftgestaltung.Glyphs.originalWidth = 258;
};
width = 0;
},
{
anchors = (
{
name = _top;
position = "{94, 528}";
}
);
layerId = master03;
paths = (
{
closed = 1;
nodes = (
"86 650 LINE",
"132 673 LINE",
"92 696 LINE",
"132 719 LINE",
"92 742 LINE",
"132 765 LINE",
"95 765 LINE",
"55 742 LINE",
"95 719 LINE",
"55 696 LINE",
"95 673 LINE",
"50 650 LINE"
);
}
);
userData = {
com.schriftgestaltung.Glyphs.originalWidth = 182;
};
width = 0;
},
{
anchors = (
{
name = _top;
position = "{129, 553}";
}
);
layerId = master04;
paths = (
{
closed = 1;
nodes = (
"116 659 LINE",
"198 699 LINE",
"125 740 LINE",
"198 781 LINE",
"125 821 LINE",
"198 862 LINE",
"133 862 LINE",
"60 821 LINE",
"133 781 LINE",
"60 740 LINE",
"133 699 LINE",
"60 659 LINE"
);
}
);
userData = {
com.schriftgestaltung.Glyphs.originalWidth = 258;
};
width = 0;
}
);
note = "\012uni0593\012";
unicode = 0593;
},
{
glyphname = sheqel;
layers = (
{
layerId = master01;
paths = (
{
closed = 1;
nodes = (
"476 0 LINE SMOOTH",
"577 0 OFFCURVE",
"636 53 OFFCURVE",
"636 165 CURVE SMOOTH",
"636 584 LINE",
"610 584 LINE",
"610 168 LINE SMOOTH",
"610 66 OFFCURVE",
"559 27 OFFCURVE",
"471 27 CURVE SMOOTH",
"289 27 LINE",
"289 434 LINE",
"263 434 LINE",
"263 0 LINE"
);
},
{
closed = 1;
nodes = (
"116 0 LINE",
"116 557 LINE",
"298 557 LINE SMOOTH",
"386 557 OFFCURVE",
"437 518 OFFCURVE",
"437 416 CURVE SMOOTH",
"437 150 LINE",
"463 150 LINE",
"463 419 LINE SMOOTH",
"463 531 OFFCURVE",
"404 584 OFFCURVE",
"303 584 CURVE SMOOTH",
"90 584 LINE",
"90 0 LINE"
);
}
);
width = 721;
},
{
layerId = master02;
paths = (
{
closed = 1;
nodes = (
"552 0 LINE SMOOTH",
"759 0 OFFCURVE",
"841 83 OFFCURVE",
"841 315 CURVE SMOOTH",
"841 609 LINE",
"649 609 LINE",
"649 315 LINE SMOOTH",
"649 185 OFFCURVE",
"617 159 OFFCURVE",
"513 159 CURVE SMOOTH",
"435 159 LINE",
"435 390 LINE",
"313 390 LINE",
"313 0 LINE"
);
},
{
closed = 1;
nodes = (
"267 0 LINE",
"267 450 LINE",
"435 450 LINE SMOOTH",
"465 450 OFFCURVE",
"481 428 OFFCURVE",
"481 384 CURVE SMOOTH",
"481 219 LINE",
"603 219 LINE",
"603 412 LINE SMOOTH",
"603 545 OFFCURVE",
"560 609 OFFCURVE",
"395 609 CURVE SMOOTH",
"75 609 LINE",
"75 0 LINE"
);
}
);
width = 911;
},
{
layerId = master03;
paths = (
{
closed = 1;
nodes = (
"364 0 LINE SMOOTH",
"465 0 OFFCURVE",
"509 38 OFFCURVE",
"509 150 CURVE SMOOTH",
"509 584 LINE",
"483 584 LINE",
"483 155 LINE SMOOTH",
"483 53 OFFCURVE",
"447 27 OFFCURVE",
"359 27 CURVE SMOOTH",
"237 27 LINE",
"237 434 LINE",
"211 434 LINE",
"211 0 LINE"
);
},
{
closed = 1;
nodes = (
"101 0 LINE",
"101 557 LINE",
"223 557 LINE SMOOTH",
"311 557 OFFCURVE",
"347 531 OFFCURVE",
"347 429 CURVE SMOOTH",
"347 150 LINE",
"373 150 LINE",
"373 434 LINE SMOOTH",
"373 546 OFFCURVE",
"329 584 OFFCURVE",
"228 584 CURVE SMOOTH",
"75 584 LINE",
"75 0 LINE"
);
}
);
width = 579;
},
{
layerId = master04;
paths = (
{
closed = 1;
nodes = (
"456 0 LINE SMOOTH",
"608 0 OFFCURVE",
"694 83 OFFCURVE",
"694 309 CURVE SMOOTH",
"694 609 LINE",
"534 609 LINE",
"534 309 LINE SMOOTH",
"534 181 OFFCURVE",
"523 147 OFFCURVE",
"407 147 CURVE SMOOTH",
"358 147 LINE",
"358 390 LINE",
"258 390 LINE",
"258 0 LINE"
);
},
{
closed = 1;
nodes = (
"220 0 LINE",
"220 462 LINE",
"349 462 LINE SMOOTH",
"387 462 OFFCURVE",
"396 437 OFFCURVE",
"396 390 CURVE SMOOTH",
"396 225 LINE",
"496 225 LINE",
"496 418 LINE SMOOTH",
"496 560 OFFCURVE",
"455 609 OFFCURVE",
"309 609 CURVE SMOOTH",
"60 609 LINE",
"60 0 LINE"
);
}
);
width = 749;
}
);
note = "\012sheqel\012";
unicode = 20AA;
},
{
glyphname = "sheva-hb";
layers = (
{
anchors = (
{
name = _bottom;
position = "{71, 0}";
}
);
layerId = master01;
paths = (
{
closed = 1;
nodes = (
"83 -116 OFFCURVE",
"93 -106 OFFCURVE",
"93 -93 CURVE SMOOTH",
"93 -81 OFFCURVE",
"83 -71 OFFCURVE",
"71 -71 CURVE SMOOTH",
"58 -71 OFFCURVE",
"48 -81 OFFCURVE",
"48 -93 CURVE SMOOTH",
"48 -106 OFFCURVE",
"58 -116 OFFCURVE",
"71 -116 CURVE SMOOTH"
);
},
{
closed = 1;
nodes = (
"83 -206 OFFCURVE",
"93 -196 OFFCURVE",
"93 -183 CURVE SMOOTH",
"93 -171 OFFCURVE",
"83 -161 OFFCURVE",
"71 -161 CURVE SMOOTH",
"58 -161 OFFCURVE",
"48 -171 OFFCURVE",
"48 -183 CURVE SMOOTH",
"48 -196 OFFCURVE",
"58 -206 OFFCURVE",
"71 -206 CURVE SMOOTH"
);
}
);
userData = {
com.schriftgestaltung.Glyphs.originalWidth = 144;
};
width = 0;
},
{
anchors = (
{
name = _bottom;
position = "{101, 0}";
}
);
layerId = master02;
paths = (
{
closed = 1;
nodes = (
"121 -142 OFFCURVE",
"138 -125 OFFCURVE",
"138 -105 CURVE SMOOTH",
"138 -85 OFFCURVE",
"121 -68 OFFCURVE",
"101 -68 CURVE SMOOTH",
"81 -68 OFFCURVE",
"64 -85 OFFCURVE",
"64 -105 CURVE SMOOTH",
"64 -125 OFFCURVE",
"81 -142 OFFCURVE",
"101 -142 CURVE SMOOTH"
);
},
{
closed = 1;
nodes = (
"121 -247 OFFCURVE",
"138 -230 OFFCURVE",
"138 -210 CURVE SMOOTH",
"138 -190 OFFCURVE",
"121 -173 OFFCURVE",
"101 -173 CURVE SMOOTH",
"81 -173 OFFCURVE",
"64 -190 OFFCURVE",
"64 -210 CURVE SMOOTH",
"64 -230 OFFCURVE",
"81 -247 OFFCURVE",
"101 -247 CURVE SMOOTH"
);
}
);
userData = {
com.schriftgestaltung.Glyphs.originalWidth = 202;
};
width = 0;
},
{
anchors = (
{
name = _bottom;
position = "{71, 0}";
}
);
layerId = master03;
paths = (
{
closed = 1;
nodes = (
"83 -116 OFFCURVE",
"93 -106 OFFCURVE",
"93 -93 CURVE SMOOTH",
"93 -81 OFFCURVE",
"83 -71 OFFCURVE",
"71 -71 CURVE SMOOTH",
"58 -71 OFFCURVE",
"48 -81 OFFCURVE",
"48 -93 CURVE SMOOTH",
"48 -106 OFFCURVE",
"58 -116 OFFCURVE",
"71 -116 CURVE SMOOTH"
);
},
{
closed = 1;
nodes = (
"83 -206 OFFCURVE",
"93 -196 OFFCURVE",
"93 -183 CURVE SMOOTH",
"93 -171 OFFCURVE",
"83 -161 OFFCURVE",
"71 -161 CURVE SMOOTH",
"58 -161 OFFCURVE",
"48 -171 OFFCURVE",
"48 -183 CURVE SMOOTH",
"48 -196 OFFCURVE",
"58 -206 OFFCURVE",
"71 -206 CURVE SMOOTH"
);
}
);
userData = {
com.schriftgestaltung.Glyphs.originalWidth = 144;
};
width = 0;
},
{
anchors = (
{
name = _bottom;
position = "{101, 0}";
}
);
layerId = master04;
paths = (
{
closed = 1;
nodes = (
"121 -142 OFFCURVE",
"138 -125 OFFCURVE",
"138 -105 CURVE SMOOTH",
"138 -85 OFFCURVE",
"121 -68 OFFCURVE",
"101 -68 CURVE SMOOTH",
"81 -68 OFFCURVE",
"64 -85 OFFCURVE",
"64 -105 CURVE SMOOTH",
"64 -125 OFFCURVE",
"81 -142 OFFCURVE",
"101 -142 CURVE SMOOTH"
);
},
{
closed = 1;
nodes = (
"121 -247 OFFCURVE",
"138 -230 OFFCURVE",
"138 -210 CURVE SMOOTH",
"138 -190 OFFCURVE",
"121 -173 OFFCURVE",
"101 -173 CURVE SMOOTH",
"81 -173 OFFCURVE",
"64 -190 OFFCURVE",
"64 -210 CURVE SMOOTH",
"64 -230 OFFCURVE",
"81 -247 OFFCURVE",
"101 -247 CURVE SMOOTH"
);
}
);
userData = {
com.schriftgestaltung.Glyphs.originalWidth = 202;
};
width = 0;
}
);
note = "\012sheva\012";
unicode = 05B0;
},
{
glyphname = "shin-hb";
layers = (
{
anchors = (
{
name = bottom;
position = "{337, 0}";
},
{
name = bottomleft;
position = "{121, 0}";
},
{
name = center;
position = "{425, 213}";
},
{
name = top;
position = "{336, 528}";
},
{
name = topleft;
position = "{88, 528}";
},
{
name = topright;
position = "{588, 528}";
}
);
layerId = master01;
paths = (
{
closed = 1;
nodes = (
"341 0 LINE SMOOTH",
"512 0 OFFCURVE",
"603 123 OFFCURVE",
"603 331 CURVE SMOOTH",
"603 584 LINE",
"571 584 LINE",
"571 328 LINE SMOOTH",
"571 138 OFFCURVE",
"492 25 OFFCURVE",
"341 25 CURVE SMOOTH",
"326 25 LINE SMOOTH",
"179 25 OFFCURVE",
"102 138 OFFCURVE",
"102 328 CURVE",
"102 584 LINE",
"70 584 LINE",
"70 331 LINE SMOOTH",
"70 123 OFFCURVE",
"159 0 OFFCURVE",
"326 0 CURVE SMOOTH"
);
},
{
closed = 1;
nodes = (
"249 220 OFFCURVE",
"352 308 OFFCURVE",
"352 461 CURVE SMOOTH",
"352 584 LINE",
"320 584 LINE",
"320 458 LINE SMOOTH",
"320 321 OFFCURVE",
"228 243 OFFCURVE",
"92 250 CURVE",
"96 224 LINE"
);
}
);
width = 674;
},
{
anchors = (
{
name = bottom;
position = "{416, 0}";
},
{
name = bottomleft;
position = "{151, 0}";
},
{
name = center;
position = "{478, 256}";
},
{
name = top;
position = "{413, 553}";
},
{
name = topleft;
position = "{148, 553}";
},
{
name = topright;
position = "{679, 553}";
}
);
layerId = master02;
paths = (
{
closed = 1;
nodes = (
"417 -9 LINE SMOOTH",
"634 -8 OFFCURVE",
"769 111 OFFCURVE",
"769 368 CURVE SMOOTH",
"769 609 LINE",
"578 609 LINE",
"578 370 LINE SMOOTH",
"578 203 OFFCURVE",
"518 145 OFFCURVE",
"412 144 CURVE SMOOTH",
"411 144 LINE SMOOTH",
"306 144 OFFCURVE",
"246 203 OFFCURVE",
"246 372 CURVE SMOOTH",
"246 609 LINE",
"55 609 LINE",
"55 369 LINE SMOOTH",
"55 112 OFFCURVE",
"193 -9 OFFCURVE",
"415 -9 CURVE SMOOTH"
);
},
{
closed = 1;
nodes = (
"444 234 OFFCURVE",
"509 358 OFFCURVE",
"509 548 CURVE SMOOTH",
"509 609 LINE",
"318 609 LINE",
"318 539 LINE SMOOTH",
"318 421 OFFCURVE",
"308 360 OFFCURVE",
"181 368 CURVE",
"191 241 LINE"
);
}
);
width = 824;
},
{
anchors = (
{
name = bottom;
position = "{242, 0}";
},
{
name = bottomleft;
position = "{87, 0}";
},
{
name = center;
position = "{283, 213}";
},
{
name = top;
position = "{257, 528}";
},
{
name = topleft;
position = "{72, 528}";
},
{
name = topright;
position = "{420, 528}";
}
);
layerId = master03;
paths = (
{
closed = 1;
nodes = (
"245 0 LINE SMOOTH",
"377 0 OFFCURVE",
"437 92 OFFCURVE",
"437 293 CURVE SMOOTH",
"437 584 LINE",
"405 584 LINE",
"405 290 LINE SMOOTH",
"405 108 OFFCURVE",
"355 25 OFFCURVE",
"245 25 CURVE SMOOTH",
"240 25 LINE SMOOTH",
"134 25 OFFCURVE",
"86 108 OFFCURVE",
"86 290 CURVE",
"86 584 LINE",
"54 584 LINE",
"54 293 LINE SMOOTH",
"54 92 OFFCURVE",
"112 0 OFFCURVE",
"240 0 CURVE SMOOTH"
);
},
{
closed = 1;
nodes = (
"168 220 OFFCURVE",
"261 308 OFFCURVE",
"261 518 CURVE SMOOTH",
"261 584 LINE",
"229 584 LINE",
"229 515 LINE SMOOTH",
"229 321 OFFCURVE",
"147 243 OFFCURVE",
"61 250 CURVE",
"65 224 LINE"
);
}
);
width = 491;
},
{
anchors = (
{
name = bottom;
position = "{338, 0}";
},
{
name = bottomleft;
position = "{95, 0}";
},
{
name = center;
position = "{371, 225}";
},
{
name = top;
position = "{346, 553}";
},
{
name = topleft;
position = "{126, 553}";
},
{
name = topright;
position = "{544, 553}";
}
);
layerId = master04;
paths = (
{
closed = 1;
nodes = (
"340 -9 LINE SMOOTH",
"562 -9 OFFCURVE",
"642 111 OFFCURVE",
"642 368 CURVE SMOOTH",
"642 609 LINE",
"451 609 LINE",
"451 370 LINE SMOOTH",
"451 203 OFFCURVE",
"436 144 OFFCURVE",
"335 144 CURVE SMOOTH",
"334 144 LINE SMOOTH",
"244 144 OFFCURVE",
"219 203 OFFCURVE",
"219 372 CURVE SMOOTH",
"219 609 LINE",
"28 609 LINE",
"28 369 LINE SMOOTH",
"28 112 OFFCURVE",
"121 -9 OFFCURVE",
"338 -9 CURVE SMOOTH"
);
},
{
closed = 1;
nodes = (
"367 224 OFFCURVE",
"417 338 OFFCURVE",
"417 528 CURVE SMOOTH",
"417 609 LINE",
"256 609 LINE",
"256 519 LINE SMOOTH",
"256 401 OFFCURVE",
"246 340 OFFCURVE",
"119 348 CURVE",
"129 231 LINE"
);
}
);
width = 670;
}
);
unicode = 05E9;
},
{
glyphname = "shindot-hb";
layers = (
{
anchors = (
{
name = _topright;
position = "{72, 528}";
}
);
layerId = master01;
paths = (
{
closed = 1;
nodes = (
"85 655 OFFCURVE",
"95 665 OFFCURVE",
"95 678 CURVE SMOOTH",
"95 690 OFFCURVE",
"85 700 OFFCURVE",
"73 700 CURVE SMOOTH",
"60 700 OFFCURVE",
"50 690 OFFCURVE",
"50 678 CURVE SMOOTH",
"50 665 OFFCURVE",
"60 655 OFFCURVE",
"73 655 CURVE SMOOTH"
);
}
);
userData = {
com.schriftgestaltung.Glyphs.originalWidth = 144;
};
width = 0;
},
{
anchors = (
{
name = _topright;
position = "{101, 553}";
}
);
layerId = master02;
paths = (
{
closed = 1;
nodes = (
"120 678 OFFCURVE",
"137 695 OFFCURVE",
"137 715 CURVE SMOOTH",
"137 735 OFFCURVE",
"120 752 OFFCURVE",
"100 752 CURVE SMOOTH",
"80 752 OFFCURVE",
"63 735 OFFCURVE",
"63 715 CURVE SMOOTH",
"63 695 OFFCURVE",
"80 678 OFFCURVE",
"100 678 CURVE SMOOTH"
);
}
);
userData = {
com.schriftgestaltung.Glyphs.originalWidth = 202;
};
width = 0;
},
{
anchors = (
{
name = _topright;
position = "{72, 528}";
}
);
layerId = master03;
paths = (
{
closed = 1;
nodes = (
"85 655 OFFCURVE",
"95 665 OFFCURVE",
"95 678 CURVE SMOOTH",
"95 690 OFFCURVE",
"85 700 OFFCURVE",
"73 700 CURVE SMOOTH",
"60 700 OFFCURVE",
"50 690 OFFCURVE",
"50 678 CURVE SMOOTH",
"50 665 OFFCURVE",
"60 655 OFFCURVE",
"73 655 CURVE SMOOTH"
);
}
);
userData = {
com.schriftgestaltung.Glyphs.originalWidth = 144;
};
width = 0;
},
{
anchors = (
{
name = _topright;
position = "{101, 553}";
}
);
layerId = master04;
paths = (
{
closed = 1;
nodes = (
"121 678 OFFCURVE",
"138 695 OFFCURVE",
"138 715 CURVE SMOOTH",
"138 735 OFFCURVE",
"121 752 OFFCURVE",
"101 752 CURVE SMOOTH",
"81 752 OFFCURVE",
"64 735 OFFCURVE",
"64 715 CURVE SMOOTH",
"64 695 OFFCURVE",
"81 678 OFFCURVE",
"101 678 CURVE SMOOTH"
);
}
);
userData = {
com.schriftgestaltung.Glyphs.originalWidth = 202;
};
width = 0;
}
);
note = "\012shindot\012";
unicode = 05C1;
},
{
glyphname = "siluqleft-hb";
layers = (
{
anchors = (
{
name = _bottomleft;
position = "{63, 0}";
}
);
layerId = master01;
paths = (
{
closed = 1;
nodes = (
"75 -211 LINE",
"75 -66 LINE",
"50 -66 LINE",
"50 -211 LINE"
);
}
);
userData = {
com.schriftgestaltung.Glyphs.originalWidth = 125;
};
width = 0;
},
{
anchors = (
{
name = _bottomleft;
position = "{86, 0}";
}
);
layerId = master02;
paths = (
{
closed = 1;
nodes = (
"116 -247 LINE",
"116 -74 LINE",
"55 -74 LINE",
"55 -247 LINE"
);
}
);
userData = {
com.schriftgestaltung.Glyphs.originalWidth = 171;
};
width = 0;
},
{
anchors = (
{
name = _bottomleft;
position = "{63, 0}";
}
);
layerId = master03;
paths = (
{
closed = 1;
nodes = (
"75 -211 LINE",
"75 -66 LINE",
"50 -66 LINE",
"50 -211 LINE"
);
}
);
userData = {
com.schriftgestaltung.Glyphs.originalWidth = 125;
};
width = 0;
},
{
anchors = (
{
name = _bottomleft;
position = "{86, 0}";
}
);
layerId = master04;
paths = (
{
closed = 1;
nodes = (
"117 -230 LINE",
"117 -69 LINE",
"54 -69 LINE",
"54 -230 LINE"
);
}
);
userData = {
com.schriftgestaltung.Glyphs.originalWidth = 171;
};
width = 0;
}
);
note = "\012meteg\012";
unicode = 05BD;
},
